<svg width="1037" height="691" viewBox="0 0 1037 691" fill="none" xmlns="http://www.w3.org/2000/svg">
<path d="M214.97 648.296H884.319C891.578 648.296 897.489 642.354 897.489 635.133C897.489 627.877 891.543 621.969 884.319 621.969H214.97C207.711 621.969 201.8 627.912 201.8 635.133C201.765 642.388 207.711 648.296 214.97 648.296Z" fill="#543C31"/>
<path d="M223.819 166.738C190.497 147.805 192.744 188.988 209.025 247.24C225.305 305.491 205.291 295.264 186.625 272.738C167.959 250.211 147.323 278.162 185.796 331.922C224.268 385.682 241.897 401.402 223.197 407.206C204.496 413.011 154.444 344.878 137.126 368.614C119.808 392.35 252.44 554.493 313.001 543.264C373.596 532.07 402.218 398.154 354.412 377.562C306.606 356.971 318.566 412.665 294.784 391.866C271.003 371.067 332.946 319.207 298.379 281.582C263.813 243.958 268.134 303.211 249.398 278.818C230.698 254.426 270.933 193.515 223.819 166.738Z" fill="#4F9E1C"/>
<path d="M131.561 344.014C106.016 352.168 121.122 378.599 150.088 407.725C179.055 436.85 164.088 442.551 145.733 439.061C127.413 435.572 124.924 467.462 165.125 479.589C205.326 491.716 220.777 491.267 211.963 506.952C203.148 522.638 151.402 508.092 149.397 535.007C147.392 561.956 278.262 588.145 309.406 542.435C340.551 496.76 312.068 388.204 277.605 404.339C243.142 420.474 268.756 450.636 248.05 451.534C227.345 452.432 245.631 378.392 213.069 374.695C180.507 370.998 202.906 408.347 183.929 403.648C164.987 398.983 167.718 332.475 131.561 344.014Z" fill="#4F9E1C"/>
<path opacity="0.99" d="M123.852 426.105C137.437 407.69 154.686 427.107 170.345 458.478C186.003 489.85 194.68 479.278 196.892 463.523C199.104 447.768 225.548 454.471 224.372 490.264C223.197 526.093 218.6 538.427 233.74 535.594C248.88 532.761 251.196 486.948 273.526 492.717C295.856 498.453 281.304 611.397 235.814 624.077C190.324 636.756 110.302 584.102 132.771 560.643C155.239 537.183 172.626 566.136 179.021 549.656C185.416 533.176 120.499 527.717 126.41 500.388C132.321 473.059 156.414 501.39 157.797 484.736C159.18 468.152 104.633 452.19 123.852 426.105Z" fill="#8EB98A"/>
<path d="M924.002 303.176C912.007 283.69 893.203 301.621 874.986 331.576C856.769 361.531 848.992 350.302 848.128 334.409C847.264 318.516 820.302 323.008 818.504 358.802C816.707 394.596 820.232 407.31 805.403 403.198C790.574 399.122 792.061 353.274 769.316 357.143C746.571 361.013 751.687 474.752 795.967 491.163C840.212 507.574 924.347 461.726 903.918 436.505C883.489 411.283 863.717 438.647 858.74 421.717C853.762 404.788 918.886 404.719 915.256 377.01C911.627 349.3 885.287 375.489 885.287 358.802C885.287 342.114 940.974 330.747 924.002 303.176Z" fill="#8EB98A"/>
<path d="M778.269 132.257C805.542 127.282 804.608 158.688 792.406 199.354C780.204 239.984 796.624 237.877 811.625 225.784C826.627 213.692 844.429 241.539 813.665 272.15C782.901 302.762 768.625 309.879 784.318 319.899C800.011 329.918 840.039 291.464 854.972 315.027C869.905 338.59 763.405 426.14 712.765 399.64C662.125 373.14 635.232 260.369 674.499 258.33C713.767 256.257 705.126 296.197 724.414 286.972C743.702 277.747 690.988 219.151 718.883 199.941C746.744 180.731 744.532 225.681 759.533 212.137C774.57 198.593 739.692 139.306 778.269 132.257Z" fill="#4F9E1C"/>
<path d="M970.355 478.897C967.314 456.198 942.84 464.939 914.012 484.909C885.183 504.879 882.66 491.439 888.329 476.548C893.998 461.657 867.589 454.816 851.342 486.775C835.096 518.734 833.16 531.759 821.304 522.016C809.413 512.238 829.462 470.986 807.097 465.285C784.767 459.549 743.08 565.549 776.817 598.544C810.554 631.539 906.062 623.938 897.696 592.567C889.297 561.196 860.122 578.16 862.473 560.677C864.823 543.161 924.313 569.626 932.332 542.85C940.317 516.073 905.578 529.271 912.353 514.035C919.162 498.729 974.642 510.994 970.355 478.897Z" fill="#8EB98A"/>
<path d="M649.439 460.621H878.789V623.593H649.439V460.621Z" fill="url(#paint0_linear_1125_1421)"/>
<path d="M745.983 460.621H782.244V487.535H745.983V460.621Z" fill="#DF4640"/>
<path d="M745.983 596.644H782.244V623.559H745.983V596.644Z" fill="#DF4640"/>
<path d="M689.674 340.318H822.479V460.655H689.674V340.318Z" fill="url(#paint1_linear_1125_1421)"/>
<path d="M745.568 340.318H766.585V360.184H745.568V340.318Z" fill="#DF4640"/>
<path d="M745.568 440.754H766.585V460.621H745.568V440.754Z" fill="#DF4640"/>
<path d="M497.207 632.714H698.281C719.574 632.714 737.03 615.301 737.03 593.984V124.864C737.03 97.2238 714.389 74.5935 686.736 74.5935H497.207C475.914 74.5935 458.458 92.0067 458.458 113.324V594.018C458.458 615.301 475.879 632.714 497.207 632.714Z" fill="#4D4D4D"/>
<path d="M501.804 87.2042H534.954C540.899 87.2042 545.738 92.0412 545.738 97.9838V106.932C545.738 110.733 548.85 113.842 552.652 113.842H631.879C635.681 113.842 638.792 110.733 638.792 106.932V97.9838C638.792 92.0412 643.631 87.2042 649.577 87.2042H682.069C705.471 87.2042 724.586 106.345 724.586 129.701V588.698C724.586 605.696 710.656 619.62 693.649 619.62H501.804C484.797 619.62 470.867 605.696 470.867 588.698V118.126C470.867 101.128 484.797 87.2042 501.804 87.2042Z" fill="white"/>
<path d="M676.781 198.87L675.156 94.1141H682.104C691.575 94.1141 700.493 97.8455 707.234 104.583C713.974 111.32 717.708 120.268 717.708 129.701V198.87H676.781Z" fill="#ECECEC"/>
<path d="M678.751 325.979L676.815 202.981H717.673V305.802L678.751 325.979Z" fill="#F5F5F5"/>
<path d="M477.78 430.009V396.185L479.854 312.159H569.209L563.989 385.371L477.78 430.009Z" fill="#ECECEC"/>
<path d="M563.229 395.978L556.592 488.71H477.78V440.202L563.229 395.978Z" fill="#F5F5F5"/>
<path d="M477.78 244.683V136.023L577.159 199.975L477.78 244.683Z" fill="#F5F5F5"/>
<path d="M477.78 522.914V493.616H556.454V546.65L477.78 522.914Z" fill="#F5F5F5"/>
<path d="M713.767 601.792C709.481 608.356 702.049 612.71 693.649 612.71H681.171V591.98L713.767 601.792Z" fill="#F5F5F5"/>
<path d="M556.454 554.32V612.675H501.839C488.6 612.675 477.815 601.895 477.815 588.663V530.584L556.454 554.32Z" fill="#F5F5F5"/>
<path d="M590.329 140.1L591.85 120.718H631.879C639.518 120.718 645.705 114.499 645.705 106.898V97.9492C645.705 95.8071 647.434 94.0796 649.577 94.0796H668.761L669.418 140.066H590.329V140.1Z" fill="#F5F5F5"/>
<path d="M589.984 144.315H669.487L670.248 198.87H585.698L589.984 144.315Z" fill="#F5F5F5"/>
<path d="M595.618 493.616V558.466L563.229 548.688V493.616H595.618Z" fill="#F5F5F5"/>
<path d="M568.864 412.907L570.488 392.212L618.812 367.197V412.907H568.864Z" fill="#F5F5F5"/>
<path d="M618.812 417.088V488.71H562.918L568.553 417.088H618.812Z" fill="#F5F5F5"/>
<path d="M525.621 94.1141H534.988C537.131 94.1141 538.86 95.8416 538.86 97.9837V106.932C538.86 114.568 545.082 120.752 552.686 120.752H587.771L581.238 197.695L525.621 161.901V94.1141Z" fill="#F5F5F5"/>
<path d="M501.804 94.1141H521.369V159.206L477.746 131.117V118.126C477.781 104.894 488.565 94.1141 501.804 94.1141Z" fill="#F5F5F5"/>
<path d="M632.674 577.331L674.396 589.907V612.71H632.674V577.331Z" fill="#F5F5F5"/>
<path d="M628.457 576.052V612.71H563.229V556.393L628.457 576.052Z" fill="#F5F5F5"/>
<path d="M599.835 493.616H674.396V528.511H599.835V493.616Z" fill="#F5F5F5"/>
<path d="M681.17 493.616H717.673V528.511H681.17V493.616Z" fill="#ECECEC"/>
<path d="M674.396 532.726V582.237L599.835 559.745V532.726H674.396Z" fill="#F5F5F5"/>
<path d="M717.673 532.726V588.663C717.673 590.874 717.362 592.982 716.809 595.02L681.17 584.275V532.726H717.673Z" fill="#ECECEC"/>
<path d="M673.877 453.192L674.396 488.71H623.583V453.192H673.877Z" fill="#F5F5F5"/>
<path d="M623.582 364.744L678.889 336.102L717.673 316.029V488.71H681.274L680.721 448.977H623.582V364.744Z" fill="#F5F5F5"/>
<path d="M530.667 225.439V303.625H477.78V249.209L530.667 225.439Z" fill="#F5F5F5"/>
<path d="M534.884 223.538L580.754 202.878L572.216 303.625H534.884V223.538Z" fill="#F5F5F5"/>
<path d="M580.72 262.373L585.145 205.918L670.317 202.981L670.939 262.373H580.72Z" fill="#ECECEC"/>
<path d="M670.974 266.588L671.63 329.642L571.352 381.57L580.374 266.588H670.974Z" fill="#ECECEC"/>
<path d="M247.601 346.156C247.601 346.156 246.184 342.909 244.387 343.6C242.555 344.291 241.517 344.602 240.204 343.6C238.89 342.598 234.293 342.46 232.876 344.913C231.459 347.366 229.661 342.909 228.382 343.6C227.103 344.291 224.891 347.366 223.474 347.228C222.056 347.089 219.084 345.535 215.731 358.387C213.933 364.917 220.501 370.929 222.056 370.791C223.612 370.652 223.958 369.374 224.822 370.238C225.686 371.067 228.209 372.622 229.903 372.484C231.597 372.345 233.394 368.89 233.705 368.925C234.017 368.959 235.399 372.034 237.197 371.827C239.029 371.62 241.276 368.89 241.69 368.925C242.105 368.959 247.359 373.175 251.887 366.023C251.922 366.023 254.342 357.593 247.601 346.156Z" fill="#F9A186"/>
<path opacity="0.5" d="M218.738 356.556C219.36 354.483 222.195 354.31 221.054 358.249C220.017 361.738 224.96 369.443 226.101 371.171C225.582 370.825 225.133 370.48 224.856 370.238C224.407 369.823 224.096 369.927 223.681 370.169C220.985 365.815 218.254 358.214 218.738 356.556Z" fill="#EE8C74"/>
<path opacity="0.5" d="M227.311 356.556C227.933 354.483 230.767 354.31 229.626 358.249C228.486 362.084 234.673 370.169 234.95 370.549C234.293 369.789 233.844 368.925 233.705 368.89C233.567 368.856 233.118 369.616 232.496 370.411C229.419 366.679 226.723 358.456 227.311 356.556Z" fill="#EE8C74"/>
<path opacity="0.5" d="M241.69 368.925C241.552 368.925 241.206 369.201 240.757 369.616C237.75 365.884 235.295 358.456 235.883 356.591C236.505 354.518 239.34 354.345 238.199 358.283C237.128 361.946 241.69 368.441 242.312 369.27C242.001 369.063 241.759 368.925 241.69 368.925Z" fill="#EE8C74"/>
<path d="M273.768 343.6C273.768 343.6 257.453 346.502 247.601 346.156C247.601 346.156 253.478 354.621 251.922 366.023H275.98L273.768 343.6Z" fill="#EE8C74"/>
<path d="M549.783 349.162V440.858C549.783 450.878 541.59 459.066 531.566 459.066H449.055C439.031 459.066 430.839 450.878 430.839 440.858V349.128H549.783V349.162Z" fill="#6E554C"/>
<path d="M520.194 349.162V440.858C520.194 450.878 512.002 459.066 501.977 459.066H449.021C438.997 459.066 430.804 450.878 430.804 440.858V349.128H520.194V349.162Z" fill="#66493C"/>
<path d="M448.33 322.006H532.292C542.489 322.006 550.82 330.194 550.82 340.214V349.162H429.802V340.214C429.802 330.194 438.132 322.006 448.33 322.006Z" fill="#6E554C"/>
<path d="M448.329 322.006H502.219C512.416 322.006 520.747 330.194 520.747 340.214V349.162H429.802V340.214C429.802 330.194 438.132 322.006 448.329 322.006Z" fill="#66493C"/>
<path d="M430.873 349.162H549.783V351.961H430.873V349.162Z" fill="#D03731"/>
<path d="M344.18 528.961C349.158 497.486 351.992 475.443 353.099 459.066H512.762C512.762 459.066 546.534 468.775 544.667 531.828C544.46 538.565 538.929 543.955 532.189 543.955H435.92C435.92 543.955 418.464 528.995 395.754 528.995C373.009 528.961 344.18 528.961 344.18 528.961Z" fill="#66493C"/>
<path d="M352.649 428.938C352.649 428.938 405.847 426.071 432.36 428.938C458.872 431.806 462.675 432.912 465.613 459.066H353.098L352.649 428.938Z" fill="#373131"/>
<path d="M201.766 579.818C201.766 611.086 216.698 636.446 248.673 636.446C280.612 636.446 298.898 611.086 298.898 579.818C298.898 548.55 277.156 520.703 250.332 520.703C220.051 520.703 201.766 548.55 201.766 579.818Z" fill="#3A3434"/>
<path d="M260.079 616.545C245.761 616.545 234.154 599.545 234.154 578.574C234.154 557.604 245.761 540.604 260.079 540.604C274.397 540.604 286.004 557.604 286.004 578.574C286.004 599.545 274.397 616.545 260.079 616.545Z" fill="#F6F0F0"/>
<path d="M260.079 614.886C246.907 614.886 236.228 598.629 236.228 578.574C236.228 558.52 246.907 542.262 260.079 542.262C273.252 542.262 283.93 558.52 283.93 578.574C283.93 598.629 273.252 614.886 260.079 614.886Z" fill="#CEB4B7"/>
<path d="M272.904 578.574C272.904 562.612 266.44 549.034 257.418 544.197C258.282 544.059 259.181 543.955 260.079 543.955C272.662 543.955 282.859 559.468 282.859 578.609C282.859 597.75 272.662 613.263 260.079 613.263C259.181 613.263 258.282 613.159 257.418 613.021C266.405 608.115 272.904 594.537 272.904 578.574Z" fill="#BA9A9D"/>
<path d="M261.289 567.104L292.054 522.534L304.152 530.861L273.388 575.465C272.558 576.674 269.205 575.776 265.852 573.461C262.499 571.112 260.46 568.279 261.289 567.104Z" fill="#514546"/>
<path d="M266.156 572.982C263.076 570.859 261.123 568.348 261.795 567.375C262.467 566.401 265.509 567.332 268.589 569.455C271.669 571.579 273.622 574.089 272.95 575.063C272.278 576.037 269.236 575.105 266.156 572.982Z" fill="#1A1A1A"/>
<path d="M257.383 578.782C257.383 576.571 258.835 574.774 260.702 574.636H260.736L264.504 569.108C264.746 568.762 266.232 569.384 267.823 570.49C269.413 571.595 270.553 572.735 270.311 573.081L267.477 577.227C267.65 577.711 267.753 578.229 267.753 578.782C267.753 581.062 266.163 582.928 264.228 582.928H260.702C258.87 582.79 257.383 580.993 257.383 578.782Z" fill="#514546"/>
<path d="M388.218 579.818C388.218 611.086 403.151 636.446 435.125 636.446C467.065 636.446 485.351 611.086 485.351 579.818C485.351 548.55 463.608 520.703 436.784 520.703C406.469 520.703 388.218 548.55 388.218 579.818Z" fill="#3A3434"/>
<path d="M446.532 616.545C432.214 616.545 420.607 599.545 420.607 578.574C420.607 557.604 432.214 540.604 446.532 540.604C460.85 540.604 472.457 557.604 472.457 578.574C472.457 599.545 460.85 616.545 446.532 616.545Z" fill="#F6F0F0"/>
<path d="M446.532 614.886C433.36 614.886 422.681 598.629 422.681 578.574C422.681 558.52 433.36 542.262 446.532 542.262C459.705 542.262 470.383 558.52 470.383 578.574C470.383 598.629 459.705 614.886 446.532 614.886Z" fill="#CEB4B7"/>
<path d="M459.322 578.574C459.322 562.612 452.858 549.034 443.836 544.197C444.7 544.059 445.599 543.955 446.497 543.955C459.08 543.955 469.277 559.468 469.277 578.609C469.277 597.75 459.08 613.263 446.497 613.263C445.599 613.263 444.7 613.159 443.836 613.021C452.858 608.115 459.322 594.537 459.322 578.574Z" fill="#BA9A9D"/>
<path d="M264.85 487.328C248.431 486.948 216.595 494.618 206.363 525.333C204.946 529.272 210.027 530.377 216.595 531.206C223.162 532.036 250.263 532.623 260.079 532.623C269.896 532.623 274.874 532.623 277.743 532.623C280.612 532.623 290.395 542.953 298.863 562.301C303.219 572.183 303.115 572.805 301.456 574.187C301.456 574.187 302.942 573.91 304.913 571.077C306.917 568.244 305.742 526.853 295.545 509.509C285.382 492.165 278.331 487.639 264.85 487.328Z" fill="#66493C"/>
<path d="M301.456 557.914C301.352 554.009 301.041 549.276 300.488 544.094C298.898 529.755 295.891 518.216 291.985 511.617C287.906 504.707 284.518 500.111 281.165 497.071C276.326 492.752 230.283 527.682 242.001 527.924C258.801 528.235 277.778 528.442 277.778 528.442C284.415 528.442 294.612 543.161 301.456 557.914Z" fill="#6E554C"/>
<path d="M322.299 574.187C322.299 574.187 403.531 574.187 409.408 574.187C415.284 574.187 434.192 549.656 435.886 543.921H474.98C474.98 543.921 467.479 574.601 464.127 582.928C460.774 591.22 454.517 593.327 443.87 593.327C433.189 593.327 358.491 593.327 350.091 593.327C341.657 593.327 337.025 592.464 322.299 574.187Z" fill="#373131"/>
<path d="M365.162 574.187C365.162 574.187 403.531 574.187 409.408 574.187C415.284 574.187 434.192 549.656 435.886 543.921H474.98C474.98 543.921 467.479 574.601 464.127 582.928C460.774 591.22 454.517 593.327 443.87 593.327C433.189 593.327 401.353 593.327 392.954 593.327C384.52 593.327 379.888 592.464 365.162 574.187Z" fill="#453C3D"/>
<path d="M409.408 574.186C412.069 574.186 417.358 569.177 422.543 563.165C433.708 563.165 448.71 563.165 453.515 563.165C461.5 563.165 461.154 571.768 460.255 575.603C457.87 585.864 453.86 589.147 443.836 589.147H392.919C388.495 589.147 385.384 584.828 379.749 574.152C391.26 574.187 405.951 574.186 409.408 574.186Z" fill="#594F4E"/>
<path d="M435.92 543.921C435.92 543.921 418.464 528.961 395.754 528.961C373.044 528.961 344.215 528.961 344.215 528.961C344.215 528.961 337.889 567.449 362.743 567.449C387.596 567.449 399.141 567.449 407.783 567.449C416.425 567.449 435.92 543.921 435.92 543.921Z" fill="#CCB2B3"/>
<path d="M250.332 401.506C276.637 369.961 332.013 377.528 343.455 401.506C354.896 425.483 358.698 437.265 344.18 528.961C344.18 528.961 337.855 567.449 362.708 567.449C387.562 567.449 399.107 567.449 407.749 567.449C416.39 567.449 435.92 543.921 435.92 543.921C434.227 549.621 415.319 574.187 409.442 574.187C403.566 574.187 322.334 574.187 322.334 574.187H301.491C301.491 574.187 302.977 573.91 304.947 571.077C306.952 568.244 305.777 526.853 295.58 509.509C285.383 492.165 278.331 487.639 264.85 487.328C251.507 487.017 227.967 492.027 214.141 510.407C214.141 510.373 224.027 433.05 250.332 401.506Z" fill="#66493C"/>
<g opacity="0.5">
<path d="M338.304 542.262C337.647 520.841 345.459 497.624 347.775 443.553C349.919 393.525 313.796 382.158 313.727 382.123C327.519 385.06 338.926 391.97 343.455 401.471C354.896 425.449 358.698 437.23 344.18 528.926C344.18 528.926 337.855 567.415 362.708 567.415C387.562 567.415 399.107 567.415 407.749 567.415C416.39 567.415 435.92 543.886 435.92 543.886C434.227 549.587 415.319 574.152 409.442 574.152C406.366 574.152 382.722 574.152 360.842 574.152C343.973 568.486 338.719 556.255 338.304 542.262Z" fill="#E0D2D2"/>
</g>
<g opacity="0.5">
<path d="M313.727 382.158L305.777 380.948C308.507 381.19 311.135 381.605 313.727 382.158Z" fill="#E0D2D2"/>
</g>
<path d="M211.652 358.525L231.147 357.834V362.084L211.652 362.844C210.857 362.844 210.2 361.877 210.2 360.668C210.2 359.493 210.857 358.525 211.652 358.525Z" fill="url(#paint2_linear_1125_1421)"/>
<path d="M302.908 380.707L313.727 382.158C313.727 382.158 349.434 393.939 340.205 449.046C330.941 504.154 323.959 495.723 309.786 490.679C295.614 485.635 260.702 476.341 238.372 487.293C216.042 498.246 226.999 460.793 232.046 448.597C234.846 441.86 243.107 420.094 249.952 401.989C250.09 401.817 250.228 401.644 250.366 401.506C263.571 385.613 284.242 379.635 302.908 380.707Z" fill="#6E554C"/>
<path d="M235.987 354.863L239.996 354.069C240.688 350.441 242.727 347.849 245.078 347.849H248.154V349.508C249.537 351.166 250.436 353.861 250.436 356.936C250.436 360.011 249.537 362.706 248.154 364.364V366.023H245.078C244.179 366.023 243.315 365.643 242.554 364.952L236.229 365.297C236.125 365.297 236.056 365.297 235.952 365.297C232.979 365.297 230.594 362.948 230.594 360.08C230.629 357.213 233.014 354.863 235.987 354.863Z" fill="url(#paint3_linear_1125_1421)"/>
<path d="M239.063 354.863L243.073 354.069C243.764 350.441 245.803 347.849 248.154 347.849C251.127 347.849 253.512 351.926 253.512 356.936C253.512 361.946 251.092 366.023 248.154 366.023C247.255 366.023 246.391 365.643 245.631 364.952L239.305 365.297C239.201 365.297 239.132 365.297 239.028 365.297C236.056 365.297 233.67 362.948 233.67 360.08C233.705 357.213 236.125 354.863 239.063 354.863Z" fill="url(#paint4_linear_1125_1421)"/>
<path d="M281.753 382.572C292.503 379.981 303.703 380.015 313.692 382.158C313.692 382.158 301.214 395.77 288.148 498.557C281.303 490.126 274.839 487.57 264.815 487.328C262.465 487.259 259.803 487.397 256.934 487.708C256.968 487.673 260.391 426.9 281.753 382.572Z" fill="#6E554C"/>
<path d="M310.478 381.536C310.166 382.019 294.992 404.477 285.348 495.343C279.471 489.435 273.491 487.501 264.85 487.293C262.499 487.224 259.837 487.362 256.968 487.673C256.968 487.673 260.39 426.865 281.753 382.572C291.362 380.257 301.352 380.05 310.478 381.536Z" fill="#66493C"/>
<path d="M347.326 364.261C347.326 364.261 334.674 363.639 324.996 364.261C315.317 364.883 314.384 373.727 313.692 382.123H283.239C283.239 382.123 287.525 364.123 272.178 363.984C272.178 363.984 253.443 364.675 250.194 364.883C246.944 365.09 245.147 360.668 245.25 357.316C245.354 353.965 246.391 349.75 250.712 349.542L272.074 347.953L294.785 330.713C294.785 330.713 306.572 330.091 316.873 341.216C324.961 350.579 350.541 348.471 350.541 348.471L347.326 364.261Z" fill="#6E554C"/>
<path d="M325.03 364.261C319.223 364.641 316.561 367.958 315.213 372.38C310.996 373.106 307.228 374.107 304.567 375.559C293.54 381.467 284.898 374.28 283.516 373.002C282.651 368.51 279.852 364.053 272.247 363.984C272.247 363.984 253.512 364.675 250.262 364.883C247.013 365.09 245.216 360.668 245.319 357.316C245.354 356.383 245.458 355.381 245.7 354.414C261.981 368.061 272.281 352.548 272.281 352.548L310.927 347.884C333.81 362.257 350.644 348.506 350.644 348.506L347.395 364.295C347.326 364.261 334.674 363.639 325.03 364.261Z" fill="#66493C"/>
<path d="M289.772 374.384C280.074 374.384 272.212 364.608 272.212 352.548C272.212 340.489 280.074 330.713 289.772 330.713C299.47 330.713 307.332 340.489 307.332 352.548C307.332 364.608 299.47 374.384 289.772 374.384Z" fill="url(#paint5_linear_1125_1421)"/>
<path d="M307.367 352.548C307.367 340.49 299.486 330.713 289.807 330.713H293.748C303.461 330.713 311.308 340.49 311.308 352.548C311.308 364.606 303.426 374.384 293.748 374.384H289.807C299.486 374.349 307.367 364.606 307.367 352.548Z" fill="#CAADB1"/>
<path d="M289.773 368.925C282.48 368.925 276.568 361.593 276.568 352.548C276.568 343.504 282.48 336.172 289.773 336.172C297.065 336.172 302.977 343.504 302.977 352.548C302.977 361.593 297.065 368.925 289.773 368.925Z" fill="url(#paint6_linear_1125_1421)"/>
<path d="M289.772 367.958C282.919 367.958 277.363 361.059 277.363 352.548C277.363 344.038 282.919 337.139 289.772 337.139C296.626 337.139 302.182 344.038 302.182 352.548C302.182 361.059 296.626 367.958 289.772 367.958Z" fill="url(#paint7_linear_1125_1421)"/>
<path d="M289.772 366.887C283.396 366.887 278.227 360.467 278.227 352.548C278.227 344.63 283.396 338.21 289.772 338.21C296.148 338.21 301.317 344.63 301.317 352.548C301.317 360.467 296.148 366.887 289.772 366.887Z" fill="url(#paint8_linear_1125_1421)"/>
<path opacity="0.5" d="M288.735 362.844C282.664 362.844 277.743 357.214 277.743 350.268C277.743 343.322 282.664 337.692 288.735 337.692C294.806 337.692 299.728 343.322 299.728 350.268C299.728 357.214 294.806 362.844 288.735 362.844Z" fill="white"/>
<path opacity="0.5" d="M278.054 351.754C278.158 357.213 278.918 351.615 285.348 350.268C289.772 349.335 295.752 357.04 295.752 348.886C295.752 340.732 296.271 339.419 289.634 338.348C283.17 337.312 277.881 343.6 278.054 351.754Z" fill="white"/>
<path opacity="0.5" d="M281.131 350.268C282.686 351.408 280.336 345.846 285.175 342.287C286.592 341.25 286.247 340.94 290.74 341.596C293.367 341.976 293.229 340.076 289.289 339.454C283.723 338.59 277.259 347.435 281.131 350.268Z" fill="white"/>
<path d="M343.109 354.863L347.118 354.069C347.81 350.441 349.849 347.849 352.2 347.849H355.276V349.508C356.659 351.166 357.558 353.861 357.558 356.936C357.558 360.011 356.659 362.706 355.276 364.364V366.023H352.2C351.301 366.023 350.437 365.643 349.676 364.952L343.351 365.297C343.247 365.297 343.178 365.297 343.074 365.297C340.101 365.297 337.716 362.948 337.716 360.08C337.716 357.213 340.136 354.863 343.109 354.863Z" fill="url(#paint9_linear_1125_1421)"/>
<path d="M346.185 354.863L350.195 354.069C350.886 350.441 352.926 347.849 355.276 347.849C358.249 347.849 360.634 351.926 360.634 356.936C360.634 361.946 358.215 366.023 355.276 366.023C354.378 366.023 353.514 365.643 352.753 364.952L346.427 365.297C346.324 365.297 346.255 365.297 346.151 365.297C343.178 365.297 340.793 362.948 340.793 360.08C340.828 357.213 343.213 354.863 346.185 354.863Z" fill="url(#paint10_linear_1125_1421)"/>
<path d="M451.372 471.746H529.389C537.132 481.42 544.667 498.108 544.736 526.335H451.372C440.103 526.335 430.874 519.943 430.874 512.1V485.98C430.839 478.138 440.068 471.746 451.372 471.746Z" fill="#66493C"/>
<path d="M467.618 471.746H529.354C537.097 481.42 544.633 498.108 544.702 526.335H467.618C456.349 526.335 447.12 519.943 447.12 512.1V485.98C447.12 478.138 456.349 471.746 467.618 471.746Z" fill="#6E554C"/>
<path d="M239.996 354.103L235.986 354.898C235.986 354.898 235.952 351.995 235.952 350.303C235.952 348.61 238.648 348.16 239.063 349.37C239.478 350.579 240.169 353.308 240.169 353.308C240.169 353.308 240.065 353.827 239.996 354.103Z" fill="url(#paint11_linear_1125_1421)"/>
<path d="M209.612 307.011C201.938 307.011 195.717 297.978 195.717 286.834C195.717 275.691 201.938 266.657 209.612 266.657C217.287 266.657 223.508 275.691 223.508 286.834C223.508 297.978 217.287 307.011 209.612 307.011Z" fill="#BAA0A3"/>
<path d="M208.99 305.284C201.659 305.284 195.716 296.637 195.716 285.97C195.716 275.304 201.659 266.657 208.99 266.657C216.321 266.657 222.264 275.304 222.264 285.97C222.264 296.637 216.321 305.284 208.99 305.284Z" fill="url(#paint12_linear_1125_1421)"/>
<path d="M206.259 288.942C207.884 290.98 210.373 291.706 211.824 290.566C213.276 289.425 213.138 286.8 211.513 284.761C209.889 282.723 207.4 281.997 205.948 283.137C204.496 284.277 204.634 286.903 206.259 288.942Z" fill="url(#paint13_linear_1125_1421)"/>
<path d="M238.095 348.679C238.095 348.679 235.053 323.284 233.74 314.992C231.839 303.004 219.222 292.639 213.034 288.216C210.96 286.731 209.854 289.736 211.859 291.084C217.908 295.161 230.249 304.697 231.631 315.2C232.876 324.666 236.54 349.162 236.54 349.162L238.095 348.679Z" fill="url(#paint14_linear_1125_1421)"/>
<path d="M347.326 354.345C347.326 354.345 347.326 351.995 347.326 350.303C347.326 348.61 344.629 348.16 344.215 349.37C343.8 350.579 342.728 355.243 342.728 355.243C342.832 355.485 347.326 354.345 347.326 354.345Z" fill="url(#paint15_linear_1125_1421)"/>
<path d="M362.708 567.449C356.901 567.449 352.787 565.342 349.884 562.094C349.884 562.094 404.845 559.883 405.847 559.883C406.815 559.883 406.539 558.535 406.539 558.535C406.539 558.535 407.368 558.535 407.437 561.749C407.506 564.962 407.472 567.415 407.472 567.415C398.899 567.449 387.285 567.449 362.708 567.449Z" fill="#FDF4F5"/>
<path d="M375.325 531.172C384.381 530.55 390.776 537.633 392.366 540.604C393.956 543.575 393.956 543.99 396.272 542.746C398.588 541.468 402.598 538.738 401.63 536.216C401.63 536.216 405.847 535.905 406.366 545.165C406.884 554.424 406.538 558.57 406.538 558.57L406.573 558.915C406.573 559.295 406.504 559.917 405.847 559.917C404.879 559.917 349.884 562.129 349.884 562.129C347.395 559.33 345.839 555.737 344.872 551.902C344.906 551.867 366.268 531.794 375.325 531.172Z" fill="#27405C"/>
<path d="M364.437 545.51C364.437 545.51 361.291 544.888 358.871 544.888C356.452 544.888 351.889 545.683 351.889 545.683C351.785 545.164 351.889 544.612 352.338 544.059C352.822 543.506 353.652 542.884 355.691 542.539C357.731 542.228 359.424 541.986 361.533 541.986C363.849 541.986 367.513 542.711 367.513 542.711C368.273 542.746 370.071 543.782 368.723 544.819C367.686 545.614 366.338 545.925 364.437 545.51Z" fill="#FDF4F5"/>
<path d="M368.93 541.813C368.93 541.813 365.785 541.191 363.365 541.191C360.945 541.191 356.383 541.986 356.383 541.986C356.279 541.468 356.383 540.915 356.832 540.362C357.316 539.809 358.422 539.222 360.461 538.911C362.501 538.6 363.918 538.289 366.027 538.289C368.343 538.289 372.007 539.015 372.007 539.015C372.767 539.049 374.565 540.086 373.216 541.122C372.214 541.951 370.831 542.228 368.93 541.813Z" fill="#FDF4F5"/>
<path d="M373.527 538.289C373.527 538.289 370.382 537.667 367.962 537.667C365.542 537.667 360.98 538.462 360.98 538.462C360.876 537.944 361.533 537.183 362.017 536.631C362.501 536.078 363.745 535.525 365.75 535.18C367.789 534.869 368.515 534.8 370.624 534.8C372.94 534.8 376.604 535.525 376.604 535.525C377.364 535.56 379.162 536.596 377.814 537.633C376.777 538.427 375.429 538.704 373.527 538.289Z" fill="#FDF4F5"/>
<path d="M396.272 542.746C393.956 544.024 393.956 543.575 392.366 540.604C390.776 537.633 384.381 530.515 375.325 531.172L376.638 529.893C376.638 529.893 387.631 534.765 398.657 529.582L401.63 536.216C402.563 538.738 398.588 541.468 396.272 542.746Z" fill="#FDF4F5"/>
<path d="M404.464 509.509L403.427 529.652C403.427 529.652 393.645 535.594 371.972 529.652C371.972 529.652 367.201 512.308 366.648 509.405C372.317 506.918 391.778 511.133 404.464 509.509Z" fill="#504250"/>
<path d="M385.556 513.966C375.114 513.966 366.648 511.924 366.648 509.405C366.648 506.886 375.114 504.845 385.556 504.845C395.999 504.845 404.464 506.886 404.464 509.405C404.464 511.924 395.999 513.966 385.556 513.966Z" fill="#6E606E"/>
<path d="M364.609 377.839C378.09 369.098 384.589 368.234 398.692 370.791C412.795 373.313 460.151 390.346 460.151 390.346C460.151 390.346 463.919 426.693 443.629 430.286C420.607 427.625 412.795 417.468 399.556 416.431C392.193 416.224 393.438 421.821 393.438 427.66C393.438 433.292 401.423 504.845 401.907 509.198C401.907 509.267 401.941 509.336 401.941 509.405C401.941 511.582 394.613 513.344 385.591 513.344C376.569 513.344 369.241 511.582 369.241 509.405C369.241 509.405 358.111 438.958 355.172 421.925C352.234 404.891 351.128 386.614 364.609 377.839Z" fill="#3C2E3B"/>
<path d="M399.522 416.431C412.795 417.468 420.573 427.66 443.594 430.286L393.403 427.625C393.438 421.821 392.159 416.224 399.522 416.431Z" fill="#281A27"/>
<path d="M313.727 382.158C314.003 378.772 314.315 375.351 315.213 372.414C333.153 369.374 362.328 379.566 362.328 379.566C351.266 388.826 352.372 405.928 355.138 421.925C355.449 423.687 355.829 426.002 356.278 428.766L352.649 428.938C351.128 418.124 347.844 410.73 343.454 401.506C338.926 392.004 327.484 385.094 313.727 382.158Z" fill="#322431"/>
<path d="M311.273 275.433C316.873 252.146 345.217 245.996 345.217 245.996C357.8 244.58 369.172 245.029 380.994 236.909C386.801 238.395 389.394 241.47 389.394 241.47C443.249 250.557 452.512 286.869 454.621 292.12C456.73 297.372 444.424 302.036 444.424 302.036C457.352 335.93 462.398 392.661 462.398 392.661H460.359C460.359 392.661 460.324 392.661 460.255 392.661C460.186 391.21 460.082 390.346 460.082 390.346C460.082 390.346 412.726 373.313 398.623 370.791C384.52 368.268 377.987 369.098 364.54 377.839C363.711 378.357 362.985 378.944 362.259 379.532C357.731 356.314 340.758 316.651 340.758 316.651C321.194 318.067 309.683 307.011 309.683 307.011C309.683 307.011 308.335 291.706 311.273 275.433Z" fill="#452E35"/>
<path d="M310.478 303.902C318.394 310.19 335.124 314.992 335.401 308.324C335.677 301.656 338.201 293.951 338.201 293.951C346.911 347.228 370.451 336.586 379.611 338.245C388.737 339.903 420.158 337.692 425.62 335.584C431.081 333.442 425.62 307.046 425.62 307.046L446.048 306.493C457.801 340.663 462.433 392.695 462.433 392.695H460.394C460.394 392.695 460.359 392.695 460.29 392.695C460.221 391.244 460.117 390.38 460.117 390.38C460.117 390.38 412.761 373.347 398.658 370.825C384.554 368.303 378.021 369.132 364.575 377.873C363.745 378.392 363.019 378.979 362.293 379.566C357.765 356.349 340.793 316.685 340.793 316.685C321.228 318.102 309.718 307.046 309.718 307.046C309.718 307.046 309.579 305.457 309.476 302.727C309.89 303.28 310.201 303.66 310.478 303.902Z" fill="#4C393F"/>
<path d="M452.789 297.199C452.789 297.199 471.731 346.295 452.789 356.452C433.846 366.61 414.109 365.228 385.937 365.124C385.937 365.124 383.413 369.581 380.89 367.957C380.89 367.957 379.334 370.411 375.981 369.547C372.628 368.683 371.142 367.888 369.206 369.547C367.271 371.205 364.402 368.476 362.328 367.957C360.254 367.439 358.283 370.307 355.898 366.921C353.513 363.535 349.676 358.871 350.61 354.69C351.543 350.51 354.723 343.323 356.728 341.803C358.698 340.248 360.876 342.01 361.878 341.941C362.846 341.872 363.503 340.456 365.681 340.905C367.858 341.319 367.997 342.874 369.241 342.874C370.485 342.874 370.105 340.421 373.285 341.112C376.431 341.803 375.256 343.289 377.779 343.427C380.302 343.565 382.757 342.529 384.589 345.811C384.589 345.811 414.212 345.776 433.258 337.173C433.258 337.173 433.881 324.321 425.688 307.08C425.619 307.046 440.379 306.044 452.789 297.199Z" fill="#F9A186"/>
<path d="M393.161 365.159C390.811 365.124 388.425 365.124 385.937 365.124C390.016 357.351 384.519 345.776 384.519 345.776C384.519 345.776 385.937 345.776 388.391 345.673C388.08 352.997 396.998 351.961 393.161 365.159Z" fill="#EE8C74"/>
<path d="M381.339 357.765C381.962 354.863 384.001 352.825 386.006 352.928H388.84L388.633 354.725C389.324 355.969 389.566 357.662 389.151 359.458C388.875 360.702 388.356 361.773 387.7 362.602L387.492 364.33H384.9C384.692 364.364 384.519 364.33 384.312 364.33H384.277C384.174 364.33 384.105 364.295 384.001 364.295C381.858 363.777 380.648 360.875 381.339 357.765Z" fill="#CEB4B7"/>
<path d="M384.174 357.765C383.482 360.875 384.692 363.777 386.835 364.261C388.979 364.744 391.295 362.602 391.986 359.493C392.677 356.383 391.467 353.481 389.324 352.997C387.147 352.514 384.865 354.656 384.174 357.765Z" fill="url(#paint16_linear_1125_1421)"/>
<path opacity="0.5" d="M355.968 355.278C356.59 353.205 359.424 353.032 358.284 356.971C357.143 360.909 363.434 368.407 363.434 368.407C363.054 368.234 362.674 368.061 362.293 367.992C361.844 367.888 361.429 367.923 360.98 368.027C358.042 364.157 355.415 357.109 355.968 355.278Z" fill="#EE8C74"/>
<path opacity="0.5" d="M370.313 368.821C367.063 365.332 363.952 357.212 364.54 355.243C365.162 353.17 367.997 352.997 366.856 356.936C365.715 360.875 372.283 367.923 372.283 367.923C372.283 367.923 372.421 368.234 372.525 368.649C371.695 368.51 371.004 368.545 370.313 368.821Z" fill="#EE8C74"/>
<path opacity="0.5" d="M373.113 355.278C373.735 353.205 376.569 353.032 375.428 356.971C374.288 360.909 380.855 367.958 380.855 367.958C380.855 367.958 380.337 368.752 379.3 369.305C375.912 366.092 372.49 357.316 373.113 355.278Z" fill="#EE8C74"/>
<path d="M350.852 362.74L373.32 364.537C373.839 364.572 374.288 364.191 374.322 363.673L374.634 359.873C374.668 359.354 374.288 358.905 373.769 358.871L351.301 357.074C350.783 357.04 350.333 357.42 350.299 357.938L349.988 361.738C349.953 362.257 350.333 362.706 350.852 362.74Z" fill="#FDF4F5"/>
<path d="M349.469 362.637L371.937 364.433C372.456 364.468 372.905 364.088 372.94 363.57L373.251 359.769C373.285 359.251 372.905 358.802 372.387 358.767L349.918 356.971C349.4 356.936 348.95 357.316 348.916 357.834L348.605 361.635C348.57 362.119 348.95 362.568 349.469 362.637Z" fill="url(#paint17_linear_1125_1421)"/>
<path d="M311.273 308.324C314.764 311.019 324.132 316.962 337.993 316.789C337.993 316.789 339.86 333.062 332.428 347.884C326.275 346.951 320.157 345.051 316.907 341.25C313.727 337.795 310.409 335.481 307.332 333.926C307.367 333.926 312.967 326.394 311.273 308.324Z" fill="#F9A186"/>
<path d="M373.735 305.526C363.426 305.526 355.069 297.157 355.069 286.834C355.069 276.511 363.426 268.143 373.735 268.143C384.044 268.143 392.401 276.511 392.401 286.834C392.401 297.157 384.044 305.526 373.735 305.526Z" fill="#BAA0A3"/>
<path d="M374.53 303.902C364.679 303.902 356.693 295.905 356.693 286.039C356.693 276.174 364.679 268.177 374.53 268.177C384.381 268.177 392.366 276.174 392.366 286.039C392.366 295.905 384.381 303.902 374.53 303.902Z" fill="url(#paint18_linear_1125_1421)"/>
<path d="M377.053 288.942C375.429 290.98 372.94 291.706 371.488 290.566C370.036 289.425 370.175 286.8 371.799 284.761C373.424 282.723 375.913 281.997 377.364 283.137C378.816 284.277 378.678 286.903 377.053 288.942Z" fill="url(#paint19_linear_1125_1421)"/>
<path d="M345.252 348.679C345.252 348.679 348.294 323.284 349.607 314.992C351.509 303.004 364.125 292.639 370.313 288.216C372.387 286.731 373.493 289.736 371.488 291.084C365.439 295.161 353.099 304.697 351.716 315.2C350.472 324.666 346.808 349.162 346.808 349.162L345.252 348.679Z" fill="url(#paint20_linear_1125_1421)"/>
<path d="M380.164 233.454L383.31 246.272C383.31 246.272 385.349 258.054 373.7 259.954C362.051 261.854 355.518 260.369 353.617 254.91C351.716 249.451 350.575 244.614 350.575 244.614L380.164 233.454Z" fill="#EE8C74"/>
<path d="M321.504 202.67C322.369 202.463 323.233 202.567 324.097 202.912C324.097 202.878 324.097 202.809 324.097 202.774C324.719 196.382 334.674 171.506 334.674 171.506H386.248L391.087 195.035C391.087 195.035 388.633 198.801 388.529 204.121C388.426 209.442 388.564 212.483 391.053 217.734C393.541 222.951 397.551 228.859 394.924 233.869C393.438 243.163 372.248 252.768 353.375 246.48C339.03 241.677 331.045 228.79 327.173 218.045C326.689 218.46 326.136 218.771 325.514 218.909C322.472 219.669 319.119 216.629 318.013 212.137C316.907 207.646 318.463 203.396 321.504 202.67Z" fill="#F9A186"/>
<path d="M335.815 175.445C351.405 171.713 364.506 181.111 373.77 180.766C382.515 180.455 381.824 181.871 383.932 182.7C387.735 184.773 389.567 188.712 390.396 191.545L391.122 195C391.122 195 388.357 180.662 345.736 179.936C334.191 179.867 332.324 198.421 330.216 201.288C329.974 192.582 335.815 175.445 335.815 175.445Z" fill="#EE8C74"/>
<path d="M330.216 201.323C330.181 201.392 330.112 201.426 330.009 201.461C330.078 201.392 330.147 201.357 330.216 201.323Z" fill="#EE8C74"/>
<path d="M344.941 224.54C339.405 224.54 334.917 220.055 334.917 214.521C334.917 208.987 339.405 204.501 344.941 204.501C350.477 204.501 354.965 208.987 354.965 214.521C354.965 220.055 350.477 224.54 344.941 224.54Z" fill="url(#paint21_radial_1125_1421)"/>
<path d="M377.848 222.986C372.904 222.986 368.895 218.979 368.895 214.037C368.895 209.095 372.904 205.089 377.848 205.089C382.792 205.089 386.801 209.095 386.801 214.037C386.801 218.979 382.792 222.986 377.848 222.986Z" fill="url(#paint22_radial_1125_1421)"/>
<path d="M332.877 162.869C341.311 152.02 352.614 145.697 379.68 161.694C380.994 161.694 396.825 168.569 391.087 195.035C391.087 195.035 390.361 186.259 383.897 182.735C381.789 181.906 382.48 180.489 373.735 180.8C364.471 181.146 351.37 171.748 335.781 175.479C335.781 175.479 329.939 192.616 330.181 201.357C326.413 204.087 324.132 202.463 324.132 202.463C324.132 202.463 313.658 174.996 332.877 162.869Z" fill="#553326"/>
<path d="M377.053 224.61C377.053 224.61 368.964 228.548 353.375 224.61C353.375 224.61 355.864 237.566 367.997 236.806C380.095 236.046 377.053 224.61 377.053 224.61Z" fill="#7B2E28"/>
<path d="M375.187 224.955C375.187 224.955 367.409 227.719 357.039 224.955C357.039 224.955 356.141 227.581 358.699 228.306C363.572 229.654 369.138 229.308 373.493 227.892C375.152 227.374 375.291 225.128 375.187 224.955Z" fill="white"/>
<path d="M351.992 194.378L351.232 198.524C351.232 198.524 343.592 196.348 338.131 197.971L337.578 195.691C337.612 195.691 342.728 190.889 351.992 194.378Z" fill="#462921"/>
<path d="M370.728 192.063L371.488 197.488C371.488 197.488 376.915 196.002 382.584 199.077L383.759 197.488C383.759 197.453 380.994 190.647 370.728 192.063Z" fill="#462921"/>
<path d="M323.751 210.03C321.262 209.995 323.44 205.745 321.228 206.644C319.05 207.507 318.704 208.578 318.704 208.578C318.704 208.578 318.877 204.64 321.262 204.64C324.788 204.605 324.754 210.03 323.751 210.03Z" fill="#EE8C74"/>
<path d="M325.48 218.943C322.438 219.704 319.085 216.663 317.979 212.172C317.806 211.446 317.702 210.721 317.667 210.03C321.781 218.943 326.171 215.316 326.171 215.316C326.655 216.87 327.139 218.011 327.139 218.08C326.689 218.46 326.136 218.771 325.48 218.943Z" fill="#EE8C74"/>
<path d="M324.685 199.837L330.215 201.323C328.452 216.318 340.827 225.784 348.259 223.469C366.407 212.655 382.065 222.675 385.556 223.539C389.048 224.402 388.771 210.928 388.771 210.928C389.324 213.174 390.05 215.661 391.053 217.734C393.541 222.951 397.551 228.859 394.924 233.869C393.438 243.163 372.248 252.768 353.375 246.48C339.03 241.677 331.045 228.79 327.173 218.045C324.892 212.552 324.304 206.022 324.166 202.394C324.235 201.703 324.443 200.839 324.685 199.837ZM366.13 238.775C379.023 238.775 380.544 232.452 379.265 224.61C379.265 224.61 364.678 229.067 350.955 224.61C350.921 224.61 353.237 238.775 366.13 238.775Z" fill="#553326"/>
<path d="M367.236 243.819C389.013 246.134 395.27 230.794 395.754 229.55C395.857 231.036 395.65 232.487 394.924 233.869C393.438 243.163 372.248 252.768 353.375 246.48C339.03 241.677 331.045 228.79 327.174 218.045C324.892 212.552 324.304 206.022 324.166 202.394C335.158 231.485 344.561 241.401 367.236 243.819Z" fill="#462921"/>
<path d="M360.841 202.256C360.841 202.256 362.881 201.219 364.229 205.123C365.577 209.028 366.51 211.999 369.137 213.035C371.73 214.072 371.799 220.809 364.506 219.531C357.212 218.218 355.726 214.245 357.454 209.062C359.148 203.845 359.009 203.396 360.841 202.256Z" fill="#FE8473"/>
<path d="M369.932 216.352C369.621 216.836 368.688 216.801 367.893 216.248C367.098 215.696 366.718 214.866 367.029 214.383C367.34 213.899 368.273 213.934 369.068 214.486C369.863 215.039 370.278 215.868 369.932 216.352Z" fill="#FEB696"/>
<path d="M332.877 162.869C332.877 162.869 340.101 167.291 335.815 175.41C335.815 175.41 329.973 192.547 330.215 201.288C326.448 204.018 324.166 202.394 324.166 202.394C324.166 202.394 313.658 174.996 332.877 162.869Z" fill="#462921"/>
<path d="M334.951 178.14C334.951 178.14 328.418 180.455 323.129 176.309C322.922 176.481 326.344 181.077 334.26 180.386C334.294 180.317 334.951 178.14 334.951 178.14Z" fill="#663E28"/>
<path d="M380.648 162.178C383.69 164.424 396.099 171.955 391.122 195C391.122 195 390.396 186.225 383.932 182.7C381.823 181.871 382.514 180.455 373.769 180.766C396.237 175.099 379.68 161.694 379.68 161.694L380.648 162.178Z" fill="#462921"/>
<path d="M370.727 205.123C370.727 208.267 373.043 209.097 376.189 209.097C379.334 209.097 382.134 208.267 382.134 205.123C382.134 201.979 379.576 199.423 376.431 199.423C373.285 199.423 370.727 201.979 370.727 205.123Z" fill="white"/>
<path d="M376.431 199.423C379.576 199.423 382.134 201.979 382.134 205.123C381.547 205.123 380.441 201.219 376.431 201.046C372.421 200.874 371.591 205.054 370.727 205.123C370.727 201.979 373.285 199.423 376.431 199.423Z" fill="#3D1108"/>
<path d="M375.428 201.599C376.88 201.599 378.09 202.705 378.332 204.674C378.194 204.605 378.021 204.571 377.848 204.571C377.122 204.571 376.569 205.158 376.569 205.849C376.569 206.574 377.157 207.127 377.848 207.127C377.952 207.127 378.021 207.127 378.09 207.093C377.606 208.337 376.604 208.889 375.428 208.889C373.804 208.889 372.49 207.818 372.49 205.4C372.456 202.981 373.804 201.599 375.428 201.599Z" fill="#371A15"/>
<path d="M337.37 157.997C338.131 157.306 338.926 156.65 339.756 156.028C369.137 170.159 378.92 161.314 378.989 161.279C368.722 178.105 346.703 163.145 337.37 157.997Z" fill="#673F2A"/>
<path d="M375.428 201.599C376.88 201.599 378.09 202.705 378.332 204.674C378.194 204.605 378.021 204.571 377.848 204.571C377.641 204.571 377.433 204.64 377.26 204.709C376.742 204.398 376.12 204.26 375.428 204.26C373.977 204.26 372.767 204.951 372.525 206.16C372.49 205.918 372.456 205.676 372.456 205.4C372.456 202.981 373.804 201.599 375.428 201.599Z" fill="#26120B"/>
<path d="M350.506 205.4C350.506 208.544 348.19 209.373 345.044 209.373C341.899 209.373 339.099 208.544 339.099 205.4C339.099 202.256 341.657 199.699 344.802 199.699C347.948 199.699 350.506 202.256 350.506 205.4Z" fill="white"/>
<path d="M344.802 199.699C341.657 199.699 339.099 202.256 339.099 205.4C339.686 205.4 340.793 201.496 344.802 201.323C348.812 201.15 349.642 205.331 350.506 205.4C350.506 202.256 347.948 199.699 344.802 199.699Z" fill="#3D1108"/>
<path d="M344.975 201.876C346.427 201.876 347.637 202.981 347.879 204.951C347.741 204.882 347.568 204.847 347.395 204.847C346.669 204.847 346.116 205.434 346.116 206.125C346.116 206.851 346.704 207.404 347.395 207.404C347.499 207.404 347.568 207.404 347.637 207.369C347.153 208.613 346.151 209.166 344.975 209.166C343.351 209.166 342.037 208.095 342.037 205.676C342.037 203.223 343.351 201.876 344.975 201.876Z" fill="#371A15"/>
<path d="M344.975 201.876C346.427 201.876 347.637 202.981 347.879 204.951C347.741 204.882 347.568 204.847 347.395 204.847C347.188 204.847 346.98 204.916 346.807 204.985C346.289 204.674 345.667 204.536 344.975 204.536C343.523 204.536 342.314 205.227 342.072 206.436C342.037 206.194 342.003 205.953 342.003 205.676C342.037 203.223 343.351 201.876 344.975 201.876Z" fill="#26120B"/>
<path d="M327.865 195.657C327.865 195.657 324.132 196.624 324.132 199.699C324.132 202.774 324.132 202.774 324.132 202.774L328.625 201.219L327.865 195.657Z" fill="#646567"/>
<path d="M356.832 195.657C358.802 196.037 360.288 196.313 361.498 196.451C362.708 196.313 364.229 196.071 366.165 195.657C376.396 193.618 395.131 195.657 395.131 195.657C395.131 195.657 394.993 201.081 394.405 201.219C393.818 201.357 392.504 201.496 391.64 205.607C389.462 209.684 390.188 214.245 378.194 214.625C366.199 215.005 365.611 209.546 363.849 203.845C362.95 202.636 362.189 202.152 361.498 202.083C360.841 202.152 360.046 202.636 359.147 203.845C357.385 209.546 356.797 215.005 344.802 214.625C332.808 214.245 333.534 209.684 331.356 205.607C330.492 201.53 329.178 201.357 328.591 201.219C328.003 201.081 327.865 195.657 327.865 195.657C327.865 195.657 346.6 193.618 356.832 195.657ZM367.063 208.82C369.69 214.072 377.744 212.897 383.586 212.344C389.428 211.757 389.739 203.707 389.428 199.63C389.151 195.553 378.885 196.693 372.456 196.555C366.026 196.417 365.3 201.392 365.3 201.392C365.3 201.392 364.436 203.569 367.063 208.82ZM338.926 212.344C344.768 212.932 352.822 214.106 355.449 208.82C358.076 203.569 357.212 201.392 357.212 201.392C357.212 201.392 356.486 196.417 350.056 196.555C343.627 196.693 333.395 195.519 333.084 199.63C332.773 203.707 333.084 211.757 338.926 212.344Z" fill="#252F3E"/>
<path opacity="0.5" d="M376.984 196.52L381.616 212.552C382.307 212.482 382.999 212.413 383.655 212.344C389.497 211.757 389.808 203.707 389.497 199.63C389.324 197.28 385.868 196.659 381.72 196.555H376.984V196.52ZM375.359 196.555L380.164 212.69L378.712 212.793L373.942 196.555H375.359ZM343.558 196.486L348.363 212.724L346.911 212.828L342.141 196.486H343.558ZM350.126 196.52C356.555 196.382 357.281 201.357 357.281 201.357C357.281 201.357 358.145 203.534 355.518 208.786C354.377 211.031 352.269 212.102 349.745 212.552L345.217 196.486C346.945 196.52 348.639 196.555 350.126 196.52Z" fill="white"/>
<path d="M372.802 234.94C372.802 234.94 365.024 239.501 358.007 232.383C358.007 232.383 370.728 230.034 372.802 234.94Z" fill="#C8322C"/>
<path d="M322.369 196.348C322.369 196.348 321.194 197.281 320.433 194.309C319.673 191.338 311.895 151.675 346.427 145.214C380.925 138.753 388.564 168.224 388.564 168.224C388.564 168.224 403.808 180.627 399.798 189.541C397.586 194.447 391.917 193.031 391.917 193.031C391.917 193.031 382.515 171.057 359.805 182.424C359.805 182.424 352.338 193.411 348.467 194.966C344.595 196.52 329.662 195.173 327.07 195.173C324.512 195.173 323.786 195.553 322.369 196.348Z" fill="#452E35"/>
<path d="M399.798 189.541C397.586 194.447 391.917 193.031 391.917 193.031C391.917 193.031 382.515 171.057 359.804 182.424C359.804 182.424 352.338 193.411 348.467 194.966C344.595 196.52 329.662 195.173 327.07 195.173C325.86 195.173 325.065 195.242 324.408 195.415C351.785 151.398 388.529 168.224 388.529 168.224C388.529 168.224 403.808 180.627 399.798 189.541Z" fill="#452E35"/>
<path d="M399.798 189.541L398.208 191.718C395.615 193.929 391.917 193.031 391.917 193.031C391.917 193.031 382.515 171.057 359.804 182.424C384.519 158.896 399.798 189.541 399.798 189.541Z" fill="#4F3D43"/>
<path d="M561.294 486.326C563.644 486.326 565.614 487.95 566.133 490.126H619.884V360.806L673.946 333.338L671.319 147.149C669.176 146.596 667.586 144.626 667.586 142.312C667.586 139.548 669.833 137.302 672.598 137.302C675.364 137.302 677.61 139.548 677.61 142.312C677.61 144.626 676.02 146.596 673.877 147.149L676.504 335.308L621.993 362.844V492.234H566.202C565.753 494.549 563.748 496.311 561.294 496.311C558.528 496.311 556.316 494.065 556.316 491.336C556.316 488.606 558.528 486.326 561.294 486.326Z" fill="#FF5C4B"/>
<path d="M680.376 128.63C679.615 127.075 679.2 125.347 679.2 123.516C679.2 117.021 684.489 111.735 690.988 111.735C697.486 111.735 702.775 117.021 702.775 123.516C702.775 125.347 702.36 127.109 701.6 128.63L690.988 149.118L680.376 128.63ZM690.953 116.572C687.116 116.572 684.04 119.681 684.04 123.482C684.04 127.317 687.151 130.392 690.953 130.392C694.79 130.392 697.866 127.282 697.866 123.482C697.901 119.681 694.79 116.572 690.953 116.572Z" fill="#FF5C4B"/>
<defs>
<linearGradient id="paint0_linear_1125_1421" x1="878.801" y1="542.107" x2="649.446" y2="542.107" gradientUnits="userSpaceOnUse">
<stop stop-color="#E44B45"/>
<stop offset="0.5285" stop-color="#F55C4F"/>
<stop offset="1" stop-color="#FF6655"/>
</linearGradient>
<linearGradient id="paint1_linear_1125_1421" x1="756.086" y1="460.629" x2="756.086" y2="340.305" gradientUnits="userSpaceOnUse">
<stop stop-color="#E44B45"/>
<stop offset="0.5285" stop-color="#F55C4F"/>
<stop offset="1" stop-color="#FF6655"/>
</linearGradient>
<linearGradient id="paint2_linear_1125_1421" x1="231.15" y1="360.347" x2="210.21" y2="360.347" gradientUnits="userSpaceOnUse">
<stop stop-color="#DBC6C9"/>
<stop offset="1" stop-color="#F3EAEB"/>
</linearGradient>
<linearGradient id="paint3_linear_1125_1421" x1="250.472" y1="356.942" x2="230.621" y2="356.942" gradientUnits="userSpaceOnUse">
<stop stop-color="#DBC6C9"/>
<stop offset="1" stop-color="#F3EAEB"/>
</linearGradient>
<linearGradient id="paint4_linear_1125_1421" x1="253.558" y1="356.942" x2="233.707" y2="356.942" gradientUnits="userSpaceOnUse">
<stop stop-color="#CEB4B7"/>
<stop offset="1" stop-color="#DFCDCF"/>
</linearGradient>
<linearGradient id="paint5_linear_1125_1421" x1="289.787" y1="374.365" x2="289.787" y2="330.715" gradientUnits="userSpaceOnUse">
<stop stop-color="#CEB4B7"/>
<stop offset="1" stop-color="#F3EAEB"/>
</linearGradient>
<linearGradient id="paint6_linear_1125_1421" x1="302.979" y1="352.54" x2="276.596" y2="352.54" gradientUnits="userSpaceOnUse">
<stop stop-color="#F3EAEB"/>
<stop offset="1" stop-color="#C4A5AB"/>
</linearGradient>
<linearGradient id="paint7_linear_1125_1421" x1="289.787" y1="367.943" x2="289.787" y2="337.136" gradientUnits="userSpaceOnUse">
<stop stop-color="#CEB4B7"/>
<stop offset="1" stop-color="#F3EAEB"/>
</linearGradient>
<linearGradient id="paint8_linear_1125_1421" x1="301.342" y1="352.54" x2="278.233" y2="352.54" gradientUnits="userSpaceOnUse">
<stop stop-color="#C4A5AB"/>
<stop offset="1" stop-color="#F3EAEB"/>
</linearGradient>
<linearGradient id="paint9_linear_1125_1421" x1="357.581" y1="356.942" x2="337.731" y2="356.942" gradientUnits="userSpaceOnUse">
<stop stop-color="#DBC6C9"/>
<stop offset="1" stop-color="#F3EAEB"/>
</linearGradient>
<linearGradient id="paint10_linear_1125_1421" x1="360.668" y1="356.942" x2="340.817" y2="356.942" gradientUnits="userSpaceOnUse">
<stop stop-color="#CEB4B7"/>
<stop offset="1" stop-color="#DFCDCF"/>
</linearGradient>
<linearGradient id="paint11_linear_1125_1421" x1="238.082" y1="354.874" x2="238.082" y2="348.66" gradientUnits="userSpaceOnUse">
<stop stop-color="#CEB4B7"/>
<stop offset="1" stop-color="#F3EAEB"/>
</linearGradient>
<linearGradient id="paint12_linear_1125_1421" x1="208.982" y1="305.257" x2="208.982" y2="266.658" gradientUnits="userSpaceOnUse">
<stop stop-color="#CEB4B7"/>
<stop offset="1" stop-color="#F3EAEB"/>
</linearGradient>
<linearGradient id="paint13_linear_1125_1421" x1="211.825" y1="290.56" x2="205.949" y2="283.137" gradientUnits="userSpaceOnUse">
<stop stop-color="#C4A5AB"/>
<stop offset="1" stop-color="#F3EAEB"/>
</linearGradient>
<linearGradient id="paint14_linear_1125_1421" x1="238.08" y1="318.479" x2="210.79" y2="318.479" gradientUnits="userSpaceOnUse">
<stop stop-color="#CEB4B7"/>
<stop offset="1" stop-color="#F3EAEB"/>
</linearGradient>
<linearGradient id="paint15_linear_1125_1421" x1="345.055" y1="355.262" x2="345.055" y2="348.66" gradientUnits="userSpaceOnUse">
<stop stop-color="#CEB4B7"/>
<stop offset="1" stop-color="#F3EAEB"/>
</linearGradient>
<linearGradient id="paint16_linear_1125_1421" x1="392.172" y1="358.615" x2="383.98" y2="358.615" gradientUnits="userSpaceOnUse">
<stop stop-color="#F3EAEB"/>
<stop offset="1" stop-color="#DBC6C9"/>
</linearGradient>
<linearGradient id="paint17_linear_1125_1421" x1="373.088" y1="361.643" x2="348.755" y2="359.713" gradientUnits="userSpaceOnUse">
<stop stop-color="#F3EAEB"/>
<stop offset="1" stop-color="#DBC6C9"/>
</linearGradient>
<linearGradient id="paint18_linear_1125_1421" x1="374.544" y1="303.899" x2="374.544" y2="268.148" gradientUnits="userSpaceOnUse">
<stop stop-color="#CEB4B7"/>
<stop offset="1" stop-color="#F3EAEB"/>
</linearGradient>
<linearGradient id="paint19_linear_1125_1421" x1="371.49" y1="290.56" x2="377.366" y2="283.137" gradientUnits="userSpaceOnUse">
<stop stop-color="#C4A5AB"/>
<stop offset="1" stop-color="#F3EAEB"/>
</linearGradient>
<linearGradient id="paint20_linear_1125_1421" x1="345.236" y1="318.479" x2="372.526" y2="318.479" gradientUnits="userSpaceOnUse">
<stop stop-color="#CEB4B7"/>
<stop offset="1" stop-color="#F3EAEB"/>
</linearGradient>
<radialGradient id="paint21_radial_1125_1421" cx="0" cy="0" r="1" gradientUnits="userSpaceOnUse" gradientTransform="translate(344.955 214.527) rotate(180) scale(10.0104 10.0056)">
<stop stop-color="#FE7B67"/>
<stop offset="1" stop-color="#F9A186"/>
</radialGradient>
<radialGradient id="paint22_radial_1125_1421" cx="0" cy="0" r="1" gradientUnits="userSpaceOnUse" gradientTransform="translate(377.839 214.052) rotate(180) scale(8.95364 8.94932)">
<stop stop-color="#FE7B67"/>
<stop offset="1" stop-color="#F9A186"/>
</radialGradient>
</defs>
</svg>
