<svg width="388" height="388" viewBox="0 0 388 388" fill="none" xmlns="http://www.w3.org/2000/svg">
<path d="M128.051 196.763C128.051 196.763 125.306 198.347 124.325 200.219C123.345 202.094 122.68 207.605 123.513 208.615C123.391 210.533 123.776 212.053 124.408 211.963C124.311 213.598 124.907 215.013 126.046 215.297C127.189 215.581 127.261 211.561 127.261 211.561C127.261 211.561 129.732 205.184 130.361 205.187C130.156 207.867 129.987 210.526 131.478 211.158C132.976 211.791 133.346 209.362 133.961 206.553C134.571 203.747 134.949 197.991 134.949 197.991L128.051 196.763Z" fill="#FBC6A4"/>
<path d="M124.397 212.067C124.44 212.074 124.48 212.035 124.487 211.985C124.943 207.681 127.192 204.573 127.217 204.541C127.246 204.501 127.246 204.44 127.214 204.401C127.181 204.365 127.131 204.368 127.102 204.408C127.077 204.44 124.796 207.594 124.332 211.956C124.322 212.01 124.35 212.06 124.397 212.067Z" fill="#DE9173"/>
<path d="M123.503 208.715C123.546 208.723 123.585 208.687 123.593 208.633C124.308 203.334 126.064 201.861 126.079 201.85C126.118 201.818 126.129 201.756 126.104 201.71C126.082 201.667 126.032 201.652 125.996 201.685C125.921 201.742 124.16 203.219 123.435 208.6C123.427 208.654 123.46 208.705 123.499 208.715C123.503 208.715 123.503 208.715 123.503 208.715Z" fill="#DE9173"/>
<path d="M159.652 117.751C152.064 126.934 143.761 167.67 126.628 197.417C129.776 199.885 132.024 201.929 136.461 201.728C162.946 164.167 172.869 129.032 172.869 129.032L159.652 117.751Z" fill="#A02225"/>
<path d="M181.688 342.392L181.925 352.006L177.021 352.013L176.914 342.044L181.688 342.392Z" fill="#FBC6A4"/>
<path d="M183.129 357.082C183.876 357.517 183.987 359.992 182.996 360.837C181.627 362.001 171.126 368.058 162.529 368.733C154.553 369.362 152.814 366.362 152.57 364.9C152.229 362.841 153.889 361.005 153.889 361.005L183.129 357.082Z" fill="#CFD1D2"/>
<path d="M181.868 350.008C182.852 350.188 184.286 353.544 183.413 357.215C178.846 361.487 167.318 364.842 161.947 365.636C156.576 366.427 152.516 364.196 153.465 360.775C154.208 358.092 163.969 355.908 167.397 353.421C170.824 350.935 171.956 348.941 173.698 348.607C175.441 348.273 178.889 348.873 178.333 351.341C180.003 350.943 181.868 350.008 181.868 350.008Z" fill="#353535"/>
<path d="M175.983 351.866C174.474 350.598 172.516 350.185 170.63 350.397C168.744 350.612 167.914 352.283 168.856 352.498C170.074 352.778 171.061 352.484 174.165 354.388C175.825 355.408 177.604 353.228 175.983 351.866Z" fill="#FFCE01"/>
<path d="M172.265 354.955C170.828 353.605 168.899 353.084 167.002 353.191C165.108 353.299 164.185 354.927 165.112 355.193C166.312 355.537 167.318 355.304 170.311 357.373C171.909 358.48 173.806 356.403 172.265 354.955Z" fill="#FFCE01"/>
<path d="M208.798 347.522L208.934 355.505L204.192 355.121L203.535 347.152L208.798 347.522Z" fill="#FBC6A4"/>
<path d="M214.266 365.119C214.704 365.737 215.459 368.079 214.302 369.901C213.149 371.722 209.822 372.821 207.088 372.85C204.516 372.875 201.437 371.808 200.388 370.105C199.339 368.403 200.657 365.108 200.657 365.108L214.266 365.119Z" fill="#CFD1D2"/>
<path d="M211.942 354.154C210.871 351.719 204.185 351.287 201.225 354.162C200.435 355.864 199.037 365.288 201.214 367.824C203.499 370.486 212.233 370.752 214.079 365.758C215.362 362.27 213.127 356.856 211.942 354.154Z" fill="#353535"/>
<path d="M210.368 354.305C211.345 354.769 212.232 356.877 210.436 356.561C208.78 356.27 205.676 355.548 203.395 356.457C201.11 357.366 201.774 355.024 203.014 354.312C204.562 353.429 207.864 353.12 210.368 354.305Z" fill="#FFCE01"/>
<path d="M210.429 358.034C211.406 358.498 212.294 360.607 210.497 360.294C208.841 360.007 205.737 359.281 203.452 360.19C201.167 361.099 201.832 358.756 203.071 358.045C204.623 357.158 207.921 356.849 210.429 358.034Z" fill="#FFCE01"/>
<path d="M220.478 210.781C220.478 210.781 215.214 330.946 213.565 346.128C210.318 350.008 200.309 348.381 199.202 346.523C194.359 282.985 190.016 237.575 189.56 236.328C189.103 235.081 185.687 336.558 184.444 344.163C180.937 346.369 170.253 346.455 168.701 343.768C163.373 264.059 160.007 220.032 159.5 210.167C171.769 205.809 220.478 210.781 220.478 210.781Z" fill="#B46A4B"/>
<path d="M166.916 215.685C166.916 215.685 167.907 220.7 163.991 223.341C164.271 225.643 164.742 227.31 164.742 227.31C164.742 227.31 171.97 223.1 171.14 216.4C168.805 215.627 166.916 215.685 166.916 215.685Z" fill="#903530"/>
<path d="M210.645 217.179C210.645 217.179 209.955 222.245 214.022 224.645C213.881 226.958 213.511 228.654 213.511 228.654C213.511 228.654 206.042 224.886 206.474 218.146C208.755 217.237 210.645 217.179 210.645 217.179Z" fill="#903530"/>
<path d="M194.119 96.9605C194.119 96.9605 194.87 103.312 194.945 105.834C201.103 105.651 206.704 107.796 206.704 107.796C206.704 107.796 199.177 116.149 187.358 114.539C175.538 112.93 175.161 109.578 175.161 109.578C175.161 109.578 182.428 106.556 187.936 105.691C187.742 99.2526 187.25 96.8132 187.25 96.8132L194.119 96.9605Z" fill="#FBC6A4"/>
<path d="M188.496 105.766C188.302 100.65 187.929 98.6814 187.929 98.6814L193.806 98.8287C193.806 98.8287 194.277 103.028 194.46 105.716C193.648 104.814 189.718 104.06 188.496 105.766Z" fill="#EAAD85"/>
<path d="M200.416 106.161C198.699 109.714 183.089 112.423 182.223 106.847C177.769 107.821 160.883 114.773 158.246 120.316C155.609 125.859 160.98 146.319 161.11 164.67C161.239 183.021 157.977 209.577 159.155 211.507C160.334 213.432 209.84 216.594 221.627 212.459C224.282 212.24 226.423 139.209 225.697 117.456C225.895 114.787 209.958 106.578 200.416 106.161Z" fill="#EF4E23"/>
<path d="M158.929 207.26C158.854 209.574 158.904 211.097 159.155 211.507C160.334 213.432 209.84 216.594 221.627 212.459C222.04 212.423 222.443 210.616 222.823 207.508C206.111 209.736 167.932 208.712 158.929 207.26Z" fill="#A02225"/>
<path d="M203.718 106.481C202.863 106.017 200.884 105.446 199.367 106.19C197.119 108.288 186.075 111.493 182.705 106.617C181.232 106.52 179.084 107.358 178.477 108.076C180.161 110.548 183.37 111.996 189.251 112.236C197.176 112.563 202.518 108.482 203.718 106.481Z" fill="white"/>
<path d="M237.622 198.325C237.622 198.325 238.994 201.182 238.742 203.283C238.495 205.385 235.926 210.307 234.668 210.67C233.688 212.322 232.513 213.36 232.039 212.926C231.194 214.327 229.905 215.16 228.802 214.751C227.699 214.341 229.908 210.982 229.908 210.982C229.908 210.982 231.471 204.321 230.954 203.973C229.61 206.301 228.245 208.589 226.657 208.27C225.065 207.946 226.129 205.73 227.21 203.068C228.295 200.406 231.23 195.448 231.23 195.448L237.622 198.325Z" fill="#FBC6A4"/>
<path d="M231.992 213.016C231.949 212.998 231.941 212.944 231.967 212.897C234.022 209.089 233.921 205.256 233.921 205.212C233.917 205.162 233.953 205.112 234.004 205.098C234.05 205.087 234.09 205.119 234.093 205.169C234.093 205.212 234.194 209.1 232.114 212.962C232.085 213.012 232.031 213.037 231.992 213.016Z" fill="#DE9173"/>
<path d="M234.622 210.759C234.582 210.745 234.571 210.691 234.593 210.641C236.996 205.866 236.378 203.657 236.375 203.639C236.361 203.592 236.386 203.535 236.436 203.51C236.479 203.488 236.526 203.502 236.54 203.549C236.569 203.642 237.187 205.852 234.744 210.702C234.719 210.749 234.665 210.774 234.625 210.759C234.622 210.759 234.622 210.759 234.622 210.759Z" fill="#DE9173"/>
<path d="M223.908 140.686C225.511 163.111 229.135 165.159 228.219 199.475C232.16 200.147 235.412 200.837 239.22 198.548C248.525 145.759 225.342 116.206 225.342 116.206C225.342 116.206 223.154 130.16 223.908 140.686Z" fill="#A02225"/>
<path d="M230.343 27.0919C217.043 6.84041 185.913 -2.52907 166.571 12.2832C152.437 23.1041 161.433 35.2542 161.433 35.2542C161.433 35.2542 147.53 28.3026 144.508 45.8344C143.679 50.6449 147.436 68.2414 156.705 68.1085C156.705 68.1085 178.537 67.2139 190.928 66.2332C203.319 67.2139 227.623 68.1085 227.623 68.1085C242.733 46.4344 235.035 34.2375 230.343 27.0919Z" fill="#704D3E"/>
<path d="M156.899 66.9013C156.903 86.2187 171.978 103.567 190.58 103.564C209.179 103.56 224.25 86.2079 224.246 66.8905C224.243 47.5767 209.164 32.6136 190.566 32.6172C171.967 32.6172 156.896 47.5839 156.899 66.9013Z" fill="#FBC6A4"/>
<path d="M158.243 67.045C158.243 67.045 157.79 63.1219 153.055 62.4393C148.061 61.7243 145.895 68.2413 148.474 72.2363C151.058 76.224 156.63 76.4396 158.447 73.4146L158.243 67.045Z" fill="#FBC6A4"/>
<path d="M152.031 64.1242C155.308 63.6679 157.729 69.4915 153.21 72.3081C155.221 68.3275 153.569 66.8797 151.158 68.7263C151.234 67.4078 152.074 66.6031 154.032 66.8186C153.946 65.0691 152.031 64.1242 152.031 64.1242Z" fill="#D48565"/>
<path d="M223.114 67.045C223.114 67.045 223.567 63.1219 228.298 62.4393C233.292 61.7207 235.462 68.2413 232.882 72.2327C230.299 76.2205 224.727 76.4396 222.909 73.4182L223.114 67.045Z" fill="#FBC6A4"/>
<path d="M229.325 64.1242C226.049 63.6679 223.628 69.4915 228.151 72.3081C226.135 68.3311 227.791 66.8797 230.198 68.7263C230.123 67.4078 229.282 66.6031 227.324 66.8186C227.414 65.0691 229.325 64.1242 229.325 64.1242Z" fill="#D48565"/>
<path d="M205.931 52.9046C206.911 49.5778 213.148 49.9479 215.174 55.6565C212.405 52.6459 205.931 52.9046 205.931 52.9046Z" fill="#704D3E"/>
<path d="M175.221 52.9046C174.241 49.5778 168.004 49.9479 165.978 55.6565C168.744 52.6459 175.221 52.9046 175.221 52.9046Z" fill="#704D3E"/>
<path d="M178.908 62.6873C180.147 65.9386 178.66 69.524 175.592 70.6952C172.52 71.8627 169.028 70.1778 167.789 66.9229C166.549 63.668 168.037 60.0826 171.105 58.9114C174.176 57.7439 177.668 59.436 178.908 62.6873Z" fill="white"/>
<path d="M176.777 63.4992C177.539 65.5039 176.626 67.7169 174.733 68.439C172.84 69.1611 170.684 68.1193 169.919 66.111C169.154 64.1028 170.074 61.8933 171.963 61.1712C173.86 60.4491 176.012 61.4909 176.777 63.4992Z" fill="#232323"/>
<path d="M172.775 63.7506C172.764 64.3793 172.272 64.8751 171.683 64.8643C171.094 64.8499 170.623 64.3362 170.634 63.7075C170.648 63.0823 171.137 62.583 171.726 62.5902C172.315 62.6081 172.79 63.1255 172.775 63.7506Z" fill="white"/>
<path d="M175.919 66.4235C175.912 66.8115 175.606 67.1204 175.24 67.1133C174.873 67.1061 174.582 66.7863 174.589 66.3947C174.6 66.0067 174.902 65.6978 175.268 65.705C175.635 65.7121 175.926 66.0355 175.919 66.4235Z" fill="white"/>
<path d="M166.966 62.1196C166.966 62.1196 171.737 56.6014 178.261 60.5604C171.88 53.6124 166.966 62.1196 166.966 62.1196Z" fill="#744431"/>
<path d="M203.021 62.6873C201.785 65.9386 203.269 69.524 206.337 70.6952C209.409 71.8627 212.904 70.1778 214.14 66.9229C215.38 63.668 213.892 60.0826 210.824 58.9114C207.756 57.7439 204.26 59.436 203.021 62.6873Z" fill="white"/>
<path d="M205.155 63.4992C204.393 65.5039 205.306 67.7169 207.199 68.439C209.092 69.1611 211.248 68.1193 212.013 66.111C212.778 64.1028 211.859 61.8933 209.969 61.1712C208.072 60.4491 205.917 61.4909 205.155 63.4992Z" fill="#232323"/>
<path d="M209.154 63.7506C209.164 64.3793 209.656 64.8751 210.249 64.8643C210.842 64.8499 211.309 64.3362 211.298 63.7075C211.284 63.0823 210.795 62.583 210.206 62.5902C209.613 62.6081 209.143 63.1255 209.154 63.7506Z" fill="white"/>
<path d="M206.013 66.4235C206.021 66.8115 206.326 67.1204 206.692 67.1133C207.059 67.1061 207.35 66.7863 207.343 66.3947C207.328 66.0067 207.03 65.6978 206.664 65.705C206.297 65.7121 206.003 66.0355 206.013 66.4235Z" fill="white"/>
<path d="M214.963 62.1196C214.963 62.1196 210.192 56.6014 203.667 60.5604C210.052 53.6124 214.963 62.1196 214.963 62.1196Z" fill="#744431"/>
<path d="M202.141 79.4036C199.105 77.3702 197.955 80.5676 191.151 80.546C184.203 80.5209 183.236 77.1797 179.888 79.77C177.158 81.8824 179.489 93.8745 190.878 93.7667C202.353 93.6482 205.033 81.3364 202.141 79.4036Z" fill="#542425"/>
<path d="M183.039 91.2449C184.928 92.7645 187.504 93.7956 190.878 93.7633C194.039 93.7309 196.532 92.7717 198.426 91.3598C196.496 90.706 193.906 90.2569 190.561 90.2461C187.371 90.2425 184.892 90.6413 183.039 91.2449Z" fill="#EC756C"/>
<path d="M201.034 78.8574C198.71 78.1533 197.068 80.5639 191.155 80.546C185.166 80.528 183.621 78.0419 181.164 79.0155C181.203 82.2668 186.251 84.6667 191.065 84.62C195.832 84.5697 201.074 82.0764 201.034 78.8574Z" fill="white"/>
<path d="M194.586 71.3669C194.636 71.3669 194.69 71.3561 194.74 71.3346C194.941 71.2483 195.031 71.0184 194.945 70.8172C194.115 68.8988 192.527 67.7061 190.799 67.7061C189.067 67.7061 187.476 68.8952 186.646 70.8136C186.56 71.0148 186.653 71.2448 186.851 71.331C187.052 71.4172 187.282 71.3238 187.368 71.1262C188.072 69.5023 189.387 68.4928 190.799 68.4928C192.211 68.4928 193.522 69.5024 194.223 71.1298C194.287 71.2807 194.431 71.3669 194.586 71.3669Z" fill="#D68A6B"/>
<path d="M156.845 63.8584C156.845 63.8584 169.506 54.3919 167.566 42.6549C172.013 47.0271 181.074 54.1943 191.51 50.2784C195.322 48.8485 196.515 44.6775 194.966 40.7472C203.783 47.4187 216.048 50.6808 215.814 44.7961C219.798 48.3815 221.864 52.2651 224.63 63.9769C232.85 36.2206 185.166 16.2817 158.872 39.5545C151.916 46.8079 156.845 63.8584 156.845 63.8584Z" fill="#704D3E"/>
<path d="M171.302 76.6661C170.709 76.6661 170.098 76.6338 169.484 76.5763C164.329 76.0769 160.646 72.2688 158.836 65.565C157.532 60.733 157.65 56.1129 157.654 55.9189C157.672 55.2578 158.214 54.7297 158.875 54.7297H187.109C187.447 54.7297 187.77 54.8699 188 55.1141C188.23 55.362 188.352 55.6926 188.331 56.0267C188.316 56.235 187.986 61.1713 185.798 66.1829C182.802 73.0448 177.79 76.6661 171.302 76.6661ZM160.111 57.1799C160.233 61.085 161.289 73.3214 169.718 74.1405C176.019 74.7513 180.671 71.7586 183.531 65.2632C184.918 62.1089 185.511 58.9079 185.748 57.1799H160.111Z" fill="#303133"/>
<path d="M209.872 76.666C209.868 76.666 209.868 76.666 209.872 76.666C203.38 76.666 198.369 73.0411 195.372 66.19C193.181 61.1783 192.85 56.2421 192.836 56.0337C192.814 55.696 192.933 55.3655 193.167 55.1212C193.396 54.8733 193.72 54.7368 194.057 54.7368H222.292C222.953 54.7368 223.495 55.2649 223.513 55.926C223.52 56.12 223.639 60.74 222.331 65.5721C220.521 72.2723 216.838 76.0804 211.683 76.5834C211.072 76.6373 210.461 76.666 209.872 76.666ZM195.423 57.1798C195.66 58.9078 196.249 62.1088 197.639 65.2631C200.255 71.2053 204.368 74.2194 209.872 74.2194C209.872 74.2194 209.872 74.2194 209.876 74.2194C210.386 74.2194 210.918 74.1943 211.453 74.1404C219.895 73.3213 220.944 61.0849 221.063 57.1798H195.423Z" fill="#303133"/>
<path d="M194.682 57.18H187.113C186.437 57.18 185.888 56.6339 185.888 55.9585C185.888 55.2831 186.434 54.7334 187.113 54.7334H194.682C195.358 54.7334 195.907 55.2795 195.907 55.9585C195.904 56.6339 195.358 57.18 194.682 57.18Z" fill="#303133"/>
</svg>
