<svg width="164" height="164" viewBox="0 0 164 164" fill="none" xmlns="http://www.w3.org/2000/svg">
<path d="M75.7133 46.1185C89.4407 46.1185 101.87 51.6824 110.865 60.6796C117.974 67.7878 122.938 77.0386 124.71 87.3782H120.614C118.888 78.1517 114.39 69.9031 108.015 63.5283C99.7484 55.2615 88.3276 50.1487 75.7133 50.1487C63.0989 50.1487 51.6782 55.2615 43.4113 63.5283C35.1445 71.7952 30.0317 83.2159 30.0317 95.8303C30.0317 108.445 35.1445 119.865 43.4113 128.132C51.6782 136.399 63.0989 141.512 75.7133 141.512C88.3276 141.512 99.7484 136.399 108.015 128.132C108.594 127.554 109.156 126.958 109.704 126.351H114.956C113.688 127.979 112.322 129.526 110.865 130.982C101.87 139.978 89.4407 145.544 75.7133 145.544C61.9859 145.544 49.5568 139.98 40.5611 130.982C31.5654 121.987 26 109.558 26 95.8303C26 82.1029 31.5639 69.6738 40.5611 60.6781C49.5568 51.6824 61.9843 46.1185 75.7133 46.1185Z" fill="#4F9E1C"/>
<path d="M57 75.3083H62.655V99.4588H59.1092V78.3347H57V75.3083ZM75.0977 94.6587C75.0977 95.7794 75.0309 96.6769 74.8988 97.3496C74.7667 98.0223 74.5116 98.537 74.135 98.8939C73.7584 99.2507 73.2436 99.4846 72.5906 99.597C71.9392 99.7093 71.0934 99.7655 70.0532 99.7655C69.0145 99.7655 68.1687 99.7093 67.5157 99.597C66.8628 99.4846 66.3541 99.2507 65.9866 98.8939C65.6191 98.537 65.3701 98.0223 65.238 97.3496C65.1059 96.6769 65.039 95.7809 65.039 94.6587V80.0764C65.039 78.9557 65.1059 78.0644 65.238 77.4008C65.3701 76.7387 65.6206 76.2285 65.9866 75.8716C66.3541 75.5148 66.8628 75.2809 67.5157 75.1686C68.1672 75.0562 69.013 75 70.0532 75C71.0934 75 71.9377 75.0562 72.5906 75.1686C73.2436 75.2809 73.7569 75.5148 74.135 75.8716C74.5116 76.2285 74.7667 76.7372 74.8988 77.4008C75.0309 78.0644 75.0977 78.9542 75.0977 80.0764V94.6587ZM71.552 80.0764C71.552 79.6694 71.5368 79.3369 71.5064 79.0833C71.476 78.8282 71.4047 78.6353 71.2923 78.5017C71.1799 78.3696 71.0281 78.277 70.8337 78.2269C70.6409 78.1767 70.3903 78.1509 70.0851 78.1509C69.4336 78.1509 69.0145 78.2739 68.8323 78.5184C68.6486 78.7629 68.5574 79.2822 68.5574 80.0779V94.6603C68.5574 95.0885 68.5726 95.4301 68.603 95.6853C68.6334 95.9404 68.7047 96.1393 68.8171 96.2805C68.9295 96.4217 69.0813 96.5204 69.2757 96.5706C69.4701 96.6207 69.7191 96.6465 70.0243 96.6465C70.3508 96.6465 70.615 96.6207 70.8185 96.5706C71.022 96.5189 71.1799 96.4172 71.2923 96.2653C71.4047 96.112 71.476 95.9085 71.5064 95.6534C71.5368 95.3983 71.552 95.0672 71.552 94.6603V80.0764ZM87.296 94.6587C87.296 95.7794 87.2291 96.6769 87.097 97.3496C86.9649 98.0223 86.7098 98.537 86.3332 98.8939C85.9566 99.2507 85.4419 99.4846 84.7889 99.597C84.1374 99.7093 83.2916 99.7655 82.2514 99.7655C81.2128 99.7655 80.367 99.7093 79.714 99.597C79.061 99.4846 78.5523 99.2507 78.1849 98.8939C77.8174 98.537 77.5683 98.0223 77.4362 97.3496C77.3041 96.6769 77.2373 95.7809 77.2373 94.6587V80.0764C77.2373 78.9557 77.3041 78.0644 77.4362 77.4008C77.5683 76.7387 77.8189 76.2285 78.1849 75.8716C78.5523 75.5148 79.061 75.2809 79.714 75.1686C80.367 75.0562 81.2113 75 82.2514 75C83.2916 75 84.1374 75.0562 84.7889 75.1686C85.4403 75.2809 85.9551 75.5148 86.3332 75.8716C86.7098 76.2285 86.9649 76.7372 87.097 77.4008C87.2291 78.0629 87.296 78.9542 87.296 80.0764V94.6587ZM83.7487 80.0764C83.7487 79.6694 83.7335 79.3369 83.7032 79.0833C83.6728 78.8282 83.6014 78.6353 83.489 78.5017C83.3767 78.3696 83.2248 78.277 83.0304 78.2269C82.8376 78.1767 82.587 78.1509 82.2818 78.1509C81.6304 78.1509 81.2113 78.2739 81.029 78.5184C80.8453 78.7629 80.7542 79.2822 80.7542 80.0779V94.6603C80.7542 95.0885 80.7694 95.4301 80.7997 95.6853C80.8301 95.9404 80.9015 96.1393 81.0139 96.2805C81.1262 96.4233 81.2796 96.5204 81.4724 96.5706C81.6668 96.6222 81.9159 96.6465 82.2211 96.6465C82.5476 96.6465 82.8118 96.6207 83.0153 96.5706C83.2187 96.5189 83.3767 96.4172 83.489 96.2653C83.6014 96.112 83.6728 95.9085 83.7032 95.6534C83.7335 95.3983 83.7487 95.0672 83.7487 94.6603V80.0764ZM103.865 75.3083L93.7755 99.4588H91.3914L101.48 75.3083H103.865ZM95.5187 85.8544C95.5187 86.5058 95.4732 87.0206 95.3806 87.3987C95.2894 87.7753 95.1209 88.0669 94.8764 88.2703C94.6319 88.4738 94.2903 88.6059 93.8529 88.6682C93.4141 88.7289 92.8492 88.7593 92.1567 88.7593C91.4643 88.7593 90.8979 88.7289 90.4606 88.6682C90.0217 88.6074 89.6816 88.4753 89.4371 88.2703C89.1926 88.0669 89.0301 87.7768 88.9481 87.3987C88.8661 87.0206 88.8251 86.5073 88.8251 85.8544V77.9368C88.8251 77.3051 88.8661 76.801 88.9481 76.4229C89.0301 76.0447 89.1926 75.7547 89.4371 75.5512C89.6816 75.3477 90.0232 75.2156 90.4606 75.1534C90.8994 75.0926 91.4643 75.0623 92.1567 75.0623C92.8492 75.0623 93.4156 75.0926 93.8529 75.1534C94.2918 75.2141 94.6319 75.3462 94.8764 75.5512C95.1209 75.7547 95.2894 76.0463 95.3806 76.4229C95.4717 76.7994 95.5187 77.3036 95.5187 77.9368V85.8544ZM93.0739 77.9368C93.0739 77.5299 93.0223 77.2747 92.9206 77.173C92.8188 77.0713 92.5743 77.0196 92.1871 77.0196C91.7786 77.0196 91.519 77.0758 91.4081 77.1882C91.2957 77.3006 91.2396 77.5496 91.2396 77.9368V85.8544C91.2396 86.2613 91.2897 86.5225 91.3929 86.6334C91.4962 86.7442 91.7391 86.8019 92.1264 86.8019C92.5546 86.8019 92.8188 86.7457 92.9206 86.6334C93.0223 86.521 93.0739 86.2613 93.0739 85.8544V77.9368ZM106.402 96.7376C106.402 97.3906 106.356 97.9038 106.264 98.2819C106.173 98.6585 106.004 98.9501 105.76 99.1536C105.515 99.357 105.173 99.4892 104.736 99.5514C104.297 99.6122 103.732 99.6425 103.04 99.6425C102.348 99.6425 101.781 99.6122 101.344 99.5514C100.905 99.4907 100.565 99.357 100.32 99.1536C100.076 98.9501 99.9133 98.66 99.8313 98.2819C99.7493 97.9053 99.7083 97.3906 99.7083 96.7376V88.82C99.7083 88.1883 99.7493 87.6842 99.8313 87.3076C99.9133 86.931 100.076 86.6394 100.32 86.436C100.565 86.2325 100.906 86.1004 101.344 86.0381C101.781 85.9759 102.348 85.947 103.04 85.947C103.732 85.947 104.299 85.9774 104.736 86.0381C105.173 86.0989 105.515 86.231 105.76 86.436C106.004 86.6394 106.173 86.9295 106.264 87.3076C106.355 87.6842 106.402 88.1883 106.402 88.82V96.7376ZM103.957 88.82C103.957 88.4131 103.906 88.158 103.804 88.0562C103.702 87.9545 103.458 87.9029 103.07 87.9029C102.663 87.9029 102.402 87.959 102.291 88.0714C102.179 88.1838 102.123 88.4328 102.123 88.82V96.7376C102.123 97.1446 102.174 97.4057 102.276 97.5166C102.378 97.629 102.622 97.6852 103.01 97.6852C103.438 97.6852 103.702 97.629 103.804 97.5166C103.906 97.4042 103.957 97.1446 103.957 96.7376V88.82Z" fill="#4F9E1C"/>
<path fill-rule="evenodd" clip-rule="evenodd" d="M133.972 87.3751C138.51 88.1511 166.984 77.2663 147.357 49.1176C147.357 49.1176 144.998 59.5073 135.435 62.3408C125.871 65.1744 119.818 76.4433 129.292 87.1671C129.292 87.1671 151.051 73.59 146.922 58.669C146.922 58.6675 152.921 71.3623 133.972 87.3751Z" fill="#4F9E1C"/>
<path fill-rule="evenodd" clip-rule="evenodd" d="M120.179 69.083C117.63 68.4255 105.335 56.0784 122.163 46C122.163 46 120.958 51.9693 125.281 55.6881C129.604 59.407 130.119 66.7004 122.667 70.0716C122.667 70.0716 114.504 57.8946 120.151 51.0825C120.153 51.081 114.051 56.2956 120.179 69.083Z" fill="#4F9E1C"/>
<path d="M59.32 116C59.232 116 59.164 115.976 59.116 115.928C59.068 115.872 59.044 115.804 59.044 115.724V107.888C59.044 107.8 59.068 107.732 59.116 107.684C59.164 107.628 59.232 107.6 59.32 107.6H59.872C59.968 107.6 60.04 107.624 60.088 107.672C60.136 107.712 60.164 107.744 60.172 107.768L64.156 113.888V107.888C64.156 107.8 64.18 107.732 64.228 107.684C64.276 107.628 64.344 107.6 64.432 107.6H65.008C65.096 107.6 65.164 107.628 65.212 107.684C65.268 107.732 65.296 107.8 65.296 107.888V115.712C65.296 115.792 65.268 115.86 65.212 115.916C65.164 115.972 65.1 116 65.02 116H64.444C64.356 116 64.288 115.976 64.24 115.928C64.2 115.88 64.172 115.848 64.156 115.832L60.184 109.772V115.724C60.184 115.804 60.156 115.872 60.1 115.928C60.052 115.976 59.984 116 59.896 116H59.32ZM66.812 116C66.748 116 66.692 115.976 66.644 115.928C66.596 115.88 66.572 115.824 66.572 115.76C66.572 115.72 66.576 115.676 66.584 115.628L69.56 107.864C69.592 107.784 69.636 107.72 69.692 107.672C69.748 107.624 69.832 107.6 69.944 107.6H70.76C70.864 107.6 70.944 107.624 71 107.672C71.064 107.72 71.112 107.784 71.144 107.864L74.108 115.628C74.124 115.676 74.132 115.72 74.132 115.76C74.132 115.824 74.108 115.88 74.06 115.928C74.012 115.976 73.956 116 73.892 116H73.28C73.184 116 73.112 115.976 73.064 115.928C73.024 115.88 72.996 115.836 72.98 115.796L72.32 114.092H68.384L67.724 115.796C67.716 115.836 67.688 115.88 67.64 115.928C67.592 115.976 67.52 116 67.424 116H66.812ZM68.732 113.06H71.972L70.352 108.8L68.732 113.06ZM76.6365 116C76.5565 116 76.4885 115.976 76.4325 115.928C76.3845 115.872 76.3605 115.804 76.3605 115.724V108.668H74.0565C73.9765 108.668 73.9085 108.644 73.8525 108.596C73.8045 108.54 73.7805 108.472 73.7805 108.392V107.888C73.7805 107.8 73.8045 107.732 73.8525 107.684C73.9085 107.628 73.9765 107.6 74.0565 107.6H79.8405C79.9285 107.6 79.9965 107.628 80.0445 107.684C80.1005 107.732 80.1285 107.8 80.1285 107.888V108.392C80.1285 108.472 80.1005 108.54 80.0445 108.596C79.9965 108.644 79.9285 108.668 79.8405 108.668H77.5485V115.724C77.5485 115.804 77.5205 115.872 77.4645 115.928C77.4165 115.976 77.3485 116 77.2605 116H76.6365ZM84.6417 116.12C83.9697 116.12 83.3897 116 82.9017 115.76C82.4217 115.52 82.0497 115.156 81.7857 114.668C81.5297 114.172 81.4017 113.536 81.4017 112.76V107.888C81.4017 107.8 81.4257 107.732 81.4737 107.684C81.5217 107.628 81.5897 107.6 81.6777 107.6H82.2897C82.3777 107.6 82.4457 107.628 82.4937 107.684C82.5497 107.732 82.5777 107.8 82.5777 107.888V112.784C82.5777 113.568 82.7617 114.148 83.1297 114.524C83.4977 114.9 84.0017 115.088 84.6417 115.088C85.2737 115.088 85.7737 114.9 86.1417 114.524C86.5177 114.148 86.7057 113.568 86.7057 112.784V107.888C86.7057 107.8 86.7297 107.732 86.7777 107.684C86.8337 107.628 86.9017 107.6 86.9817 107.6H87.6057C87.6857 107.6 87.7497 107.628 87.7977 107.684C87.8537 107.732 87.8817 107.8 87.8817 107.888V112.76C87.8817 113.536 87.7497 114.172 87.4857 114.668C87.2297 115.156 86.8617 115.52 86.3817 115.76C85.9017 116 85.3217 116.12 84.6417 116.12ZM90.1638 116C90.0758 116 90.0078 115.976 89.9598 115.928C89.9118 115.872 89.8878 115.804 89.8878 115.724V107.888C89.8878 107.8 89.9118 107.732 89.9598 107.684C90.0078 107.628 90.0758 107.6 90.1638 107.6H93.0918C93.9958 107.6 94.7118 107.812 95.2398 108.236C95.7678 108.66 96.0318 109.288 96.0318 110.12C96.0318 110.736 95.8758 111.24 95.5638 111.632C95.2598 112.016 94.8438 112.284 94.3158 112.436L96.1638 115.628C96.1878 115.676 96.1998 115.72 96.1998 115.76C96.1998 115.824 96.1718 115.88 96.1158 115.928C96.0678 115.976 96.0118 116 95.9478 116H95.3718C95.2358 116 95.1358 115.964 95.0718 115.892C95.0078 115.82 94.9518 115.748 94.9037 115.676L93.1638 112.628H91.0638V115.724C91.0638 115.804 91.0358 115.872 90.9798 115.928C90.9318 115.976 90.8638 116 90.7758 116H90.1638ZM91.0638 111.608H93.0438C93.6438 111.608 94.0918 111.484 94.3878 111.236C94.6838 110.98 94.8318 110.604 94.8318 110.108C94.8318 109.62 94.6838 109.248 94.3878 108.992C94.0998 108.736 93.6518 108.608 93.0438 108.608H91.0638V111.608ZM97.187 116C97.123 116 97.067 115.976 97.019 115.928C96.971 115.88 96.947 115.824 96.947 115.76C96.947 115.72 96.951 115.676 96.959 115.628L99.935 107.864C99.967 107.784 100.011 107.72 100.067 107.672C100.123 107.624 100.207 107.6 100.319 107.6H101.135C101.239 107.6 101.319 107.624 101.375 107.672C101.439 107.72 101.487 107.784 101.519 107.864L104.483 115.628C104.499 115.676 104.507 115.72 104.507 115.76C104.507 115.824 104.483 115.88 104.435 115.928C104.387 115.976 104.331 116 104.267 116H103.655C103.559 116 103.487 115.976 103.439 115.928C103.399 115.88 103.371 115.836 103.355 115.796L102.695 114.092H98.759L98.099 115.796C98.091 115.836 98.063 115.88 98.015 115.928C97.967 115.976 97.895 116 97.799 116H97.187ZM99.107 113.06H102.347L100.727 108.8L99.107 113.06ZM106.066 116C105.978 116 105.91 115.976 105.862 115.928C105.814 115.872 105.79 115.804 105.79 115.724V107.876C105.79 107.796 105.814 107.732 105.862 107.684C105.91 107.628 105.978 107.6 106.066 107.6H106.702C106.782 107.6 106.846 107.628 106.894 107.684C106.942 107.732 106.966 107.796 106.966 107.876V114.956H110.962C111.05 114.956 111.118 114.984 111.166 115.04C111.214 115.088 111.238 115.156 111.238 115.244V115.724C111.238 115.804 111.214 115.872 111.166 115.928C111.118 115.976 111.05 116 110.962 116H106.066Z" fill="#4F9E1C"/>
</svg>
