<svg width="130" height="130" viewBox="0 0 130 130" fill="none" xmlns="http://www.w3.org/2000/svg">
<path d="M60.0162 36.5573C70.8976 36.5573 80.7499 40.9677 87.8807 48.0996C93.5152 53.7342 97.4501 61.0672 98.8548 69.2632H95.6084C94.2398 61.9495 90.6745 55.4109 85.6213 50.3578C79.0684 43.8048 70.0153 39.7519 60.0162 39.7519C50.017 39.7519 40.964 43.8048 34.411 50.3578C27.8581 56.9108 23.8052 65.9638 23.8052 75.963C23.8052 85.9622 27.8581 95.0153 34.411 101.568C40.964 108.121 50.017 112.174 60.0162 112.174C70.0153 112.174 79.0684 108.121 85.6213 101.568C86.0799 101.11 86.5253 100.638 86.9598 100.156H91.1235C90.1184 101.447 89.035 102.673 87.8807 103.828C80.7499 110.958 70.8976 115.37 60.0162 115.37C49.1347 115.37 39.2824 110.96 32.1517 103.828C25.0209 96.6968 20.6094 86.8445 20.6094 75.963C20.6094 65.0815 25.0197 55.2292 32.1517 48.0984C39.2824 40.9677 49.1335 36.5573 60.0162 36.5573Z" fill="#4F9E1C"/>
<path fill-rule="evenodd" clip-rule="evenodd" d="M106.198 69.2608C109.794 69.8759 132.365 61.2477 116.807 38.9347C116.807 38.9347 114.938 47.1704 107.357 49.4165C99.7758 51.6627 94.9778 60.5953 102.488 69.0959C102.488 69.0959 119.736 58.3336 116.463 46.506C116.463 46.5048 121.217 56.5677 106.198 69.2608Z" fill="#4F9E1C"/>
<path fill-rule="evenodd" clip-rule="evenodd" d="M95.2632 54.7609C93.2434 54.2397 83.497 44.4524 96.8364 36.4634C96.8364 36.4634 95.8807 41.1952 99.3076 44.1431C102.735 47.0909 103.143 52.8723 97.2361 55.5445C97.2361 55.5445 90.7649 45.892 95.2415 40.4922C95.2427 40.491 90.4062 44.6245 95.2632 54.7609Z" fill="#4F9E1C"/>
<path d="M50.7204 86.4C50.6324 86.4 50.5644 86.376 50.5164 86.328C50.4684 86.272 50.4444 86.204 50.4444 86.124V78.288C50.4444 78.2 50.4684 78.132 50.5164 78.084C50.5644 78.028 50.6324 78 50.7204 78H55.6164C55.7044 78 55.7724 78.028 55.8204 78.084C55.8684 78.132 55.8924 78.2 55.8924 78.288V78.768C55.8924 78.856 55.8684 78.924 55.8204 78.972C55.7724 79.02 55.7044 79.044 55.6164 79.044H51.6084V81.84H55.3764C55.4644 81.84 55.5324 81.868 55.5804 81.924C55.6284 81.972 55.6524 82.04 55.6524 82.128V82.608C55.6524 82.688 55.6284 82.756 55.5804 82.812C55.5324 82.86 55.4644 82.884 55.3764 82.884H51.6084V86.124C51.6084 86.204 51.5804 86.272 51.5244 86.328C51.4764 86.376 51.4084 86.4 51.3204 86.4H50.7204ZM57.4081 86.4C57.3281 86.4 57.2601 86.376 57.2041 86.328C57.1561 86.272 57.1321 86.204 57.1321 86.124V80.448C57.1321 80.368 57.1561 80.3 57.2041 80.244C57.2601 80.188 57.3281 80.16 57.4081 80.16H57.9601C58.0401 80.16 58.1081 80.188 58.1641 80.244C58.2201 80.3 58.2481 80.368 58.2481 80.448V80.976C58.4081 80.704 58.6281 80.5 58.9081 80.364C59.1881 80.228 59.5241 80.16 59.9161 80.16H60.3961C60.4761 80.16 60.5401 80.188 60.5881 80.244C60.6361 80.292 60.6601 80.356 60.6601 80.436V80.928C60.6601 81.008 60.6361 81.072 60.5881 81.12C60.5401 81.168 60.4761 81.192 60.3961 81.192H59.6761C59.2441 81.192 58.9041 81.32 58.6561 81.576C58.4081 81.824 58.2841 82.164 58.2841 82.596V86.124C58.2841 86.204 58.2561 86.272 58.2001 86.328C58.1441 86.376 58.0761 86.4 57.9961 86.4H57.4081ZM64.0575 86.52C63.2335 86.52 62.5775 86.268 62.0895 85.764C61.6015 85.252 61.3335 84.556 61.2855 83.676C61.2775 83.572 61.2735 83.44 61.2735 83.28C61.2735 83.112 61.2775 82.976 61.2855 82.872C61.3175 82.304 61.4495 81.808 61.6815 81.384C61.9135 80.952 62.2295 80.62 62.6295 80.388C63.0375 80.156 63.5135 80.04 64.0575 80.04C64.6655 80.04 65.1735 80.168 65.5815 80.424C65.9975 80.68 66.3135 81.044 66.5295 81.516C66.7455 81.988 66.8535 82.54 66.8535 83.172V83.376C66.8535 83.464 66.8255 83.532 66.7695 83.58C66.7215 83.628 66.6575 83.652 66.5775 83.652H62.4255C62.4255 83.66 62.4255 83.676 62.4255 83.7C62.4255 83.724 62.4255 83.744 62.4255 83.76C62.4415 84.088 62.5135 84.396 62.6415 84.684C62.7695 84.964 62.9535 85.192 63.1935 85.368C63.4335 85.544 63.7215 85.632 64.0575 85.632C64.3455 85.632 64.5855 85.588 64.7775 85.5C64.9695 85.412 65.1255 85.316 65.2455 85.212C65.3655 85.1 65.4455 85.016 65.4855 84.96C65.5575 84.856 65.6135 84.796 65.6535 84.78C65.6935 84.756 65.7575 84.744 65.8455 84.744H66.4215C66.5015 84.744 66.5655 84.768 66.6135 84.816C66.6695 84.856 66.6935 84.916 66.6855 84.996C66.6775 85.116 66.6135 85.264 66.4935 85.44C66.3735 85.608 66.2015 85.776 65.9775 85.944C65.7535 86.112 65.4815 86.252 65.1615 86.364C64.8415 86.468 64.4735 86.52 64.0575 86.52ZM62.4255 82.824H65.7135V82.788C65.7135 82.428 65.6455 82.108 65.5095 81.828C65.3815 81.548 65.1935 81.328 64.9455 81.168C64.6975 81 64.4015 80.916 64.0575 80.916C63.7135 80.916 63.4175 81 63.1695 81.168C62.9295 81.328 62.7455 81.548 62.6175 81.828C62.4895 82.108 62.4255 82.428 62.4255 82.788V82.824ZM70.4484 86.52C70.0004 86.52 69.6164 86.464 69.2964 86.352C68.9764 86.24 68.7164 86.104 68.5164 85.944C68.3164 85.784 68.1644 85.624 68.0604 85.464C67.9644 85.304 67.9124 85.176 67.9044 85.08C67.8964 84.992 67.9244 84.924 67.9884 84.876C68.0524 84.828 68.1164 84.804 68.1804 84.804H68.7084C68.7564 84.804 68.7924 84.812 68.8164 84.828C68.8484 84.836 68.8884 84.868 68.9364 84.924C69.0404 85.036 69.1564 85.148 69.2844 85.26C69.4124 85.372 69.5684 85.464 69.7524 85.536C69.9444 85.608 70.1804 85.644 70.4604 85.644C70.8684 85.644 71.2044 85.568 71.4684 85.416C71.7324 85.256 71.8644 85.024 71.8644 84.72C71.8644 84.52 71.8084 84.36 71.6964 84.24C71.5924 84.12 71.4004 84.012 71.1204 83.916C70.8484 83.82 70.4724 83.72 69.9924 83.616C69.5124 83.504 69.1324 83.368 68.8524 83.208C68.5724 83.04 68.3724 82.844 68.2524 82.62C68.1324 82.388 68.0724 82.128 68.0724 81.84C68.0724 81.544 68.1604 81.26 68.3364 80.988C68.5124 80.708 68.7684 80.48 69.1044 80.304C69.4484 80.128 69.8764 80.04 70.3884 80.04C70.8044 80.04 71.1604 80.092 71.4564 80.196C71.7524 80.3 71.9964 80.432 72.1884 80.592C72.3804 80.744 72.5244 80.896 72.6204 81.048C72.7164 81.2 72.7684 81.328 72.7764 81.432C72.7844 81.512 72.7604 81.58 72.7044 81.636C72.6484 81.684 72.5844 81.708 72.5124 81.708H72.0084C71.9524 81.708 71.9044 81.696 71.8644 81.672C71.8324 81.648 71.8004 81.62 71.7684 81.588C71.6884 81.484 71.5924 81.38 71.4804 81.276C71.3764 81.172 71.2364 81.088 71.0604 81.024C70.8924 80.952 70.6684 80.916 70.3884 80.916C69.9884 80.916 69.6884 81 69.4884 81.168C69.2884 81.336 69.1884 81.548 69.1884 81.804C69.1884 81.956 69.2324 82.092 69.3204 82.212C69.4084 82.332 69.5764 82.44 69.8244 82.536C70.0724 82.632 70.4404 82.736 70.9284 82.848C71.4564 82.952 71.8724 83.092 72.1764 83.268C72.4804 83.444 72.6964 83.648 72.8244 83.88C72.9524 84.112 73.0164 84.38 73.0164 84.684C73.0164 85.02 72.9164 85.328 72.7164 85.608C72.5244 85.888 72.2364 86.112 71.8524 86.28C71.4764 86.44 71.0084 86.52 70.4484 86.52ZM74.6936 86.4C74.6136 86.4 74.5456 86.376 74.4896 86.328C74.4416 86.272 74.4176 86.204 74.4176 86.124V78.156C74.4176 78.076 74.4416 78.012 74.4896 77.964C74.5456 77.908 74.6136 77.88 74.6936 77.88H75.2936C75.3816 77.88 75.4496 77.908 75.4976 77.964C75.5456 78.012 75.5696 78.076 75.5696 78.156V80.952C75.7856 80.68 76.0496 80.46 76.3616 80.292C76.6736 80.124 77.0696 80.04 77.5496 80.04C78.0696 80.04 78.5096 80.156 78.8696 80.388C79.2376 80.612 79.5136 80.928 79.6976 81.336C79.8896 81.736 79.9856 82.204 79.9856 82.74V86.124C79.9856 86.204 79.9616 86.272 79.9136 86.328C79.8656 86.376 79.7976 86.4 79.7096 86.4H79.1096C79.0296 86.4 78.9616 86.376 78.9056 86.328C78.8576 86.272 78.8336 86.204 78.8336 86.124V82.8C78.8336 82.24 78.6976 81.804 78.4256 81.492C78.1536 81.172 77.7536 81.012 77.2256 81.012C76.7296 81.012 76.3296 81.172 76.0256 81.492C75.7216 81.804 75.5696 82.24 75.5696 82.8V86.124C75.5696 86.204 75.5456 86.272 75.4976 86.328C75.4496 86.376 75.3816 86.4 75.2936 86.4H74.6936Z" fill="#4F9E1C"/>
</svg>
