<svg width="159" height="130" viewBox="0 0 159 130" fill="none" xmlns="http://www.w3.org/2000/svg">
<g clip-path="url(#clip0_874_954)">
<path d="M60.1683 36.5573C71.0772 36.5573 80.9544 40.9677 88.1031 48.0996C93.7518 53.7342 97.6966 61.0672 99.1049 69.2632H95.8503C94.4783 61.9495 90.9039 55.4109 85.838 50.3578C79.2685 43.8048 70.1927 39.7519 60.1683 39.7519C50.1439 39.7519 41.068 43.8048 34.4986 50.3578C27.9291 56.9108 23.866 65.9638 23.866 75.963C23.866 85.9622 27.9291 95.0153 34.4986 101.568C41.068 108.121 50.1439 112.174 60.1683 112.174C70.1927 112.174 79.2685 108.121 85.838 101.568C86.2978 101.11 86.7443 100.638 87.1799 100.156H91.354C90.3464 101.447 89.2603 102.673 88.1031 103.828C80.9544 110.958 71.0772 115.37 60.1683 115.37C49.2594 115.37 39.3822 110.96 32.2335 103.828C25.0848 96.6968 20.6621 86.8445 20.6621 75.963C20.6621 65.0815 25.0836 55.2292 32.2335 48.0984C39.3822 40.9677 49.2582 36.5573 60.1683 36.5573Z" fill="#4F9E1C"/>
<path fill-rule="evenodd" clip-rule="evenodd" d="M106.466 69.2608C110.072 69.8759 132.7 61.2477 117.103 38.9347C117.103 38.9347 115.229 47.1704 107.629 49.4165C100.028 51.6627 95.2184 60.5953 102.747 69.0959C102.747 69.0959 120.039 58.3336 116.757 46.506C116.757 46.5048 121.524 56.5677 106.466 69.2608Z" fill="#4F9E1C"/>
<path fill-rule="evenodd" clip-rule="evenodd" d="M95.5042 54.7609C93.4792 54.2397 83.7083 44.4524 97.0814 36.4634C97.0814 36.4634 96.1232 41.1952 99.5588 44.1431C102.994 47.0909 103.403 52.8723 97.482 55.5445C97.482 55.5445 90.9946 45.892 95.4824 40.4922C95.4836 40.491 90.635 44.6245 95.5042 54.7609Z" fill="#4F9E1C"/>
<path d="M61.2712 86.4C61.1832 86.4 61.1152 86.376 61.0672 86.328C61.0192 86.272 60.9952 86.204 60.9952 86.124V78.288C60.9952 78.2 61.0192 78.132 61.0672 78.084C61.1152 78.028 61.1832 78 61.2712 78H61.8832C61.9712 78 62.0392 78.028 62.0872 78.084C62.1432 78.132 62.1712 78.2 62.1712 78.288V81.6H66.2992V78.288C66.2992 78.2 66.3232 78.132 66.3712 78.084C66.4272 78.028 66.4952 78 66.5752 78H67.1872C67.2752 78 67.3432 78.028 67.3912 78.084C67.4472 78.132 67.4752 78.2 67.4752 78.288V86.124C67.4752 86.204 67.4472 86.272 67.3912 86.328C67.3432 86.376 67.2752 86.4 67.1872 86.4H66.5752C66.4952 86.4 66.4272 86.376 66.3712 86.328C66.3232 86.272 66.2992 86.204 66.2992 86.124V82.68H62.1712V86.124C62.1712 86.204 62.1432 86.272 62.0872 86.328C62.0392 86.376 61.9712 86.4 61.8832 86.4H61.2712ZM71.1339 86.52C70.7339 86.52 70.3699 86.44 70.0419 86.28C69.7139 86.12 69.4499 85.904 69.2499 85.632C69.0499 85.36 68.9499 85.052 68.9499 84.708C68.9499 84.156 69.1739 83.716 69.6219 83.388C70.0699 83.06 70.6539 82.844 71.3739 82.74L73.1619 82.488V82.14C73.1619 81.756 73.0499 81.456 72.8259 81.24C72.6099 81.024 72.2539 80.916 71.7579 80.916C71.3979 80.916 71.1059 80.988 70.8819 81.132C70.6659 81.276 70.5139 81.46 70.4259 81.684C70.3779 81.804 70.2939 81.864 70.1739 81.864H69.6339C69.5459 81.864 69.4779 81.84 69.4299 81.792C69.3899 81.736 69.3699 81.672 69.3699 81.6C69.3699 81.48 69.4139 81.332 69.5019 81.156C69.5979 80.98 69.7419 80.808 69.9339 80.64C70.1259 80.472 70.3699 80.332 70.6659 80.22C70.9699 80.1 71.3379 80.04 71.7699 80.04C72.2499 80.04 72.6539 80.104 72.9819 80.232C73.3099 80.352 73.5659 80.516 73.7499 80.724C73.9419 80.932 74.0779 81.168 74.1579 81.432C74.2459 81.696 74.2899 81.964 74.2899 82.236V86.124C74.2899 86.204 74.2619 86.272 74.2059 86.328C74.1579 86.376 74.0939 86.4 74.0139 86.4H73.4619C73.3739 86.4 73.3059 86.376 73.2579 86.328C73.2099 86.272 73.1859 86.204 73.1859 86.124V85.608C73.0819 85.752 72.9419 85.896 72.7659 86.04C72.5899 86.176 72.3699 86.292 72.1059 86.388C71.8419 86.476 71.5179 86.52 71.1339 86.52ZM71.3859 85.62C71.7139 85.62 72.0139 85.552 72.2859 85.416C72.5579 85.272 72.7699 85.052 72.9219 84.756C73.0819 84.46 73.1619 84.088 73.1619 83.64V83.304L71.7699 83.508C71.2019 83.588 70.7739 83.724 70.4859 83.916C70.1979 84.1 70.0539 84.336 70.0539 84.624C70.0539 84.848 70.1179 85.036 70.2459 85.188C70.3819 85.332 70.5499 85.44 70.7499 85.512C70.9579 85.584 71.1699 85.62 71.3859 85.62ZM76.291 86.4C76.211 86.4 76.143 86.376 76.087 86.328C76.039 86.272 76.015 86.204 76.015 86.124V80.448C76.015 80.368 76.039 80.3 76.087 80.244C76.143 80.188 76.211 80.16 76.291 80.16H76.843C76.923 80.16 76.991 80.188 77.047 80.244C77.103 80.3 77.131 80.368 77.131 80.448V80.976C77.291 80.704 77.511 80.5 77.791 80.364C78.071 80.228 78.407 80.16 78.799 80.16H79.279C79.359 80.16 79.423 80.188 79.471 80.244C79.519 80.292 79.543 80.356 79.543 80.436V80.928C79.543 81.008 79.519 81.072 79.471 81.12C79.423 81.168 79.359 81.192 79.279 81.192H78.559C78.127 81.192 77.787 81.32 77.539 81.576C77.291 81.824 77.167 82.164 77.167 82.596V86.124C77.167 86.204 77.139 86.272 77.083 86.328C77.027 86.376 76.959 86.4 76.879 86.4H76.291ZM82.7246 86.52C82.2846 86.52 81.9046 86.444 81.5846 86.292C81.2646 86.132 81.0006 85.92 80.7926 85.656C80.5926 85.384 80.4406 85.076 80.3366 84.732C80.2406 84.388 80.1846 84.024 80.1686 83.64C80.1606 83.512 80.1566 83.392 80.1566 83.28C80.1566 83.168 80.1606 83.048 80.1686 82.92C80.1846 82.544 80.2406 82.184 80.3366 81.84C80.4406 81.496 80.5926 81.188 80.7926 80.916C81.0006 80.644 81.2646 80.432 81.5846 80.28C81.9046 80.12 82.2846 80.04 82.7246 80.04C83.1966 80.04 83.5886 80.124 83.9006 80.292C84.2126 80.46 84.4686 80.668 84.6686 80.916V78.156C84.6686 78.076 84.6926 78.012 84.7406 77.964C84.7966 77.908 84.8646 77.88 84.9446 77.88H85.5206C85.6006 77.88 85.6646 77.908 85.7126 77.964C85.7686 78.012 85.7966 78.076 85.7966 78.156V86.124C85.7966 86.204 85.7686 86.272 85.7126 86.328C85.6646 86.376 85.6006 86.4 85.5206 86.4H84.9806C84.8926 86.4 84.8246 86.376 84.7766 86.328C84.7286 86.272 84.7046 86.204 84.7046 86.124V85.62C84.5046 85.876 84.2446 86.092 83.9246 86.268C83.6046 86.436 83.2046 86.52 82.7246 86.52ZM82.9766 85.548C83.3766 85.548 83.6966 85.456 83.9366 85.272C84.1766 85.088 84.3566 84.856 84.4766 84.576C84.5966 84.288 84.6606 83.996 84.6686 83.7C84.6766 83.572 84.6806 83.42 84.6806 83.244C84.6806 83.06 84.6766 82.904 84.6686 82.776C84.6606 82.496 84.5926 82.22 84.4646 81.948C84.3446 81.676 84.1606 81.452 83.9126 81.276C83.6726 81.1 83.3606 81.012 82.9766 81.012C82.5686 81.012 82.2446 81.104 82.0046 81.288C81.7646 81.464 81.5926 81.7 81.4886 81.996C81.3846 82.284 81.3246 82.596 81.3086 82.932C81.3006 83.164 81.3006 83.396 81.3086 83.628C81.3246 83.964 81.3846 84.28 81.4886 84.576C81.5926 84.864 81.7646 85.1 82.0046 85.284C82.2446 85.46 82.5686 85.548 82.9766 85.548ZM89.2374 86.4C89.1334 86.4 89.0534 86.376 88.9974 86.328C88.9414 86.272 88.8934 86.196 88.8534 86.1L87.1494 80.532C87.1334 80.492 87.1254 80.452 87.1254 80.412C87.1254 80.34 87.1494 80.28 87.1974 80.232C87.2534 80.184 87.3134 80.16 87.3774 80.16H87.9054C87.9934 80.16 88.0614 80.184 88.1094 80.232C88.1574 80.28 88.1894 80.324 88.2054 80.364L89.5374 84.888L90.9654 80.412C90.9814 80.356 91.0134 80.3 91.0614 80.244C91.1174 80.188 91.1974 80.16 91.3014 80.16H91.7094C91.8134 80.16 91.8934 80.188 91.9494 80.244C92.0054 80.3 92.0374 80.356 92.0454 80.412L93.4734 84.888L94.8054 80.364C94.8134 80.324 94.8414 80.28 94.8894 80.232C94.9374 80.184 95.0054 80.16 95.0934 80.16H95.6214C95.6934 80.16 95.7534 80.184 95.8014 80.232C95.8494 80.28 95.8734 80.34 95.8734 80.412C95.8734 80.452 95.8654 80.492 95.8494 80.532L94.1454 86.1C94.1214 86.196 94.0774 86.272 94.0134 86.328C93.9574 86.376 93.8734 86.4 93.7614 86.4H93.2934C93.1894 86.4 93.1014 86.376 93.0294 86.328C92.9654 86.272 92.9214 86.196 92.8974 86.1L91.5054 81.804L90.1134 86.1C90.0814 86.196 90.0334 86.272 89.9694 86.328C89.9054 86.376 89.8174 86.4 89.7054 86.4H89.2374ZM99.5944 86.52C98.9864 86.52 98.4784 86.404 98.0704 86.172C97.6624 85.94 97.3504 85.62 97.1344 85.212C96.9184 84.796 96.7984 84.324 96.7744 83.796C96.7664 83.66 96.7624 83.488 96.7624 83.28C96.7624 83.064 96.7664 82.892 96.7744 82.764C96.7984 82.228 96.9184 81.756 97.1344 81.348C97.3584 80.94 97.6744 80.62 98.0824 80.388C98.4904 80.156 98.9944 80.04 99.5944 80.04C100.194 80.04 100.698 80.156 101.106 80.388C101.514 80.62 101.826 80.94 102.042 81.348C102.266 81.756 102.39 82.228 102.414 82.764C102.422 82.892 102.426 83.064 102.426 83.28C102.426 83.488 102.422 83.66 102.414 83.796C102.39 84.324 102.27 84.796 102.054 85.212C101.838 85.62 101.526 85.94 101.118 86.172C100.71 86.404 100.202 86.52 99.5944 86.52ZM99.5944 85.596C100.09 85.596 100.486 85.44 100.782 85.128C101.078 84.808 101.238 84.344 101.262 83.736C101.27 83.616 101.274 83.464 101.274 83.28C101.274 83.096 101.27 82.944 101.262 82.824C101.238 82.216 101.078 81.756 100.782 81.444C100.486 81.124 100.09 80.964 99.5944 80.964C99.0984 80.964 98.6984 81.124 98.3944 81.444C98.0984 81.756 97.9424 82.216 97.9264 82.824C97.9184 82.944 97.9144 83.096 97.9144 83.28C97.9144 83.464 97.9184 83.616 97.9264 83.736C97.9424 84.344 98.0984 84.808 98.3944 85.128C98.6984 85.44 99.0984 85.596 99.5944 85.596ZM104.205 86.4C104.125 86.4 104.057 86.376 104.001 86.328C103.953 86.272 103.929 86.204 103.929 86.124V80.448C103.929 80.368 103.953 80.3 104.001 80.244C104.057 80.188 104.125 80.16 104.205 80.16H104.757C104.837 80.16 104.905 80.188 104.961 80.244C105.017 80.3 105.045 80.368 105.045 80.448V80.976C105.205 80.704 105.425 80.5 105.705 80.364C105.985 80.228 106.321 80.16 106.713 80.16H107.193C107.273 80.16 107.337 80.188 107.385 80.244C107.433 80.292 107.457 80.356 107.457 80.436V80.928C107.457 81.008 107.433 81.072 107.385 81.12C107.337 81.168 107.273 81.192 107.193 81.192H106.473C106.041 81.192 105.701 81.32 105.453 81.576C105.205 81.824 105.081 82.164 105.081 82.596V86.124C105.081 86.204 105.053 86.272 104.997 86.328C104.941 86.376 104.873 86.4 104.793 86.4H104.205ZM108.776 86.4C108.696 86.4 108.628 86.376 108.572 86.328C108.524 86.272 108.5 86.204 108.5 86.124V78.156C108.5 78.076 108.524 78.012 108.572 77.964C108.628 77.908 108.696 77.88 108.776 77.88H109.34C109.42 77.88 109.484 77.908 109.532 77.964C109.588 78.012 109.616 78.076 109.616 78.156V82.332L111.98 80.364C112.076 80.284 112.148 80.232 112.196 80.208C112.252 80.176 112.34 80.16 112.46 80.16H113.096C113.168 80.16 113.228 80.184 113.276 80.232C113.324 80.28 113.348 80.34 113.348 80.412C113.348 80.444 113.336 80.48 113.312 80.52C113.296 80.56 113.26 80.6 113.204 80.64L110.432 82.944L113.504 85.932C113.6 86.012 113.648 86.084 113.648 86.148C113.648 86.22 113.624 86.28 113.576 86.328C113.528 86.376 113.468 86.4 113.396 86.4H112.772C112.652 86.4 112.564 86.388 112.508 86.364C112.452 86.332 112.38 86.276 112.292 86.196L109.616 83.64V86.124C109.616 86.204 109.588 86.272 109.532 86.328C109.484 86.376 109.42 86.4 109.34 86.4H108.776ZM114.951 86.4C114.871 86.4 114.803 86.376 114.747 86.328C114.699 86.272 114.675 86.204 114.675 86.124V80.436C114.675 80.356 114.699 80.292 114.747 80.244C114.803 80.188 114.871 80.16 114.951 80.16H115.527C115.607 80.16 115.671 80.188 115.719 80.244C115.767 80.292 115.791 80.356 115.791 80.436V86.124C115.791 86.204 115.767 86.272 115.719 86.328C115.671 86.376 115.607 86.4 115.527 86.4H114.951ZM114.855 78.996C114.775 78.996 114.707 78.972 114.651 78.924C114.603 78.868 114.579 78.8 114.579 78.72V78.072C114.579 77.992 114.603 77.928 114.651 77.88C114.707 77.824 114.775 77.796 114.855 77.796H115.611C115.691 77.796 115.755 77.824 115.803 77.88C115.859 77.928 115.887 77.992 115.887 78.072V78.72C115.887 78.8 115.859 78.868 115.803 78.924C115.755 78.972 115.691 78.996 115.611 78.996H114.855ZM117.975 86.4C117.895 86.4 117.827 86.376 117.771 86.328C117.723 86.272 117.699 86.204 117.699 86.124V80.436C117.699 80.356 117.723 80.292 117.771 80.244C117.827 80.188 117.895 80.16 117.975 80.16H118.539C118.619 80.16 118.683 80.188 118.731 80.244C118.787 80.292 118.815 80.356 118.815 80.436V80.964C119.023 80.692 119.283 80.472 119.595 80.304C119.915 80.128 120.323 80.04 120.819 80.04C121.339 80.04 121.779 80.156 122.139 80.388C122.507 80.612 122.783 80.928 122.967 81.336C123.151 81.736 123.243 82.204 123.243 82.74V86.124C123.243 86.204 123.219 86.272 123.171 86.328C123.123 86.376 123.059 86.4 122.979 86.4H122.379C122.299 86.4 122.231 86.376 122.175 86.328C122.127 86.272 122.103 86.204 122.103 86.124V82.8C122.103 82.24 121.967 81.804 121.695 81.492C121.423 81.172 121.023 81.012 120.495 81.012C119.999 81.012 119.599 81.172 119.295 81.492C118.999 81.804 118.851 82.24 118.851 82.8V86.124C118.851 86.204 118.823 86.272 118.767 86.328C118.719 86.376 118.655 86.4 118.575 86.4H117.975ZM127.532 89.04C126.988 89.04 126.54 88.968 126.188 88.824C125.844 88.68 125.572 88.504 125.372 88.296C125.18 88.096 125.04 87.892 124.952 87.684C124.872 87.484 124.828 87.324 124.82 87.204C124.812 87.124 124.836 87.056 124.892 87C124.956 86.944 125.024 86.916 125.096 86.916H125.672C125.744 86.916 125.804 86.932 125.852 86.964C125.9 86.996 125.94 87.064 125.972 87.168C126.02 87.288 126.092 87.42 126.188 87.564C126.284 87.716 126.432 87.844 126.632 87.948C126.832 88.06 127.112 88.116 127.472 88.116C127.848 88.116 128.164 88.064 128.42 87.96C128.676 87.864 128.868 87.688 128.996 87.432C129.132 87.184 129.2 86.84 129.2 86.4V85.584C129.008 85.832 128.756 86.04 128.444 86.208C128.132 86.368 127.74 86.448 127.268 86.448C126.82 86.448 126.436 86.372 126.116 86.22C125.796 86.06 125.532 85.848 125.324 85.584C125.124 85.312 124.972 85.004 124.868 84.66C124.772 84.316 124.716 83.956 124.7 83.58C124.692 83.356 124.692 83.136 124.7 82.92C124.716 82.544 124.772 82.184 124.868 81.84C124.972 81.496 125.124 81.188 125.324 80.916C125.532 80.644 125.796 80.432 126.116 80.28C126.436 80.12 126.82 80.04 127.268 80.04C127.748 80.04 128.144 80.132 128.456 80.316C128.776 80.492 129.036 80.708 129.236 80.964V80.448C129.236 80.368 129.26 80.3 129.308 80.244C129.364 80.188 129.432 80.16 129.512 80.16H130.064C130.144 80.16 130.212 80.188 130.268 80.244C130.324 80.3 130.352 80.368 130.352 80.448V86.268C130.352 86.804 130.26 87.28 130.076 87.696C129.9 88.112 129.604 88.44 129.188 88.68C128.78 88.92 128.228 89.04 127.532 89.04ZM127.508 85.488C127.908 85.488 128.228 85.396 128.468 85.212C128.716 85.028 128.896 84.796 129.008 84.516C129.128 84.236 129.192 83.952 129.2 83.664C129.208 83.552 129.212 83.416 129.212 83.256C129.212 83.088 129.208 82.948 129.2 82.836C129.192 82.548 129.128 82.264 129.008 81.984C128.896 81.704 128.716 81.472 128.468 81.288C128.228 81.104 127.908 81.012 127.508 81.012C127.108 81.012 126.788 81.104 126.548 81.288C126.308 81.464 126.136 81.7 126.032 81.996C125.928 82.284 125.868 82.596 125.852 82.932C125.844 83.14 125.844 83.352 125.852 83.568C125.868 83.904 125.928 84.22 126.032 84.516C126.136 84.804 126.308 85.04 126.548 85.224C126.788 85.4 127.108 85.488 127.508 85.488Z" fill="#4F9E1C"/>
</g>
<defs>
<clipPath id="clip0_874_954">
<rect width="159" height="130" fill="white"/>
</clipPath>
</defs>
</svg>
