<svg width="445" height="382" viewBox="0 0 445 382" fill="none" xmlns="http://www.w3.org/2000/svg">
<g clip-path="url(#clip0_730_963)">
<path d="M77.8053 276.147C77.3768 278.195 76.8906 280.144 76.3797 282.019C75.2177 286.308 73.8909 290.194 72.593 294.017C70.9572 298.855 69.3915 303.564 68.2955 308.822C67.5373 312.46 67.0058 316.358 66.8328 320.73C66.1488 338.563 64.0886 355.024 56.7832 333.762C53.6105 324.537 52.6422 319.572 53.4457 315.118C53.7918 313.206 54.4593 311.385 55.4317 309.374C57.4177 305.249 60.644 300.276 64.8426 291.924C75.8728 269.979 64.0927 259.691 57.9204 229.513C57.3971 226.962 57.0716 224.457 56.915 222.022C55.1762 195.676 72.8897 176.809 72.8897 176.809C77.9742 170.097 67.5209 215.108 65.4936 225.887C63.4664 236.67 81.3365 259.361 77.8053 276.147Z" fill="url(#paint0_linear_730_963)"/>
<path d="M72.593 294.017C70.9572 298.855 69.3915 303.564 68.2955 308.822C67.5373 312.46 67.0058 316.358 66.8328 320.73C66.1488 338.563 64.0886 355.024 56.7832 333.762C53.6105 324.537 52.6422 319.572 53.4457 315.118C57.7432 309.419 63.0297 304.199 68.2955 299.316C70.0137 297.722 71.4393 295.937 72.593 294.017Z" fill="url(#paint1_linear_730_963)"/>
<path d="M77.805 276.147C77.3765 278.195 76.8903 280.144 76.3794 282.019C77.6608 269.501 72.5475 254.812 65.0855 243.914C61.3648 238.471 58.7483 230.415 56.9106 222.022C55.1719 195.676 72.8853 176.809 72.8853 176.809C77.9699 170.097 67.5165 215.108 65.4893 225.887C63.4662 236.67 81.3362 259.361 77.805 276.147Z" fill="url(#paint2_linear_730_963)"/>
<path d="M332.098 236.369C332.098 236.369 332.024 257.63 322.881 280.263C321.529 283.622 320.475 287.919 319.663 292.81C316.28 313.202 317.104 343.911 317.805 359.272C315.39 359.535 312.736 360.05 310.359 361.01C308.385 361.797 306.601 362.902 305.303 364.43C301.673 352.733 292.073 319.531 291.331 293.98C290.416 262.43 311.369 243.23 332.098 236.369Z" fill="url(#paint3_linear_730_963)"/>
<path d="M332.098 236.369C332.098 236.369 332.024 257.63 322.881 280.263C321.529 283.622 320.475 287.919 319.663 292.81C318.637 293.366 317.541 293.787 316.387 294.017C304.133 296.494 301.846 309.51 305.048 322.201C308.249 334.904 320.137 338.558 311.451 338.558C303.359 338.558 305.579 345.967 310.363 361.01C308.39 361.797 306.605 362.902 305.307 364.43C301.677 352.733 292.077 319.531 291.335 293.98C290.416 262.43 311.369 243.23 332.098 236.369Z" fill="url(#paint4_linear_730_963)"/>
<path d="M135.416 309.069C131.848 313.012 129.207 319.267 127.25 326.28C124.25 337.018 122.87 349.515 122.231 358.159C120.303 358.233 118.008 358.452 115.721 358.954C113.15 359.511 110.591 360.438 108.589 361.925C107.2 349.296 104.382 321.797 103.871 302.551C103.187 276.835 142.277 272.719 142.277 272.719C142.277 272.719 148.449 294.664 135.416 309.069Z" fill="url(#paint5_linear_730_963)"/>
<path d="M135.416 309.069C131.848 313.012 129.207 319.267 127.25 326.28C124.691 327.78 121.926 329.251 119.24 330.421C110.039 334.447 104.81 335.205 113.261 351.966C114.452 354.336 115.247 356.676 115.721 358.954C113.15 359.511 110.591 360.438 108.589 361.925C107.2 349.296 104.382 321.797 103.871 302.551C103.187 276.835 142.277 272.719 142.277 272.719C142.277 272.719 148.449 294.664 135.416 309.069Z" fill="url(#paint6_linear_730_963)"/>
<path d="M195.771 275.463C193.859 282.76 188.775 289.728 182.1 295.381C180.419 296.815 178.626 298.162 176.76 299.415L179.438 304.574C179.912 305.48 179.731 306.584 179.055 307.437C178.837 307.701 178.581 307.94 178.268 308.142C176.986 308.966 175.367 308.801 174.539 307.759L170.744 302.967C167.023 304.879 163.126 306.387 159.232 307.384L159.652 311.883C159.726 312.744 159.306 313.577 158.601 314.125C158.218 314.425 157.74 314.636 157.221 314.739C155.721 315.023 154.275 314.252 153.912 312.975L152.623 308.575C149.578 308.884 146.586 308.851 143.743 308.393C142.52 308.2 141.374 307.981 140.295 307.763L136.508 313.268C135.75 314.364 134.139 314.64 132.804 313.898C132.631 313.807 132.466 313.696 132.318 313.568C131.329 312.773 130.929 311.484 131.395 310.425L133.405 305.814C123.842 302.237 123.792 297.511 123.792 297.421C123.792 297.421 124.34 296.687 125.284 295.426C130.863 288.01 150.249 262.451 151.42 263.831C152.792 265.438 200.802 256.258 195.771 275.463Z" fill="url(#paint7_linear_730_963)"/>
<path d="M195.771 275.463C194.473 280.42 191.713 285.22 187.98 289.563C186.224 291.611 184.238 293.568 182.1 295.381C179.273 293.243 176.236 291.43 172.454 291.009C159.607 289.576 157.823 297.87 149.054 300.4C142.763 302.221 131.716 298.15 125.964 295.707C125.725 295.608 125.506 295.505 125.288 295.414C130.867 287.997 150.253 262.439 151.424 263.819C152.792 265.438 200.802 256.258 195.771 275.463Z" fill="#E66897"/>
<path d="M195.771 275.463C194.473 280.42 191.713 285.22 187.98 289.563C183.315 285.74 175.157 280.993 164.222 282.019C146.389 283.692 162.046 286.663 146.846 291.009C137.427 293.696 132.042 291.924 125.96 295.711C125.721 295.612 125.503 295.509 125.284 295.418C130.863 288.002 150.25 262.443 151.42 263.823C152.792 265.438 200.802 256.258 195.771 275.463Z" fill="#C4596E"/>
<path d="M352.609 207.181C352.609 207.181 349.243 248.751 322.745 263.823C297.936 277.944 288.929 317.339 287.565 341.158C287.474 342.77 287.417 344.315 287.392 345.769C287.293 351.521 287.219 355.827 287.165 359.057C285.027 359.132 282.39 359.366 279.802 359.989C277.524 360.528 275.286 361.361 273.465 362.642C270.894 348.954 264.923 315.802 264.676 300.503C264.668 299.724 264.586 299.011 264.45 298.381C261.24 283.148 223.864 308.513 190.287 287.956C155.309 266.547 134.732 279.926 131.65 295.352C131.576 295.727 131.494 296.102 131.395 296.469C131.222 297.202 131.011 297.932 130.764 298.665C126.083 312.703 110.48 324.899 102.845 334.446C100.484 337.392 98.8931 341.451 97.826 345.749C96.7753 349.91 96.2066 354.307 95.9141 358.122C90.9491 358.204 82.5188 359.136 78.9341 364.15C78.4025 352.58 77.7268 322.333 84.3194 310.783C90.3269 300.276 89.816 279.518 81.876 260.605C78.9423 253.617 74.9909 246.88 69.9805 241.009C51.3976 219.224 61.6944 161.852 109.009 155.561C112.255 155.132 115.511 154.864 118.766 154.757C131.32 154.3 143.958 155.973 156.479 158.276C188.149 164.094 219.055 173.876 245.842 163.196C263.325 156.228 284.26 150.455 302.996 151.939C309.399 152.441 315.55 153.785 321.212 156.228C328.27 159.256 334.599 163.983 339.737 170.851C346.099 179.36 350.672 191.177 352.609 207.181Z" fill="url(#paint8_linear_730_963)"/>
<path d="M264.355 280.976C266.201 287.899 265.533 294.042 264.446 298.377C261.236 283.144 223.86 308.509 190.283 287.952C155.305 266.543 134.728 279.922 131.646 295.348C131.572 295.723 131.489 296.098 131.391 296.465C129.021 289.864 124.798 282.567 119.236 272.188C106.825 249.015 116.207 230.881 124.95 237.539C133.694 244.186 132.668 264.487 143.735 251.569C154.798 238.648 173.134 235.685 193.015 255.957C212.896 276.242 224.573 266.547 228.421 237.539C232.27 208.524 260.235 217.852 269.122 237.539C278.018 257.218 260.778 267.581 264.355 280.976Z" fill="url(#paint9_linear_730_963)"/>
<path d="M352.609 207.181C352.609 207.181 349.243 248.751 322.745 263.823C297.936 277.944 288.929 317.339 287.565 341.158C287.474 342.77 287.417 344.315 287.392 345.769C287.293 351.521 287.219 355.827 287.165 359.057C285.027 359.132 282.39 359.366 279.802 359.989C279.576 357.438 279.683 354.76 280.313 351.97C283.469 337.953 277.157 323.931 274.87 308.459C272.583 292.987 269.382 266.778 293.77 258.949C318.159 251.12 314.648 242.542 300.783 210.539C290.367 186.472 298.377 162.392 302.988 151.939C309.391 152.441 315.542 153.785 321.204 156.228C328.262 159.256 334.591 163.983 339.729 170.851C346.099 179.36 350.673 191.177 352.609 207.181Z" fill="url(#paint10_linear_730_963)"/>
<path d="M130.764 298.661C126.084 312.699 110.48 324.895 102.845 334.442C100.484 337.388 98.8932 341.447 97.8261 345.744C96.7836 344.356 96.0502 342.819 95.84 341.154C94.7317 332.477 92.894 326.898 105.123 323.77C112.898 321.776 118.012 313.507 120.698 307.759C122.684 303.515 126.261 300.194 130.694 298.681L130.764 298.661Z" fill="url(#paint11_linear_730_963)"/>
<path d="M132.273 280.976C132.273 280.976 119.726 278.846 123.801 248.689C127.876 218.532 119.054 254.338 129.293 266.955C139.533 279.579 132.273 280.976 132.273 280.976Z" fill="url(#paint12_linear_730_963)"/>
<path d="M233.58 285.064C233.58 285.064 205.359 292.167 193.023 280.041C180.686 267.915 156.681 268.603 142.281 272.715C127.876 276.831 158.263 248.574 178.733 259.958C199.203 271.343 213.114 286.432 230.506 274.087C247.894 261.747 250.123 277.519 233.58 285.064Z" fill="url(#paint13_linear_730_963)"/>
<path d="M262.068 288.9C262.068 288.9 255.101 273.861 259.728 261.285C264.355 248.71 262.876 243.563 251.957 235.162C241.038 226.765 238.273 260.37 246.514 272.715C254.754 285.064 262.068 288.9 262.068 288.9Z" fill="url(#paint14_linear_730_963)"/>
<path d="M352.609 207.181C352.609 207.181 349.243 248.751 322.745 263.823C297.936 277.944 288.929 317.339 287.565 341.158C286.44 337.491 285.48 333.68 284.895 329.963C282.427 314.388 291.088 294.528 291.323 293.988C290.865 294.372 276.098 306.729 281.273 288.904C286.531 270.799 294.533 267.919 314.195 261.232C333.857 254.536 336.371 229.509 324.71 209.822C313.049 190.135 321.208 156.224 321.208 156.224C328.266 159.252 334.595 163.978 339.733 170.847C346.099 179.36 350.673 191.177 352.609 207.181Z" fill="url(#paint15_linear_730_963)"/>
<path d="M131.943 248.57C130.299 253.992 122.507 252.575 113.352 248.294C107.637 245.624 101.39 241.837 95.7658 237.906C86.3631 231.322 82.9555 245.339 81.876 260.601C78.9423 253.613 74.9909 246.876 69.9805 241.005C51.3976 219.22 61.6944 161.848 109.009 155.556C112.255 155.128 115.511 154.86 118.766 154.753C122.874 164.081 121.345 177.333 117.542 188.194C110.636 207.926 121.703 213.736 130.472 237.902C132.26 242.842 132.635 246.299 131.943 248.57Z" fill="url(#paint16_linear_730_963)"/>
<path d="M131.943 248.57C130.299 253.992 122.507 252.575 113.352 248.294C114.147 238.553 119.672 233.518 124.955 237.539C128.313 240.09 130.224 244.647 131.943 248.57Z" fill="#543C31"/>
<path d="M339.737 170.847C335.979 185.095 328.134 205.924 315.917 196.591C297.965 182.875 301.397 191.507 284.248 209.822C267.103 228.137 244.915 225.796 235.434 209.822C225.953 193.847 227.123 215.537 205.961 218.409C184.799 221.28 186.859 204.136 200.238 196.591C213.608 189.047 212.928 191.47 174.176 188.198C143.232 185.59 145.499 170.666 156.484 158.276C188.153 164.094 219.06 173.876 245.846 163.196C276.736 150.884 318.373 142.309 339.737 170.847Z" fill="url(#paint17_linear_730_963)"/>
<path d="M339.737 170.847C336.453 183.295 330.054 200.769 320.343 198.767C318.934 198.474 317.463 197.77 315.917 196.591C304.158 187.601 301.57 188.214 296.366 194.844C293.725 176.562 299.403 160.093 302.996 151.939C304.578 152.066 306.152 152.24 307.706 152.47C307.743 152.478 307.78 152.487 307.825 152.487C308.575 152.606 309.317 152.726 310.058 152.87H310.095C310.808 153.006 311.521 153.162 312.234 153.327C312.345 153.344 312.46 153.373 312.572 153.401C313.268 153.566 313.96 153.739 314.64 153.933C314.648 153.933 314.648 153.933 314.657 153.933C315.341 154.127 316.02 154.324 316.696 154.547C316.816 154.584 316.935 154.621 317.055 154.658C318.456 155.124 319.836 155.635 321.179 156.212C321.187 156.22 321.208 156.22 321.216 156.228C321.225 156.228 321.224 156.236 321.233 156.236C322.082 156.603 322.914 156.986 323.738 157.406C323.791 157.435 323.849 157.46 323.903 157.489C324.294 157.691 324.698 157.901 325.094 158.111C325.102 158.103 325.102 158.111 325.102 158.111C325.485 158.321 325.881 158.54 326.264 158.77C326.338 158.807 326.412 158.853 326.482 158.898C327.24 159.347 327.982 159.813 328.724 160.307C328.798 160.361 328.88 160.418 328.95 160.472C329.309 160.719 329.663 160.966 330.021 161.214C330.388 161.477 330.755 161.753 331.109 162.038C331.183 162.091 331.258 162.157 331.328 162.211C332.819 163.373 334.245 164.642 335.617 166.051C335.671 166.096 335.728 166.15 335.774 166.208C336.808 167.267 337.805 168.391 338.765 169.59C339.086 169.998 339.416 170.419 339.737 170.847Z" fill="#543C31"/>
<path d="M339.737 170.847C336.453 183.295 330.054 200.769 320.343 198.767C315.596 179.574 321.212 156.224 321.212 156.224C321.22 156.224 321.22 156.232 321.229 156.232C321.735 156.451 322.234 156.677 322.732 156.912C323.05 157.06 323.363 157.213 323.676 157.373C323.697 157.382 323.717 157.394 323.738 157.402C323.791 157.431 323.849 157.456 323.903 157.485C324.294 157.687 324.698 157.897 325.093 158.107C325.102 158.099 325.102 158.107 325.102 158.107C325.485 158.317 325.88 158.535 326.264 158.766C326.338 158.803 326.412 158.849 326.482 158.894C326.503 158.906 326.523 158.919 326.54 158.931C327.277 159.368 328.011 159.817 328.719 160.303C329.16 160.596 329.589 160.896 330.017 161.21C330.384 161.473 330.751 161.749 331.105 162.034C331.179 162.087 331.253 162.145 331.323 162.207C332.815 163.369 334.241 164.638 335.613 166.047C335.666 166.092 335.724 166.146 335.769 166.203C336.804 167.262 337.801 168.387 338.761 169.586C339.086 169.998 339.416 170.419 339.737 170.847Z" fill="#47332A"/>
<path d="M376.989 139.153C375.811 146.442 370.129 149.615 370.129 149.615L368.291 147.538L363.116 141.675C363.116 141.675 371.044 138.824 371.687 131.522C371.934 128.687 372.09 126.961 372.173 125.898V125.869C372.321 124.225 372.321 124.225 372.321 124.225C372.321 124.225 378.18 131.864 376.989 139.153Z" fill="url(#paint18_linear_730_963)"/>
<path d="M376.99 139.153C376.944 139.417 376.899 139.677 376.833 139.92C375.407 146.669 370.129 149.615 370.129 149.615L368.292 147.538C368.914 146.413 369.664 145.272 370.587 144.127C371.254 143.302 371.786 142.445 372.214 141.568C375.753 134.382 372.169 125.902 372.169 125.902V125.873C372.317 124.229 372.317 124.229 372.317 124.229C372.317 124.229 378.18 131.864 376.99 139.153Z" fill="url(#paint19_linear_730_963)"/>
<path d="M376.833 139.92C375.407 146.669 370.129 149.615 370.129 149.615L368.292 147.538C368.914 146.413 369.664 145.272 370.587 144.127C371.254 143.303 371.786 142.445 372.214 141.568C374.147 141.329 375.675 140.67 376.833 139.92Z" fill="url(#paint20_linear_730_963)"/>
<path d="M336.911 141.675L332.885 146.228L329.894 149.611C329.894 149.611 324.224 146.438 323.033 139.149C321.88 132.046 327.421 124.617 327.706 124.233C327.714 124.225 327.714 124.225 327.714 124.225C327.714 124.225 327.714 124.225 328.344 131.522C328.975 138.819 336.911 141.675 336.911 141.675Z" fill="url(#paint21_linear_730_963)"/>
<path d="M336.91 141.675L332.885 146.228C331.476 144.992 329.984 143.475 328.814 141.782C328.117 140.768 327.532 139.697 327.149 138.58C325.11 132.627 327.598 124.588 327.705 124.233C327.714 124.225 327.714 124.225 327.714 124.225C327.714 124.225 327.714 124.225 328.344 131.522C328.538 133.764 329.415 135.581 330.54 137.027C333.095 140.307 336.91 141.675 336.91 141.675Z" fill="url(#paint22_linear_730_963)"/>
<path d="M336.91 141.675L332.885 146.228C331.476 144.992 329.984 143.475 328.814 141.782C329.72 140.163 330.24 138.453 330.54 137.027C333.095 140.307 336.91 141.675 336.91 141.675Z" fill="url(#paint23_linear_730_963)"/>
<path d="M328.002 171.663C323.696 174.415 319.168 175.787 315.044 176.389C306.72 177.625 300.029 175.738 300.029 175.738C300.029 175.738 298.958 173.826 306.502 163.785C309.345 160.019 312.93 157.073 316.304 154.86C321.908 151.209 326.923 149.582 326.923 149.582C326.923 149.582 340.99 163.369 328.002 171.663Z" fill="url(#paint24_linear_730_963)"/>
<path d="M328.003 171.663C325.069 173.538 322.032 174.774 319.086 175.557C317.714 175.923 316.35 176.195 315.044 176.389L316.305 154.864C317.903 153.822 319.461 152.944 320.858 152.223C324.36 150.422 326.919 149.59 326.919 149.59C326.919 149.59 340.99 163.369 328.003 171.663Z" fill="url(#paint25_linear_730_963)"/>
<path d="M328.002 171.663C325.069 173.538 322.032 174.774 319.086 175.557L320.862 152.219C324.364 150.418 326.923 149.586 326.923 149.586C326.923 149.586 340.99 163.369 328.002 171.663Z" fill="url(#paint26_linear_730_963)"/>
<path d="M315.419 169.961C312.749 170.81 309.803 171.304 306.675 171.28C306.675 171.28 310.38 165.264 315.967 160.653C318.867 158.268 322.267 156.265 325.926 155.68C334.78 154.258 328.167 165.973 315.419 169.961Z" fill="url(#paint27_linear_730_963)"/>
<path d="M319.646 168.268C318.34 168.919 316.923 169.492 315.423 169.961L315.971 160.653C317.351 159.512 318.859 158.449 320.45 157.6C322.188 156.677 324.026 155.981 325.926 155.68C333.738 154.423 329.51 163.406 319.646 168.268Z" fill="#E66897"/>
<path d="M319.646 168.268L320.449 157.596C322.188 156.673 324.026 155.977 325.925 155.676C333.738 154.423 329.51 163.406 319.646 168.268Z" fill="#C4596E"/>
<path d="M397.064 176.702C397.064 176.702 392.198 177.242 385.906 175.899C380.978 174.856 375.168 172.643 370.133 168.128C358.658 157.847 374.777 146.529 374.777 146.529C374.777 146.529 379.037 148.733 383.722 152.866C386.903 155.672 390.277 159.368 392.63 163.867C398.436 174.98 397.064 176.702 397.064 176.702Z" fill="url(#paint28_linear_730_963)"/>
<path d="M385.906 175.895C384.6 175.619 383.227 175.256 381.818 174.799C377.949 173.517 373.833 171.441 370.133 168.124C358.658 157.843 374.777 146.525 374.777 146.525C374.777 146.525 376.907 147.633 379.816 149.743C381.015 150.612 382.35 151.655 383.722 152.862C384.764 158.742 385.807 166.834 385.906 175.895Z" fill="url(#paint29_linear_730_963)"/>
<path d="M381.818 174.799C377.949 173.517 373.833 171.441 370.133 168.124C358.658 157.843 374.777 146.525 374.777 146.525C374.777 146.525 376.907 147.633 379.816 149.743C380.5 155.915 381.518 166.113 381.818 174.799Z" fill="url(#paint30_linear_730_963)"/>
<path d="M391.237 171.214C389.28 170.913 387.426 170.41 385.696 169.768C371.678 164.518 365.621 149.64 374.777 152.693C378.819 154.036 382.222 157.184 384.863 160.501C388.959 165.643 391.237 171.214 391.237 171.214Z" fill="url(#paint31_linear_730_963)"/>
<path d="M385.696 169.767C384.188 169.199 382.77 168.523 381.452 167.765C370.554 161.518 366.61 149.969 374.777 152.693C376.845 153.377 378.745 154.539 380.463 155.956C382.099 157.299 383.574 158.881 384.864 160.501C385.21 163.36 385.515 166.467 385.696 169.767Z" fill="#E66897"/>
<path d="M381.452 167.765C370.554 161.518 366.61 149.969 374.777 152.693C376.845 153.377 378.745 154.539 380.463 155.956C380.821 159.574 381.18 163.669 381.452 167.765Z" fill="#C4596E"/>
<path d="M375.345 189.933C374.369 194.14 374.039 199.616 373.125 205.022C369.96 198.211 364.006 194.733 357.442 193.938C353.219 193.414 348.744 194.02 344.603 195.557C344.55 195.574 344.492 195.602 344.439 195.631C337.891 198.108 334.142 203.159 332.102 207.181C330.199 202.545 328.48 197.205 326.717 191.334C325.711 187.976 324.813 184.321 324.129 180.542C320.207 158.853 323.26 133.447 351.69 141.036C351.69 141.036 368.946 133.545 374.113 144.757C374.369 145.297 374.587 145.89 374.781 146.521C378.893 160.241 379.35 172.788 375.345 189.933Z" fill="url(#paint32_linear_730_963)"/>
<path d="M344.434 195.631C337.887 198.107 334.137 203.159 332.098 207.18C330.194 202.545 328.476 197.205 326.713 191.333C325.707 187.975 324.809 184.321 324.125 180.542C325.608 178.944 327.013 177.662 326.082 171.679C324.026 158.428 330.656 152.697 330.965 166.834C331.286 180.979 334.084 183.101 339.733 184.127C343.577 184.819 344.335 191.441 344.434 195.631Z" fill="url(#paint33_linear_730_963)"/>
<path d="M375.345 189.933C374.369 194.139 374.039 199.615 373.125 205.021C369.96 198.21 364.006 194.733 357.442 193.938C357.323 192.648 357.261 191.461 357.249 190.419C357.203 182.537 357.842 184.119 366.009 182.409C374.183 180.699 364.488 179.669 364.488 171.683C364.488 163.336 354.538 166.751 357.245 158.869C359.943 150.987 361.056 149.953 368.291 149.586C371.53 149.421 372.964 146.467 374.109 144.757C374.365 145.297 374.583 145.89 374.777 146.52C378.893 160.241 379.35 172.788 375.345 189.933Z" fill="url(#paint34_linear_730_963)"/>
<path d="M373.121 205.021C371.575 214.23 368.337 223.238 357.311 225.397C354.731 225.899 352.399 226.011 350.269 225.755C345.605 225.199 341.921 222.904 338.856 219.208C336.26 216.118 334.08 212.03 332.098 207.185C334.154 203.126 337.949 198.029 344.599 195.561C348.74 194.024 353.215 193.423 357.438 193.942C364.006 194.733 369.96 198.21 373.121 205.021Z" fill="url(#paint35_linear_730_963)"/>
<path d="M373.12 205.021C371.575 214.23 368.337 223.237 357.311 225.397C354.731 225.899 352.399 226.011 350.269 225.755C345.605 225.199 341.921 222.904 338.855 219.208C343.582 221.227 350.442 223.167 355.114 220.139C362.885 215.108 362.943 208.874 359.944 202.162C356.944 195.45 357.438 193.942 357.438 193.942C364.006 194.733 369.96 198.21 373.12 205.021Z" fill="#E66897"/>
<path d="M339.115 177.122C340.915 177.122 342.374 174.687 342.374 171.684C342.374 168.68 340.915 166.245 339.115 166.245C337.315 166.245 335.855 168.68 335.855 171.684C335.855 174.687 337.315 177.122 339.115 177.122Z" fill="url(#paint36_linear_730_963)"/>
<path d="M365.634 177.122C367.434 177.122 368.893 174.687 368.893 171.684C368.893 168.68 367.434 166.245 365.634 166.245C363.834 166.245 362.375 168.68 362.375 171.684C362.375 174.687 363.834 177.122 365.634 177.122Z" fill="url(#paint37_linear_730_963)"/>
<path d="M95.6383 368.736H79.1774C79.1774 368.736 79.0579 367.018 78.9302 364.146C81.2458 360.907 85.5763 359.371 89.6926 358.67C91.9505 358.287 94.1467 358.159 95.9102 358.122C95.4446 364.146 95.6383 368.736 95.6383 368.736Z" fill="url(#paint38_linear_730_963)"/>
<path d="M95.6381 368.736H89.6924V358.666C91.9503 358.283 94.1465 358.155 95.91 358.118C95.4444 364.146 95.6381 368.736 95.6381 368.736Z" fill="#543C31"/>
<path d="M122.231 358.159C121.765 364.48 121.699 368.74 121.699 368.74H109.355C109.355 368.74 109.054 366.182 108.588 361.929C110.546 360.475 113.022 359.56 115.531 358.996C117.876 358.46 120.245 358.242 122.231 358.159Z" fill="url(#paint39_linear_730_963)"/>
<path d="M122.231 358.159C121.766 364.48 121.7 368.74 121.7 368.74H115.461L115.527 358.992C117.876 358.46 120.245 358.242 122.231 358.159Z" fill="#543C31"/>
<path d="M287.161 359.053C286.988 368.736 286.988 368.736 286.988 368.736H274.643C274.643 368.736 274.186 366.441 273.465 362.638C275.331 361.332 277.635 360.487 279.967 359.951C282.497 359.354 285.068 359.127 287.161 359.053Z" fill="url(#paint40_linear_730_963)"/>
<path d="M287.161 359.053C286.988 368.736 286.988 368.736 286.988 368.736H280.14L279.967 359.947C282.497 359.354 285.068 359.127 287.161 359.053Z" fill="#543C31"/>
<path d="M318.328 368.736H306.679C306.679 368.736 306.156 367.17 305.307 364.43C306.605 362.902 308.389 361.797 310.363 361.01C310.363 361.01 310.363 361.01 310.371 361.002C312.749 360.05 315.39 359.539 317.804 359.276C318.072 365.114 318.328 368.736 318.328 368.736Z" fill="url(#paint41_linear_730_963)"/>
<path d="M318.327 368.736H312.291L310.363 361.01C310.363 361.01 310.363 361.01 310.371 361.002C312.748 360.05 315.39 359.539 317.804 359.276C318.072 365.114 318.327 368.736 318.327 368.736Z" fill="#543C31"/>
<path d="M361.299 205.277C360.438 206.567 359.132 207.209 358.386 206.707C357.636 206.208 357.731 204.758 358.592 203.468C359.453 202.178 360.759 201.536 361.505 202.038C362.255 202.533 362.16 203.987 361.299 205.277Z" fill="url(#paint42_linear_730_963)"/>
<path d="M347.619 205.277C348.48 206.567 349.786 207.209 350.532 206.707C351.282 206.208 351.187 204.758 350.326 203.468C349.465 202.178 348.159 201.536 347.413 202.038C346.663 202.533 346.758 203.987 347.619 205.277Z" fill="url(#paint43_linear_730_963)"/>
<path d="M368.168 149.594C368.234 151.44 367.904 153.509 367.043 155.557C363.879 163.109 361.621 156.698 356.829 161.84C356.454 162.223 356.079 162.672 355.696 163.192C350.092 170.728 342.547 160.237 348.489 158.939C354.435 157.641 352.148 152.775 354.233 146.521C356.318 140.266 359.948 145.379 359.948 145.379C364.216 140.653 367.966 144.147 368.168 149.594Z" fill="url(#paint44_linear_730_963)"/>
<path d="M368.167 149.594C368.233 151.44 367.904 153.509 367.043 155.556C363.878 163.109 361.62 156.698 356.828 161.84C356.709 161.074 356.82 160.114 357.248 158.869C359.927 151.032 361.052 149.961 368.167 149.594Z" fill="#543C31"/>
<path d="M270.301 243.914C270.301 243.914 270.235 265.175 260.782 267.581C259.822 267.828 258.982 268.113 258.24 268.422C253.477 270.432 252.772 273.77 249.48 276.86C248.257 278.014 246.674 279.139 244.396 280.144C235.03 284.269 227.515 272.225 240.617 263.016C241.367 262.484 241.998 261.957 242.509 261.425C246.341 257.511 244.437 253.423 241.788 249.509C238.45 244.589 233.922 239.97 238.03 236.369C240.251 234.42 242.476 235.051 244.688 236.744C250.275 240.98 255.772 251.87 260.782 244.828C260.82 244.775 260.857 244.717 260.902 244.672C267.812 235.034 270.704 238.071 270.301 243.914Z" fill="url(#paint45_linear_730_963)"/>
<path d="M259.728 261.289C258.867 263.621 258.409 266.036 258.236 268.422C253.473 270.432 252.768 273.77 249.476 276.86C248.508 275.599 247.519 274.219 246.514 272.719C244.594 269.839 243.267 265.813 242.509 261.425C246.341 257.511 244.437 253.423 241.788 249.509C242.027 244.305 243.011 239.616 244.688 236.744C250.276 240.98 255.772 251.87 260.782 244.828C260.82 244.775 260.857 244.717 260.902 244.672C263.057 249.089 262.443 253.918 259.728 261.289Z" fill="#47332A"/>
<path d="M68.2953 308.822C67.5372 312.46 67.0057 316.358 66.8326 320.73C66.1486 338.563 64.0884 355.023 56.783 333.762C52.2547 320.585 52.2012 316.102 55.4316 309.374C58.1304 320.458 61.3196 329.976 61.266 325.806C61.2083 321.706 65.1021 311.941 68.2953 308.822Z" fill="url(#paint46_linear_730_963)"/>
<path d="M179.055 307.433C176.871 304.5 173.596 302.019 173.596 302.019L176.76 299.411L179.438 304.57C179.916 305.476 179.731 306.58 179.055 307.433Z" fill="#C4596E"/>
<path d="M159.648 311.875C159.722 312.736 159.302 313.568 158.597 314.116C158.424 310.466 155.989 308.455 155.989 308.455L159.228 307.375L159.648 311.875Z" fill="#C4596E"/>
<path d="M140.291 307.75L136.504 313.255C135.746 314.351 134.135 314.627 132.8 313.886C132.627 313.795 132.462 313.684 132.313 313.556C134.234 310.466 136.829 307.375 136.829 307.375L140.291 307.75Z" fill="#C4596E"/>
<path d="M177.287 172.104V181.391H194.514L196.95 172.104H177.287Z" fill="url(#paint47_linear_730_963)"/>
<path d="M177.287 172.104V181.391H187.374C187.028 178.387 187.893 174.572 187.893 174.572C187.44 173.632 186.962 172.812 186.447 172.104H177.287Z" fill="url(#paint48_linear_730_963)"/>
<path d="M182.058 176.752C183.711 177.073 185.351 177.147 186.574 177.057C190.604 176.752 199.883 172.409 199.883 172.409L202.425 123.397L203.488 102.758C203.488 102.758 188.124 108.016 184.716 128.144C181.309 148.272 177.592 164.057 175.742 169.932C174.44 174.036 178.259 176.026 182.058 176.752Z" fill="url(#paint49_linear_730_963)"/>
<path d="M182.059 176.752C183.711 177.073 185.351 177.147 186.575 177.057C188.408 176.917 191.329 175.944 193.962 174.926C197.123 173.694 199.883 172.409 199.883 172.409L202.426 123.397C201.766 119.392 200.79 114.786 199.578 112.045C199.043 110.838 198.54 110.303 198.099 110.286C196.505 110.245 195.705 117.122 196.95 124.32C198.544 133.508 196.274 132.062 192.969 125.873C189.665 119.685 187.188 125.84 190.905 138.861C194.622 151.881 192.302 164.675 186.233 163.439C180.171 162.199 175.915 166.949 184.951 167.773C193.987 168.593 188.82 176.818 182.059 176.752Z" fill="url(#paint50_linear_730_963)"/>
<path d="M193.962 174.926C197.122 173.694 199.883 172.409 199.883 172.409L202.425 123.397C201.766 119.392 200.79 114.785 199.578 112.045C199.042 110.838 198.54 110.302 198.099 110.286C198.148 113.372 198.544 119.458 200.435 128.35C203.291 141.766 198.132 137.851 194.514 132.379C190.905 126.907 191.527 131.786 195.862 143.69C200.196 155.593 197.555 161.786 192.161 164.263C186.78 166.739 191.873 167.58 194.514 167.773C195.804 167.86 195.079 171.321 193.962 174.926Z" fill="#A13850"/>
<g opacity="0.36">
<path d="M198.272 105.605H203.34L203.472 103.129H202.582C201.655 103.541 200.106 104.324 198.272 105.605Z" fill="white"/>
<path d="M175.495 171.651H178.432V175.565C179.191 175.952 180.035 176.257 180.909 176.488V171.651H194.943V174.539C195.849 174.177 196.694 173.822 197.419 173.509V171.651H199.92L200.044 169.174H197.419V155.14H200.777L200.901 152.664H197.415V138.63H201.626L201.758 136.154H197.415V122.12H202.483L202.607 119.643H197.415V106.223C196.624 106.825 195.787 107.521 194.939 108.304V119.639H187.131C186.809 120.43 186.504 121.259 186.216 122.116H194.943V136.15H183.303C183.146 136.982 182.998 137.81 182.841 138.626H194.943V152.66H180.909V148.432C180.035 152.66 179.199 156.438 178.432 159.685V169.17H175.973C175.89 169.434 175.816 169.689 175.742 169.928C175.544 170.551 175.478 171.119 175.495 171.651ZM180.909 155.14H194.943V169.174H180.909V155.14Z" fill="white"/>
</g>
<path d="M256.374 165.581L258.669 178.297L264 176.859L273.572 174.275V163.435L256.374 165.581Z" fill="url(#paint51_linear_730_963)"/>
<path d="M256.374 165.581L258.669 178.297L264 176.859C264.396 174.251 265.129 172.244 266.444 172.104C268.599 171.873 271.446 170.279 273.568 168.878V163.439L256.374 165.581Z" fill="url(#paint52_linear_730_963)"/>
<path d="M256.233 169.323C256.233 169.323 259.868 170.818 267.989 169.323C272.406 168.507 274.973 167.25 276.011 165.169C276.951 163.295 276.637 160.736 275.319 157.213C274.989 156.331 274.66 155.313 274.347 154.209C271.977 146.018 269.938 132.359 268.302 122.268C266.444 110.809 258.669 105.239 258.669 105.239L258.611 106.825L258.43 111.555L256.233 169.323Z" fill="url(#paint53_linear_730_963)"/>
<path d="M258.611 106.821C260.552 108.25 264.828 112.194 266.394 120.097C268.459 130.463 269.855 144.085 272.332 151.209C272.884 152.812 273.588 153.735 274.347 154.205C271.977 146.014 269.938 132.355 268.302 122.264C266.444 110.805 258.669 105.234 258.669 105.234L258.611 106.821Z" fill="#FFB3C5"/>
<path d="M256.233 169.323C256.233 169.323 259.868 170.818 267.989 169.323C271.483 168.68 273.819 167.753 275.154 166.368C275.508 166.006 275.797 165.61 276.011 165.169C264.725 167.11 260.383 165.079 264.964 161.992C269.546 158.906 274.375 154.333 266.394 156.834C258.405 159.335 262.917 146.796 263.349 138.053C263.547 134.081 263.992 129.029 264.223 125.049C264.495 120.27 264.47 117.035 263.349 119.062C261.54 122.313 261.318 129.371 260.931 126.351C260.881 125.923 260.823 125.296 260.758 124.427C260.222 117.41 261.516 107.917 258.833 111.019C258.685 111.192 258.553 111.365 258.43 111.547L256.802 154.337L256.398 164.938L256.233 169.323Z" fill="url(#paint54_linear_730_963)"/>
<path d="M256.233 169.323C256.233 169.323 259.868 170.818 267.989 169.323C271.483 168.68 273.819 167.753 275.154 166.368C272.917 167.11 266.839 168.927 263.349 167.93C260.964 167.246 258.306 165.956 256.398 164.943L256.233 169.323Z" fill="#A13850"/>
<path d="M256.802 154.337C258.133 151.844 261.928 142.664 263.35 138.049C263.547 134.077 263.992 129.025 264.223 125.045C264.223 125.062 264.215 125.07 264.215 125.086C262.019 134.481 257.981 140.319 260.045 131.65C260.424 130.055 260.712 128.251 260.927 126.351C260.877 125.923 260.82 125.296 260.754 124.427C260.218 117.41 261.512 107.917 258.829 111.019C258.681 111.192 258.549 111.365 258.426 111.547L256.802 154.337Z" fill="#A13850"/>
<g opacity="0.36">
<path d="M258.652 105.605H259.138C258.85 105.366 258.668 105.234 258.668 105.234L258.652 105.605Z" fill="white"/>
<path d="M256.233 169.323C256.233 169.323 259.868 170.818 267.989 169.323C268.236 169.273 268.459 169.224 268.698 169.174H266.765V155.14H274.614C274.524 154.835 274.433 154.53 274.342 154.209C274.202 153.715 274.054 153.204 273.914 152.664H266.765V138.63H270.993C270.844 137.806 270.704 136.978 270.564 136.154H266.765V122.12H268.269C268.129 121.263 267.948 120.434 267.742 119.643H266.769V116.574C266.044 114.682 265.183 113.03 264.293 111.621V119.643H258.125L258.026 122.12H264.293V136.154H257.498L257.399 138.63H264.293V152.664H256.872L256.773 155.14H264.293V169.174H256.246L256.233 169.323Z" fill="white"/>
</g>
<path d="M261.779 213.588L264.968 225.97L264.688 227.111L263.539 231.825L264.729 233.633L267.008 237.099L267.989 238.603L273.572 239.056L276.65 234.647L278.121 232.525L280.205 229.538L276.559 223.18L276.551 223.073L274.058 182.207L273.572 174.3V174.275L270.481 175.108L260.757 177.732L261.779 213.588Z" fill="url(#paint55_linear_730_963)"/>
<path d="M270.481 175.108L275.574 222.719L276.551 223.073L274.058 182.207L273.572 174.3L270.481 175.108Z" fill="#FFEEE8"/>
<path d="M264.738 225.08L264.968 225.97L263.539 231.825L267.008 237.099L270.486 235.875L271.384 231.458C271.384 231.458 269.748 227.461 269.748 224.754C269.748 222.055 272.636 221.013 268.891 221.709C265.141 222.401 265.43 184.898 265.43 184.898L274.058 182.207L273.811 178.235L273.572 174.271L260.757 177.732L261.779 213.588L264.738 225.08Z" fill="#EFAB97"/>
<path d="M263.539 231.825L264.14 232.739L264.725 233.629C265.508 233.011 266.542 232.439 267.276 232.888C268.631 233.712 268.298 236.934 268.298 236.934C268.298 236.934 269.394 236.258 269.744 236.135C270.09 236.019 272.632 238.042 272.632 238.042L271.376 235.261C271.376 235.261 273.044 230.737 274.05 231.437C274.775 231.948 276.007 233.699 276.641 234.647L278.112 232.525C277.338 231.767 276.073 230.593 274.429 229.258C271.606 226.954 268.998 226.724 265.314 227.045C265.092 227.053 264.878 227.078 264.68 227.111L263.539 231.825Z" fill="url(#paint56_linear_730_963)"/>
<path d="M263.539 231.825L264.14 232.739C264.766 232.237 265.792 231.532 266.674 231.384C268.071 231.153 269.744 233.555 269.744 233.555L270.477 227.461C270.477 227.461 267.408 226.901 265.319 227.041C265.096 227.049 264.882 227.074 264.684 227.107L264.025 229.839C264.321 229.583 264.684 229.352 265.096 229.171C266.386 228.611 268.092 230.494 268.322 230.766C268.149 230.609 267.416 229.974 266.332 229.785C265.1 229.587 263.539 231.825 263.539 231.825Z" fill="#DB8173"/>
<path d="M260.757 177.732L261.779 213.588L264.733 225.08L266.649 223.287C266.649 223.287 266.649 223.287 264.223 213.794C261.796 204.301 262.727 181.391 262.727 181.391L273.807 178.239L273.568 174.275L260.757 177.732Z" fill="url(#paint57_linear_730_963)"/>
<path d="M269.748 227.931C269.748 227.931 260.304 224.577 258.911 234.173C257.519 243.769 258.911 251.046 258.911 251.046" stroke="#47332A" stroke-width="2" stroke-miterlimit="10" stroke-linecap="round" stroke-linejoin="round"/>
<path d="M247.251 252.595L247.292 252.908C247.482 253.683 248.38 254.421 249.834 255.072C253.535 256.724 260.832 257.853 269.225 257.853C277.63 257.853 284.928 256.724 288.624 255.072C290.078 254.421 290.976 253.683 291.166 252.908L291.207 252.595C291.207 249.69 281.368 247.338 269.221 247.338C257.09 247.338 247.251 249.69 247.251 252.595Z" fill="url(#paint58_linear_730_963)"/>
<path d="M249.834 255.072C253.535 256.724 260.832 257.853 269.225 257.853C277.63 257.853 284.928 256.724 288.624 255.072C284.924 253.411 277.626 252.29 269.225 252.29C260.832 252.29 253.535 253.411 249.834 255.072Z" fill="url(#paint59_linear_730_963)"/>
<path d="M247.292 252.908L253.196 300.816C253.658 304.574 256.847 307.388 260.634 307.388H277.828C281.619 307.388 284.804 304.574 285.265 300.816L291.17 252.908C290.494 255.665 280.935 257.853 269.225 257.853C257.531 257.853 247.968 255.665 247.292 252.908Z" fill="url(#paint60_linear_730_963)"/>
<path d="M249.34 255.838L254.606 298.591C255.018 301.945 257.861 304.454 261.244 304.454H276.592C279.975 304.454 282.818 301.941 283.23 298.591L283.325 297.825H272.294C268.912 297.825 266.069 295.311 265.656 291.961L261.709 259.926C254.787 259.27 249.797 257.701 249.34 255.838Z" fill="url(#paint61_linear_730_963)"/>
<path d="M249.34 255.838L254.606 298.591C255.018 301.945 257.861 304.454 261.244 304.454H276.592C278.632 304.454 280.473 303.54 281.697 302.081C281.24 302.192 280.762 302.242 280.276 302.242H264.927C261.544 302.242 258.701 299.728 258.289 296.378L253.617 258.496C251.153 257.762 249.583 256.839 249.34 255.838Z" fill="url(#paint62_linear_730_963)"/>
<path d="M279.963 264.668C279.963 264.668 282.357 255.504 282.723 244.07C283.09 232.636 272.019 228.656 272.019 228.656" stroke="#47332A" stroke-width="2" stroke-miterlimit="10" stroke-linecap="round" stroke-linejoin="round"/>
<path d="M268.924 232.162C268.677 237.403 272.113 232.385 272.315 231.656C273.024 229.089 273.399 227.77 273.506 225.747C273.555 224.923 272.88 224.235 272.051 224.268C271.936 224.276 271.821 224.276 271.713 224.284C267.783 224.544 269.196 226.414 268.924 232.162Z" fill="#EFAB97"/>
<path d="M190.081 354.138H213.064L231.565 219.158L242.793 354.138H265.826L260.593 172.252V172.211L260.288 161.436L258.669 105.234L256.893 104.402L255.97 103.973L254.68 103.372V126.289L233.423 138.053L210.102 128.461L207.733 100.797L204.432 102.325L203.493 102.762C203.493 102.762 196.484 153.327 196.484 190.476C196.484 227.626 190.081 354.138 190.081 354.138Z" fill="url(#paint63_linear_730_963)"/>
<path d="M256.893 104.402C257.165 115.416 258.022 146.726 259.139 156.834C259.361 158.848 259.765 160.344 260.284 161.44L258.665 105.238L256.893 104.402Z" fill="#B0C5F4"/>
<path d="M211.082 354.138H213.064L231.565 219.158L230.551 216.361C230.551 216.361 214.708 330.709 210.769 344.438C209.509 348.847 209.879 351.95 211.082 354.138Z" fill="#B0C5F4"/>
<path d="M259.678 261.265C261.767 301.137 260.387 341.517 259.86 354.138H265.83L260.597 172.252C259.695 185.569 257.664 222.776 259.678 261.265Z" fill="#B0C5F4"/>
<path d="M233.423 138.049L256.374 127.299L255.97 103.969L254.68 103.368V126.285L233.423 138.049Z" fill="url(#paint64_linear_730_963)"/>
<path d="M220.395 186.5C233.485 195.001 250.457 195.067 243.576 191.053C243.304 190.893 242.995 190.724 242.649 190.551C237.111 187.819 230.098 183.567 229.352 182.059C228.85 181.07 231.025 181.247 238.009 183.777C249.781 188.029 256.365 186.282 251.635 181.84C249.262 179.623 244.021 176.714 235.141 173.546C218.479 167.608 213.625 160.62 212.327 156.244C212.001 155.148 210.802 154.757 209.941 155.185C209.612 155.346 209.331 155.626 209.167 156.034C205.846 164.217 209.092 179.166 220.395 186.5Z" fill="url(#paint65_linear_730_963)"/>
<path d="M190.081 354.138H201.861C201.062 334.438 200.757 301.096 207.931 301.764C218.1 302.703 223.337 279.217 210.769 284.17C198.215 289.122 210.102 265.595 203.703 246.716C197.304 227.836 202.051 185.104 202.615 162.153C203.044 144.551 204.004 115.09 204.432 102.317L203.493 102.754C203.493 102.754 196.484 153.319 196.484 190.468C196.484 207.333 195.161 242.603 193.719 276.102C191.989 316.407 190.081 354.138 190.081 354.138Z" fill="url(#paint66_linear_730_963)"/>
<path d="M190.081 354.138H195.116C196.307 336.057 199.204 299.806 203.489 296.819C209.216 292.831 210.514 289.538 199.36 287.812C196.447 287.359 194.696 282.719 193.715 276.106C191.989 316.407 190.081 354.138 190.081 354.138Z" fill="#476499"/>
<path d="M221.899 219.43L229.237 236.138L230.807 224.671L231.565 219.158L232.397 229.097C232.414 229.278 232.422 229.459 232.438 229.641C232.455 229.847 232.471 230.061 232.488 230.283C232.537 230.86 232.579 231.338 232.612 231.73C232.636 232.01 232.653 232.241 232.669 232.43L232.702 232.826C232.71 232.933 232.719 233.007 232.719 233.04C232.719 233.056 232.719 233.056 232.719 233.056L233.918 247.404L242.793 354.129H257.082C253.3 338.031 246.126 303.548 253.193 300.808C262.439 297.223 258.393 284.99 249.835 284.165C241.273 283.341 250.14 266.415 243.535 257.849C238.228 250.964 237.325 226.55 237.169 217.23C240.609 215.743 245.142 213.233 249.336 209.175C253.671 204.98 252.175 203.402 248.685 203.81C245.541 204.156 240.77 206.105 237.144 209.175C229.501 215.648 226.41 207.926 218.256 203.744C216.793 202.994 215.969 203.019 215.615 203.563C213.959 206.052 221.899 219.43 221.899 219.43Z" fill="url(#paint67_linear_730_963)"/>
<path d="M233.917 247.412L242.793 354.138H248.887C247.259 342.778 241.96 304.528 243.539 300.585C245.397 295.937 253.444 291.603 247.255 291.916C241.062 292.221 241.375 291.916 239.447 280.144C238.227 272.748 235.652 257.614 233.917 247.412Z" fill="#476499"/>
<path d="M215.615 203.567C217.399 205.639 220.238 208.289 223.724 211.317C227.172 214.321 229.418 219.912 230.807 224.676L231.565 219.163L232.397 229.101C231.754 219.764 233.563 219.682 237.168 217.238C240.926 214.704 245.599 209.875 236.929 214.004C228.252 218.132 233.419 213.592 242.5 209.183C246.637 207.168 248.203 205.277 248.685 203.818C245.541 204.164 240.77 206.113 237.144 209.183C229.5 215.656 226.41 207.935 218.256 203.752C216.797 202.994 215.973 203.019 215.615 203.567Z" fill="#476499"/>
<path d="M252.966 140.946C252.966 140.946 243.766 145.672 237.865 156.446C231.965 167.221 232.875 174.679 243.469 163.628C254.062 152.577 252.966 140.946 252.966 140.946Z" fill="url(#paint68_linear_730_963)"/>
<path d="M207.732 100.793L210.102 128.457L233.423 138.049L254.68 126.285V103.368L252.991 102.577L244.981 98.8355L244.107 98.8025L241.4 98.6871L238.771 98.58L232.418 98.3246H232.393L214.618 97.5994L207.732 100.793Z" fill="url(#paint69_linear_730_963)"/>
<path d="M244.107 98.8025C246.888 100.718 252.154 104.666 254.684 108.568V103.368L252.99 102.577L244.985 98.8355L244.107 98.8025Z" fill="#FFB3C5"/>
<path d="M207.732 100.793L210.102 128.457L233.423 138.049L237.148 135.985L252.842 127.299L254.684 126.285V103.368L253.254 102.7L252.991 102.577C253.279 105.564 253.205 109.923 251.895 115.762C249.113 128.152 238.273 131.547 235.697 129.137C233.122 126.726 234.56 121.642 233.427 113.904C233.345 113.352 233.345 112.791 233.386 112.21L236.184 112.144L240.073 112.045L239.035 101.279C239.859 100.315 240.679 99.4288 241.404 98.6871L238.779 98.58L237.617 98.5306L230.518 98.2421L228.371 98.1515L214.626 97.5994L207.732 100.793Z" fill="url(#paint70_linear_730_963)"/>
<path d="M252.842 127.299L254.684 126.285V103.368L253.254 102.7C253.493 108.584 253.716 119.062 252.842 127.299Z" fill="#A13850"/>
<path d="M228.363 98.1516V104.369L236.18 112.144L240.069 112.045L239.031 101.279C239.855 100.315 240.675 99.4289 241.4 98.6873L238.775 98.5801L237.614 98.5307L230.514 98.2423L228.363 98.1516Z" fill="#A13850"/>
<path d="M207.732 100.793L210.102 128.457L233.423 138.049L237.148 135.985C235.446 135.746 233.773 135.515 232.393 135.367C227.481 134.831 216.089 125.873 212.784 116.38C209.484 106.887 214.848 103.582 217.325 110.418C219.801 117.245 227.024 117.822 227.024 117.822L232.389 105.234C232.521 102.717 231.771 100.372 230.506 98.2421L214.613 97.5994L207.732 100.793Z" fill="#A13850"/>
<g opacity="0.36">
<path d="M213.105 105.605V119.639H209.347L209.553 122.116H213.105V129.693L215.582 130.707V122.111H229.615V136.145H228.808L233.423 138.045L236.855 136.145H232.092V122.111H246.126V131.011L248.602 129.639V122.111H254.68V119.635H248.602V105.605H254.68V103.368L254.169 103.129H248.606V100.529L246.13 99.3711V103.129H232.096V98.3163L229.62 98.2092V103.129H215.586V97.6406L214.621 97.5994L213.109 98.2998V103.129H207.934L208.148 105.605H213.105ZM232.096 105.605H246.13V119.639H232.096V105.605ZM215.582 105.605H229.615V119.639H215.582V105.605Z" fill="white"/>
</g>
<path d="M220.786 96.1036L232.393 105.234L233.782 103.665L237.836 99.0909L240.074 96.5651V89.441C240.074 89.441 220.217 74.8302 222.282 81.0519L220.786 96.1036Z" fill="url(#paint71_linear_730_963)"/>
<path d="M237.832 99.0908L240.069 96.565V89.7046L238.681 90.2155L237.832 99.0908Z" fill="#FFEEE8"/>
<path d="M220.786 96.1036L223.411 98.1679L232.393 105.234L233.782 103.665L226.377 96.5651V89.9025C226.377 89.9025 230.234 94.5503 234.186 96.1036C236.415 96.9771 238.594 95.8234 240.074 94.6491V89.441C240.074 89.441 220.217 74.8302 222.282 81.0519L220.786 96.1036Z" fill="#EFAB97"/>
<path d="M220.786 96.1037L223.411 98.168C223.551 97.3851 223.6 96.4168 223.501 95.2219C222.974 88.5181 224.235 84.5955 226.373 87.9494C228.512 91.2993 234.664 95.0241 238.17 93.5696C238.879 93.2812 239.509 92.9433 240.069 92.5725V89.4451C240.069 89.4451 220.213 74.8343 222.278 81.0561L220.786 96.1037Z" fill="url(#paint72_linear_730_963)"/>
<path d="M213.819 65.9138C213.975 73.8126 217.218 77.216 217.218 77.216C217.218 77.216 218.623 77.4962 220.593 77.7434C223.003 78.0483 226.27 78.3038 228.833 77.933C231.441 77.5456 237.536 75.3577 242.529 72.8731H242.538C245.665 71.3115 248.368 69.6469 249.505 68.2254C249.777 67.8875 249.967 67.5661 250.041 67.2612C250.387 65.9056 250.519 64.3151 250.362 62.5722C250.181 60.4585 249.579 58.1222 248.438 55.7365C248.018 54.8548 247.523 53.9606 246.942 53.0706C246.267 52.0241 245.298 51.1052 244.136 50.3224C239.48 47.2032 231.746 46.3503 227.28 48.5794C221.709 51.3689 213.662 58.0192 213.819 65.9138Z" fill="url(#paint73_linear_730_963)"/>
<path d="M243.419 51.1092C243.419 51.1092 248.842 54.8258 249.439 67.257C249.456 67.5866 249.48 67.9162 249.505 68.2211C249.777 67.8833 249.967 67.5619 250.041 67.257C250.387 65.9014 250.519 64.3109 250.362 62.568C250.181 60.4542 249.579 58.118 248.438 55.7323C248.018 54.8505 247.523 53.9564 246.942 53.0664C246.267 52.0198 245.298 51.101 244.136 50.3181L243.419 51.1092Z" fill="#AFA19D"/>
<path d="M213.819 65.9137C213.975 73.8124 217.218 77.2158 217.218 77.2158C217.218 77.2158 217.531 77.2818 218.075 77.3724C218.668 77.4713 219.554 77.6114 220.593 77.7432C219.686 73.969 218.94 69.2306 220.782 68.8597C223.876 68.2417 224.499 64.6817 224.499 64.6817L230.201 62.0488L230.424 75.0691L242.525 72.873H242.534C246.415 70.9405 249.633 68.835 250.037 67.261C250.383 65.9054 250.515 64.315 250.358 62.572C249.996 62.4814 249.583 62.4567 249.101 62.5144C243.844 63.1324 236.876 59.1151 242.908 57.9407C244.841 57.5699 246.74 56.717 248.43 55.7364C248.216 55.2831 247.977 54.8216 247.721 54.356C247.474 53.9275 247.218 53.499 246.938 53.0664C243.531 47.8088 232.847 45.7939 227.272 48.5752C221.709 51.3688 213.662 58.019 213.819 65.9137Z" fill="#543C31"/>
<path d="M213.819 65.9137C213.975 73.8124 217.218 77.2158 217.218 77.2158C217.218 77.2158 217.531 77.2818 218.075 77.3724C217.482 76.058 215.648 71.5339 217.218 68.39C219.084 64.6734 231.565 60.6066 235.694 59.4735C239.369 58.4599 243.934 55.5262 247.729 54.356C247.482 53.9275 247.227 53.499 246.946 53.0664C243.539 47.8088 232.855 45.7939 227.28 48.5752C221.709 51.3688 213.662 58.019 213.819 65.9137Z" fill="#47332A"/>
<path d="M223.464 80.3062C223.464 81.4187 222.562 82.3293 221.449 82.4035C219.48 82.5353 216.295 82.2345 215.05 79.2308C213.192 74.7437 217.683 71.6452 220.778 74.5871C222.846 76.5443 223.464 78.7116 223.464 80.3062Z" fill="url(#paint74_linear_730_963)"/>
<path d="M217.605 79.7747C218.821 80.7636 220.609 80.5988 221.899 80.2938C222.83 80.0713 223.501 79.7747 223.501 79.7747L221.899 76.6803C221.899 76.6803 219.389 74.7396 217.605 75.2093C217.523 75.234 217.449 75.2588 217.374 75.2917C215.805 75.8851 215.615 78.1471 217.605 79.7747Z" fill="#EFAB97"/>
<path d="M217.375 75.2917C217.655 75.3824 217.951 75.5307 218.256 75.7532C220.007 77.0594 218.174 77.1088 219.039 78.1142C219.904 79.1195 222.34 78.1883 221.895 80.2938C222.826 80.0713 223.497 79.7747 223.497 79.7747L221.895 76.6803C221.895 76.6803 219.385 74.7396 217.601 75.2093C217.523 75.234 217.449 75.2588 217.375 75.2917Z" fill="url(#paint75_linear_730_963)"/>
<path d="M222.278 69.7333C222.278 69.7333 222.69 73.6559 225.578 77.5743C226.13 78.316 226.81 79.07 227.601 79.7705C230.976 82.7907 236.287 85.1434 241.47 83.9733C244.73 83.2398 246.646 81.9666 247.746 80.8953C248.809 79.8653 249.11 79.0206 249.11 79.0206V62.5103C249.11 62.5103 248.887 62.6668 248.426 62.8728C247.012 63.4991 243.374 64.5334 237.14 62.5103C229.645 60.0751 228.504 58.291 228.355 57.9861C230.164 67.2404 222.278 69.7333 222.278 69.7333Z" fill="url(#paint76_linear_730_963)"/>
<path d="M247.746 80.8953C248.809 79.8653 249.109 79.0206 249.109 79.0206V62.5103C249.109 62.5103 248.887 62.6668 248.425 62.8728L247.746 80.8953Z" fill="#FFEEE8"/>
<path d="M222.278 69.7333C222.278 69.7333 222.459 71.4597 223.427 73.763C223.914 74.9373 224.61 76.2558 225.582 77.5784C226.134 78.3201 226.814 79.0741 227.605 79.7746C225.261 76.4083 225.203 71.9088 227.127 71.0971C229.917 69.9228 230.778 62.3454 230.778 62.3454C230.778 62.3454 230.885 64.0389 236.847 66.507C240.115 67.8626 245.83 66.6883 249.114 66.0208V62.5103C249.114 62.5103 245.397 65.1926 237.144 62.5103C229.649 60.0751 228.508 58.291 228.359 57.9861C230.164 67.2404 222.278 69.7333 222.278 69.7333Z" fill="#EFAB97"/>
<path d="M223.427 73.763C223.32 72.3909 223.542 71.0559 224.548 70.3307C227.123 68.4725 229.22 65.1061 229.599 62.7699C229.987 60.4254 229.682 61.5873 234.552 63.3632C239.431 65.1473 245.624 66.128 248.487 64.7847C248.71 64.6776 248.924 64.5705 249.105 64.4633V62.5144C249.105 62.5144 245.389 65.1968 237.136 62.5144C229.641 60.0793 228.499 58.2951 228.351 57.9902C230.16 67.2446 222.273 69.7374 222.273 69.7374C222.273 69.7374 222.459 71.4597 223.427 73.763Z" fill="url(#paint77_linear_730_963)"/>
<path d="M241.474 67.2568V79.2265L242.15 78.831C242.669 78.5261 243.794 77.533 244.115 77.0551C244.313 76.7667 244.461 76.4947 244.569 76.231C244.84 75.5553 244.832 74.9001 244.519 74.0184L241.507 67.364C241.499 67.3475 241.499 67.3392 241.499 67.3392C241.482 67.2816 241.474 67.2568 241.474 67.2568Z" fill="#EFAB97"/>
<path d="M241.507 67.364C241.656 67.7678 243.811 73.7382 244.569 76.231C244.841 75.5553 244.832 74.9002 244.519 74.0184L241.507 67.364Z" fill="#FFEEE8"/>
<path d="M241.474 67.2568V79.2265L242.15 78.831C242.669 78.5261 243.098 78.114 243.423 77.6402C243.555 74.826 241.721 68.1304 241.499 67.3392C241.482 67.2816 241.474 67.2568 241.474 67.2568Z" fill="url(#paint78_linear_730_963)"/>
<path d="M234.56 72.4197C235.186 72.4197 235.693 71.2649 235.693 69.8403C235.693 68.4158 235.186 67.261 234.56 67.261C233.935 67.261 233.427 68.4158 233.427 69.8403C233.427 71.2649 233.935 72.4197 234.56 72.4197Z" fill="url(#paint79_linear_730_963)"/>
<path d="M246.118 72.4197C246.744 72.4197 247.251 71.2649 247.251 69.8403C247.251 68.4158 246.744 67.261 246.118 67.261C245.492 67.261 244.985 68.4158 244.985 69.8403C244.985 71.2649 245.492 72.4197 246.118 72.4197Z" fill="url(#paint80_linear_730_963)"/>
<path d="M238.17 64.7805C238.17 64.7805 233.423 60.2399 230.947 64.7805" stroke="#543C31" stroke-width="2" stroke-miterlimit="10" stroke-linecap="round" stroke-linejoin="round"/>
<path d="M243.329 64.7805C243.329 64.7805 248.075 60.2399 250.552 64.7805" stroke="#543C31" stroke-width="2" stroke-miterlimit="10" stroke-linecap="round" stroke-linejoin="round"/>
<path d="M219.389 73.2437C220.63 77.7844 227.754 87.5909 232.237 89.9106C236.003 91.8513 241.705 91.9502 245.199 89.8282C245.875 89.4327 246.473 88.9382 246.951 88.3573C247.157 88.11 247.338 87.8546 247.511 87.5826C249.781 84.0226 249.114 79.0205 249.114 79.0205C248.372 78.8722 247.668 78.7486 247.025 78.6579C237.878 77.2281 238.174 80.2195 234.561 81.0518C230.696 81.9418 225.743 78.765 224.041 75.5141C223.275 74.0596 222.018 72.5433 220.972 71.7233C219.67 70.7015 218.705 70.7344 219.389 73.2437Z" fill="url(#paint81_linear_730_963)"/>
<path d="M245.195 89.8283C245.871 89.4327 246.468 88.9383 246.946 88.3573C247.152 88.1101 247.333 87.8546 247.506 87.5827C249.777 84.0227 249.109 79.0206 249.109 79.0206C248.368 78.8722 247.663 78.7486 247.02 78.658C247.482 79.3996 247.811 80.5739 247.729 82.424C247.638 84.5048 246.517 87.2695 245.195 89.8283Z" fill="#AFA19D"/>
<path d="M219.389 73.2437C220.629 77.7844 227.753 87.5909 232.236 89.9106C236.728 92.2304 244 91.9173 246.946 88.3573C247.152 88.11 247.333 87.8546 247.506 87.5826C247.094 87.5909 246.633 87.7062 246.11 87.9452C241.569 90.0013 234.865 89.7541 228.68 83.8578C223.629 79.037 221.556 73.5569 220.963 71.7233C219.669 70.7015 218.705 70.7344 219.389 73.2437Z" fill="#543C31"/>
<path d="M235.693 83.1655C235.693 83.1655 236.031 83.9484 236.6 84.8837C237.865 86.948 240.25 89.7375 242.578 86.3877C243.098 85.646 243.609 84.5953 244.115 83.1697H235.693V83.1655Z" fill="url(#paint82_linear_730_963)"/>
<path d="M235.693 83.1655C235.693 83.1655 236.031 83.9484 236.6 84.8837C239.34 85.2051 241.256 85.7902 242.578 86.3877C243.098 85.646 243.609 84.5953 244.115 83.1697H235.693V83.1655Z" fill="url(#paint83_linear_730_963)"/>
<path d="M244.115 83.1655H235.693C235.693 83.1655 240.976 86.2805 244.115 83.1655Z" fill="white"/>
<path d="M258.553 48.7359C258.553 48.7359 233.378 60.5449 214.622 63.7753C195.862 67.0015 204.28 60.9899 214.622 56.2556C224.964 51.5213 240.857 45.9505 250.556 45.4849C260.255 45.0193 258.553 48.7359 258.553 48.7359Z" fill="url(#paint84_linear_730_963)"/>
<path d="M214.618 63.7752C233.374 60.549 258.553 48.7318 258.553 48.7318C258.553 48.7318 258.685 48.4433 258.669 48.0396C249.884 51.4883 238.401 55.4933 228.652 57.1703C214.536 59.5972 215.805 56.7912 221.717 53.2395C219.183 54.2448 216.781 55.2708 214.618 56.2515C204.276 60.9858 195.862 67.0015 214.618 63.7752Z" fill="url(#paint85_linear_730_963)"/>
<path d="M203.538 63.8823C205.273 62.2053 209.352 59.935 213.79 57.9037C224.132 53.1735 240.024 47.6028 249.728 47.1372C255.574 46.857 257.28 48.0931 257.709 49.1191C258.253 48.8718 258.549 48.7317 258.549 48.7317C258.549 48.7317 260.251 45.0152 250.552 45.489C240.852 45.9505 224.96 51.5254 214.614 56.2555C208.409 59.0945 202.904 62.3949 203.538 63.8823Z" fill="#FFEBBF"/>
<path d="M243.992 50.8166C245.17 50.2027 245.508 48.6782 244.696 47.6275C243.234 45.7403 240.584 42.7984 236.522 39.91C229.764 35.1098 225.248 40.2067 219.855 42.0773C212.265 44.7103 212.117 53.8327 212.269 57.9408C212.417 61.8386 230.465 57.8501 243.992 50.8166Z" fill="url(#paint86_linear_730_963)"/>
<path d="M212.265 57.9366C212.413 61.8428 230.469 57.8542 243.992 50.8125C245.174 50.2027 245.512 48.674 244.692 47.6275C244.511 47.3967 244.313 47.1495 244.099 46.8858C233.003 51.0227 222.29 52.6914 222.17 49.6835C222.088 47.4874 222.096 43.8367 223.291 40.5281C222.17 41.1049 221.029 41.6653 219.851 42.0815C212.265 44.7144 212.117 53.8369 212.265 57.9366Z" fill="url(#paint87_linear_730_963)"/>
<path d="M212.265 57.9366C212.414 61.8428 230.469 57.8542 243.992 50.8125C244.561 50.5241 244.932 50.0132 245.072 49.4404C231.878 55.7817 215.706 59.1563 215.566 55.4603C215.45 52.3494 215.508 46.3378 218.866 42.4729C212.249 45.5302 212.125 54.0182 212.265 57.9366Z" fill="#DB975C"/>
<path d="M215.261 45.3242C216.085 44.6732 217.061 44.1252 218.199 43.7296C223.596 41.8549 228.104 36.7621 234.865 41.5582C238.936 44.4466 241.578 47.3967 243.04 49.2756C243.469 49.8195 243.576 50.5076 243.419 51.1092C243.609 51.0103 243.798 50.9114 243.988 50.8125C245.171 50.2027 245.508 48.6741 244.688 47.6275C243.226 45.7445 240.585 42.7984 236.514 39.91C229.752 35.1139 225.244 40.2067 219.847 42.0815C217.844 42.7737 216.353 43.9274 215.261 45.3242Z" fill="#FFEBBF"/>
<path d="M214.618 97.5992L220.403 104.946L225.236 111.077L225.994 112.045L232.393 105.234L221.898 96.977L220.786 96.1035L220.361 96.2024L214.618 97.5992Z" fill="url(#paint88_linear_730_963)"/>
<path d="M220.403 104.946L219.043 98.8024L221.898 96.977L220.786 96.1035L220.361 96.2024L214.618 97.5992L220.403 104.946Z" fill="url(#paint89_linear_730_963)"/>
<path d="M229.237 105.234L225.236 111.077L225.994 112.045L232.393 105.234L220.786 96.1035L220.361 96.2024L229.237 105.234Z" fill="#FFB3C5"/>
<path d="M232.393 105.234L238.907 111.011L240.069 112.045L241.285 108.774L244.981 98.8355L240.91 96.9525L240.069 96.5652L239.781 96.8948L232.393 105.234Z" fill="url(#paint90_linear_730_963)"/>
<path d="M238.907 111.011L240.069 112.045L241.285 108.774L244.981 98.8355L240.91 96.9525L240.069 96.5652L239.781 96.8948L243.621 99.6596L238.907 111.011Z" fill="#FFB3C5"/>
<path d="M232.393 105.234L240.069 112.045L241.285 108.774L235.693 105.144L240.91 96.9525L240.069 96.5652L232.393 105.234Z" fill="url(#paint91_linear_730_963)"/>
<path d="M179.751 228.652C179.751 228.652 172.796 224.577 171.403 234.173C170.01 243.769 171.403 251.046 171.403 251.046" stroke="#47332A" stroke-width="2" stroke-miterlimit="10" stroke-linecap="round" stroke-linejoin="round"/>
<path d="M159.743 252.595L159.784 252.908C159.973 253.683 160.872 254.421 162.326 255.072C166.026 256.724 173.323 257.853 181.717 257.853C190.122 257.853 197.419 256.724 201.115 255.072C202.57 254.421 203.468 253.683 203.658 252.908L203.699 252.595C203.699 249.69 193.859 247.338 181.712 247.338C169.582 247.338 159.743 249.69 159.743 252.595Z" fill="url(#paint92_linear_730_963)"/>
<path d="M162.326 255.072C166.026 256.724 173.323 257.853 181.717 257.853C190.122 257.853 197.419 256.724 201.115 255.072C197.415 253.411 190.118 252.29 181.717 252.29C173.323 252.29 166.026 253.411 162.326 255.072Z" fill="url(#paint93_linear_730_963)"/>
<path d="M159.784 252.908L165.688 300.816C166.15 304.574 169.339 307.388 173.125 307.388H190.32C194.11 307.388 197.296 304.574 197.757 300.816L203.662 252.908C202.986 255.665 193.427 257.853 181.716 257.853C170.023 257.853 160.459 255.665 159.784 252.908Z" fill="url(#paint94_linear_730_963)"/>
<path d="M161.832 255.838L167.097 298.591C167.509 301.945 170.352 304.454 173.735 304.454H189.084C192.466 304.454 195.31 301.941 195.722 298.591L195.816 297.824H184.786C181.403 297.824 178.56 295.311 178.148 291.961L174.201 259.925C167.279 259.27 162.289 257.7 161.832 255.838Z" fill="url(#paint95_linear_730_963)"/>
<path d="M161.832 255.838L167.097 298.591C167.509 301.945 170.352 304.454 173.735 304.454H189.084C191.123 304.454 192.965 303.539 194.189 302.081C193.731 302.192 193.253 302.242 192.767 302.242H177.423C174.04 302.242 171.197 299.728 170.785 296.378L166.113 258.496C163.644 257.762 162.075 256.839 161.832 255.838Z" fill="url(#paint96_linear_730_963)"/>
<path d="M192.454 264.668C192.454 264.668 194.848 255.504 195.215 244.07C195.582 232.636 185.738 228.767 185.738 228.767" stroke="#47332A" stroke-width="2" stroke-miterlimit="10" stroke-linecap="round" stroke-linejoin="round"/>
<path d="M188.425 220.481L191.684 224.964L192.817 229.789L192.714 233.089C192.764 233.637 192.08 234.218 191.63 233.897C191.091 233.51 189.933 232.344 189.826 231.655C189.636 230.432 188.174 229.583 188.174 229.591C188.289 229.805 188.124 228.112 188.124 232.48C188.124 236.888 186.826 235.871 185.738 235.706C185.45 235.665 185.186 235.681 184.956 235.871C184.881 235.928 184.815 235.986 184.749 236.035C184.7 236.077 184.651 236.11 184.609 236.134C183.596 236.901 183.081 236.975 182.471 236.95C182.24 236.95 182.001 236.925 181.721 236.925C181.573 236.925 181.433 236.917 181.309 236.901C180.345 236.777 179.887 236.225 179.047 235.78C178.75 235.623 178.404 235.483 177.967 235.384C177.761 235.327 177.539 235.286 177.292 235.253C174.815 234.948 175.483 232.471 175.483 232.471L177.292 217.918V181.387H194.519L193.604 187.267L188.425 220.481Z" fill="url(#paint97_linear_730_963)"/>
<path d="M187.118 219.987L188.424 220.481L194.514 181.391H192.153L187.118 219.987Z" fill="#FFEEE8"/>
<path d="M177.287 235.257C177.674 235.306 178.004 235.38 178.284 235.471C178.564 235.553 178.795 235.652 179.001 235.759C179.99 236.27 180.431 236.934 181.716 236.934C182.128 236.934 182.45 236.975 182.78 236.958C183.29 236.934 183.818 236.761 184.745 236.044C184.654 235.566 184.588 235.129 184.514 234.787C184.316 233.889 184.077 233.588 183.315 234.639C182.075 236.34 180.031 236.406 179.747 234.639C179.458 232.871 177.279 234.326 177.279 232.484C177.279 230.634 180.905 220.481 180.905 220.481L183.628 187.271H193.591L194.028 184.49L194.506 181.395H177.279V217.926L177.023 220.015L175.47 232.48C175.478 232.475 174.811 234.952 177.287 235.257Z" fill="#EFAB97"/>
<path d="M184.609 236.143C184.65 236.118 184.7 236.085 184.749 236.044C184.815 235.994 184.881 235.937 184.955 235.879C185.186 235.689 185.45 235.673 185.738 235.714C185.631 234.61 185.359 233.032 184.955 231.932C184.469 230.609 184.551 234.4 184.609 236.143Z" fill="url(#paint98_linear_730_963)"/>
<path d="M181.308 236.909C181.432 236.925 181.572 236.934 181.72 236.934C182.001 236.934 182.24 236.958 182.47 236.958C182.396 235.862 182.116 233.996 181.655 232.756C181.164 231.445 181.251 235.141 181.308 236.909Z" fill="url(#paint99_linear_730_963)"/>
<path d="M177.963 235.388C178.4 235.487 178.746 235.627 179.042 235.784C178.902 234.787 178.672 233.621 178.35 232.756C177.988 231.767 177.938 233.65 177.963 235.388Z" fill="url(#paint100_linear_730_963)"/>
<path d="M177.032 220.011L178.68 217.922L180.909 184.486H194.037L194.514 181.391H177.287V217.922L177.032 220.011Z" fill="url(#paint101_linear_730_963)"/>
<path d="M241.886 382.272H292.245C292.245 382.272 292.394 381.118 292.056 379.194C291.842 377.945 291.413 376.363 290.593 374.571C288.529 370.03 280.688 369.206 273.358 366.589C269.147 365.086 267.288 361.2 266.472 358.167C265.863 355.922 265.83 354.138 265.83 354.138H242.797L241.989 379.194L241.886 382.272Z" fill="url(#paint102_linear_730_963)"/>
<path d="M263.918 354.138C264.091 358.299 265.133 364.764 269.748 366.936C276.765 370.236 287.087 372.3 288.735 374.983C289.411 376.079 289.95 379.103 290.354 382.272H292.246C292.246 382.272 292.394 381.118 292.056 379.194C291.842 377.945 291.413 376.363 290.593 374.571C288.529 370.03 280.688 369.206 273.358 366.589C269.147 365.086 267.288 361.2 266.473 358.167C265.863 355.922 265.83 354.138 265.83 354.138H263.918Z" fill="#AFA19D"/>
<path d="M241.886 382.272H280.053C278.549 369.325 274.936 371.736 265.83 370.854C256.237 369.923 259.678 358.167 259.678 358.167H266.472C266.217 357.22 266.06 356.35 265.97 355.666C265.838 354.735 265.83 354.138 265.83 354.138H242.797L241.886 382.272Z" fill="#543C31"/>
<path d="M241.985 379.194L242.793 354.138H265.826C265.826 354.138 265.834 354.731 265.966 355.666H251.421C251.421 355.666 248.903 374.159 257.985 374.365C261.219 374.443 263.304 376.532 264.647 379.194H292.052C292.39 381.118 292.241 382.272 292.241 382.272H265.85H241.886L241.985 379.194Z" fill="#47332A"/>
<path d="M263.918 357.306H257.469L265.582 362.317H259.08L269.748 366.931H260.967" stroke="white" stroke-miterlimit="10" stroke-linecap="round" stroke-linejoin="round"/>
<path d="M189.051 382.272H239.41C239.41 382.272 239.558 381.118 239.22 379.194C239.006 377.945 238.578 376.363 237.758 374.571C235.693 370.03 227.852 369.206 220.522 366.589C216.311 365.086 214.453 361.2 213.637 358.167C213.027 355.922 212.994 354.138 212.994 354.138H189.961L189.154 379.194L189.051 382.272Z" fill="url(#paint103_linear_730_963)"/>
<path d="M211.083 354.138C211.256 358.299 212.298 364.764 216.913 366.936C223.93 370.236 234.251 372.3 235.9 374.983C236.575 376.079 237.115 379.103 237.519 382.272H239.41C239.41 382.272 239.558 381.118 239.221 379.194C239.006 377.945 238.578 376.363 237.758 374.571C235.694 370.03 227.852 369.206 220.522 366.589C216.311 365.086 214.453 361.2 213.637 358.167C213.027 355.922 212.994 354.138 212.994 354.138H211.083Z" fill="#AFA19D"/>
<path d="M189.051 382.272H227.218C225.714 369.325 222.1 371.736 212.994 370.854C203.402 369.923 206.843 358.167 206.843 358.167H213.637C213.382 357.22 213.225 356.35 213.134 355.666C213.003 354.735 212.994 354.138 212.994 354.138H189.961L189.051 382.272Z" fill="#543C31"/>
<path d="M189.15 379.194L189.957 354.138H212.99C212.99 354.138 212.998 354.731 213.13 355.666H198.585C198.585 355.666 196.068 374.159 205.149 374.365C208.384 374.443 210.468 376.532 211.812 379.194H239.216C239.554 381.118 239.406 382.272 239.406 382.272H213.015H189.051L189.15 379.194Z" fill="#47332A"/>
<path d="M208.132 366.931H216.912L206.245 362.317H212.747L204.634 357.306H211.082" stroke="white" stroke-miterlimit="10" stroke-linecap="round" stroke-linejoin="round"/>
</g>
<defs>
<linearGradient id="paint0_linear_730_963" x1="65.7224" y1="176.131" x2="65.7224" y2="343.794" gradientUnits="userSpaceOnUse">
<stop stop-color="white"/>
<stop offset="1" stop-color="#FFF1ED"/>
</linearGradient>
<linearGradient id="paint1_linear_730_963" x1="62.8846" y1="343.794" x2="62.8846" y2="294.017" gradientUnits="userSpaceOnUse">
<stop stop-color="#F4DFD9"/>
<stop offset="1" stop-color="#FFE9E3"/>
</linearGradient>
<linearGradient id="paint2_linear_730_963" x1="67.5296" y1="282.019" x2="67.5296" y2="176.131" gradientUnits="userSpaceOnUse">
<stop stop-color="#F4DFD9"/>
<stop offset="1" stop-color="#FFE9E3"/>
</linearGradient>
<linearGradient id="paint3_linear_730_963" x1="311.702" y1="236.369" x2="311.702" y2="364.43" gradientUnits="userSpaceOnUse">
<stop stop-color="#F4DDD7"/>
<stop offset="1" stop-color="#D9C9BD"/>
</linearGradient>
<linearGradient id="paint4_linear_730_963" x1="311.702" y1="236.369" x2="311.702" y2="364.43" gradientUnits="userSpaceOnUse">
<stop stop-color="#EBD8D4"/>
<stop offset="1" stop-color="#C9ADAB"/>
</linearGradient>
<linearGradient id="paint5_linear_730_963" x1="123.798" y1="272.719" x2="123.798" y2="361.925" gradientUnits="userSpaceOnUse">
<stop stop-color="#F4DDD7"/>
<stop offset="1" stop-color="#D9C9BD"/>
</linearGradient>
<linearGradient id="paint6_linear_730_963" x1="123.798" y1="272.719" x2="123.798" y2="361.925" gradientUnits="userSpaceOnUse">
<stop stop-color="#EBD8D4"/>
<stop offset="1" stop-color="#C9ADAB"/>
</linearGradient>
<linearGradient id="paint7_linear_730_963" x1="159.967" y1="263.013" x2="159.967" y2="314.788" gradientUnits="userSpaceOnUse">
<stop stop-color="#F286B6"/>
<stop offset="1" stop-color="#E673A6"/>
</linearGradient>
<linearGradient id="paint8_linear_730_963" x1="206.938" y1="151.703" x2="206.938" y2="364.147" gradientUnits="userSpaceOnUse">
<stop stop-color="white"/>
<stop offset="1" stop-color="#FFF1ED"/>
</linearGradient>
<linearGradient id="paint9_linear_730_963" x1="192.482" y1="298.379" x2="192.482" y2="219.111" gradientUnits="userSpaceOnUse">
<stop stop-color="#F4DFD9"/>
<stop offset="1" stop-color="#FFE9E3"/>
</linearGradient>
<linearGradient id="paint10_linear_730_963" x1="312.971" y1="359.986" x2="312.971" y2="151.937" gradientUnits="userSpaceOnUse">
<stop stop-color="#F4DFD9"/>
<stop offset="1" stop-color="#FFE9E3"/>
</linearGradient>
<linearGradient id="paint11_linear_730_963" x1="112.899" y1="345.748" x2="112.899" y2="298.662" gradientUnits="userSpaceOnUse">
<stop stop-color="#F4DFD9"/>
<stop offset="1" stop-color="#FFE9E3"/>
</linearGradient>
<linearGradient id="paint12_linear_730_963" x1="128.876" y1="236.917" x2="128.876" y2="280.977" gradientUnits="userSpaceOnUse">
<stop stop-color="#F4DDD7"/>
<stop offset="1" stop-color="#D9C9BD"/>
</linearGradient>
<linearGradient id="paint13_linear_730_963" x1="191.688" y1="257.24" x2="191.688" y2="287.132" gradientUnits="userSpaceOnUse">
<stop stop-color="#F4DDD7"/>
<stop offset="1" stop-color="#D9C9BD"/>
</linearGradient>
<linearGradient id="paint14_linear_730_963" x1="251.963" y1="233.836" x2="251.963" y2="288.902" gradientUnits="userSpaceOnUse">
<stop stop-color="#F4DDD7"/>
<stop offset="1" stop-color="#D9C9BD"/>
</linearGradient>
<linearGradient id="paint15_linear_730_963" x1="316.393" y1="156.226" x2="316.393" y2="341.157" gradientUnits="userSpaceOnUse">
<stop stop-color="#F4DDD7"/>
<stop offset="1" stop-color="#D9C9BD"/>
</linearGradient>
<linearGradient id="paint16_linear_730_963" x1="96.7671" y1="154.754" x2="96.7671" y2="260.603" gradientUnits="userSpaceOnUse">
<stop stop-color="#6E554C"/>
<stop offset="1" stop-color="#66493C"/>
</linearGradient>
<linearGradient id="paint17_linear_730_963" x1="244.392" y1="151.701" x2="244.392" y2="222.697" gradientUnits="userSpaceOnUse">
<stop stop-color="#6E554C"/>
<stop offset="1" stop-color="#66493C"/>
</linearGradient>
<linearGradient id="paint18_linear_730_963" x1="370.134" y1="124.229" x2="370.134" y2="149.614" gradientUnits="userSpaceOnUse">
<stop stop-color="white"/>
<stop offset="1" stop-color="#FFF1ED"/>
</linearGradient>
<linearGradient id="paint19_linear_730_963" x1="372.722" y1="149.614" x2="372.722" y2="124.229" gradientUnits="userSpaceOnUse">
<stop stop-color="#F4DFD9"/>
<stop offset="1" stop-color="#FFE9E3"/>
</linearGradient>
<linearGradient id="paint20_linear_730_963" x1="372.564" y1="139.921" x2="372.564" y2="149.614" gradientUnits="userSpaceOnUse">
<stop stop-color="#F4DDD7"/>
<stop offset="1" stop-color="#D9C9BD"/>
</linearGradient>
<linearGradient id="paint21_linear_730_963" x1="329.895" y1="124.229" x2="329.895" y2="149.614" gradientUnits="userSpaceOnUse">
<stop stop-color="white"/>
<stop offset="1" stop-color="#FFF1ED"/>
</linearGradient>
<linearGradient id="paint22_linear_730_963" x1="331.63" y1="124.229" x2="331.63" y2="146.231" gradientUnits="userSpaceOnUse">
<stop stop-color="#F4DFD9"/>
<stop offset="1" stop-color="#FFE9E3"/>
</linearGradient>
<linearGradient id="paint23_linear_730_963" x1="332.863" y1="137.031" x2="332.863" y2="146.231" gradientUnits="userSpaceOnUse">
<stop stop-color="#F4DDD7"/>
<stop offset="1" stop-color="#D9C9BD"/>
</linearGradient>
<linearGradient id="paint24_linear_730_963" x1="316.742" y1="149.587" x2="316.742" y2="176.809" gradientUnits="userSpaceOnUse">
<stop stop-color="white"/>
<stop offset="1" stop-color="#FFF1ED"/>
</linearGradient>
<linearGradient id="paint25_linear_730_963" x1="324.276" y1="176.39" x2="324.276" y2="149.587" gradientUnits="userSpaceOnUse">
<stop stop-color="#F4DFD9"/>
<stop offset="1" stop-color="#FFE9E3"/>
</linearGradient>
<linearGradient id="paint26_linear_730_963" x1="326.297" y1="149.587" x2="326.297" y2="175.558" gradientUnits="userSpaceOnUse">
<stop stop-color="#F4DDD7"/>
<stop offset="1" stop-color="#D9C9BD"/>
</linearGradient>
<linearGradient id="paint27_linear_730_963" x1="318.329" y1="155.559" x2="318.329" y2="171.279" gradientUnits="userSpaceOnUse">
<stop stop-color="#F286B6"/>
<stop offset="1" stop-color="#E673A6"/>
</linearGradient>
<linearGradient id="paint28_linear_730_963" x1="381.606" y1="146.523" x2="381.606" y2="176.808" gradientUnits="userSpaceOnUse">
<stop stop-color="white"/>
<stop offset="1" stop-color="#FFF1ED"/>
</linearGradient>
<linearGradient id="paint29_linear_730_963" x1="375.957" y1="175.896" x2="375.957" y2="146.524" gradientUnits="userSpaceOnUse">
<stop stop-color="#F4DFD9"/>
<stop offset="1" stop-color="#FFE9E3"/>
</linearGradient>
<linearGradient id="paint30_linear_730_963" x1="373.913" y1="146.524" x2="373.913" y2="174.799" gradientUnits="userSpaceOnUse">
<stop stop-color="#F4DDD7"/>
<stop offset="1" stop-color="#D9C9BD"/>
</linearGradient>
<linearGradient id="paint31_linear_730_963" x1="380.83" y1="152.287" x2="380.83" y2="171.214" gradientUnits="userSpaceOnUse">
<stop stop-color="#F286B6"/>
<stop offset="1" stop-color="#E673A6"/>
</linearGradient>
<linearGradient id="paint32_linear_730_963" x1="350.432" y1="138.587" x2="350.432" y2="207.18" gradientUnits="userSpaceOnUse">
<stop stop-color="white"/>
<stop offset="1" stop-color="#FFF1ED"/>
</linearGradient>
<linearGradient id="paint33_linear_730_963" x1="334.28" y1="207.18" x2="334.28" y2="158.614" gradientUnits="userSpaceOnUse">
<stop stop-color="#F4DFD9"/>
<stop offset="1" stop-color="#FFE9E3"/>
</linearGradient>
<linearGradient id="paint34_linear_730_963" x1="367.449" y1="205.021" x2="367.449" y2="144.758" gradientUnits="userSpaceOnUse">
<stop stop-color="#F4DFD9"/>
<stop offset="1" stop-color="#FFE9E3"/>
</linearGradient>
<linearGradient id="paint35_linear_730_963" x1="352.611" y1="193.755" x2="352.611" y2="225.886" gradientUnits="userSpaceOnUse">
<stop stop-color="#F286B6"/>
<stop offset="1" stop-color="#E673A6"/>
</linearGradient>
<linearGradient id="paint36_linear_730_963" x1="339.113" y1="166.241" x2="339.113" y2="177.122" gradientUnits="userSpaceOnUse">
<stop stop-color="#6E554C"/>
<stop offset="1" stop-color="#66493C"/>
</linearGradient>
<linearGradient id="paint37_linear_730_963" x1="365.633" y1="166.241" x2="365.633" y2="177.122" gradientUnits="userSpaceOnUse">
<stop stop-color="#6E554C"/>
<stop offset="1" stop-color="#66493C"/>
</linearGradient>
<linearGradient id="paint38_linear_730_963" x1="87.4215" y1="358.121" x2="87.4215" y2="368.738" gradientUnits="userSpaceOnUse">
<stop stop-color="#6E554C"/>
<stop offset="1" stop-color="#66493C"/>
</linearGradient>
<linearGradient id="paint39_linear_730_963" x1="115.408" y1="358.157" x2="115.408" y2="368.738" gradientUnits="userSpaceOnUse">
<stop stop-color="#6E554C"/>
<stop offset="1" stop-color="#66493C"/>
</linearGradient>
<linearGradient id="paint40_linear_730_963" x1="280.313" y1="359.053" x2="280.313" y2="368.738" gradientUnits="userSpaceOnUse">
<stop stop-color="#6E554C"/>
<stop offset="1" stop-color="#66493C"/>
</linearGradient>
<linearGradient id="paint41_linear_730_963" x1="311.816" y1="359.273" x2="311.816" y2="368.738" gradientUnits="userSpaceOnUse">
<stop stop-color="#6E554C"/>
<stop offset="1" stop-color="#66493C"/>
</linearGradient>
<linearGradient id="paint42_linear_730_963" x1="359.946" y1="201.866" x2="359.946" y2="206.877" gradientUnits="userSpaceOnUse">
<stop stop-color="#6E554C"/>
<stop offset="1" stop-color="#66493C"/>
</linearGradient>
<linearGradient id="paint43_linear_730_963" x1="348.972" y1="201.866" x2="348.972" y2="206.877" gradientUnits="userSpaceOnUse">
<stop stop-color="#6E554C"/>
<stop offset="1" stop-color="#66493C"/>
</linearGradient>
<linearGradient id="paint44_linear_730_963" x1="357.244" y1="143.161" x2="357.244" y2="165.895" gradientUnits="userSpaceOnUse">
<stop stop-color="#6E554C"/>
<stop offset="1" stop-color="#66493C"/>
</linearGradient>
<linearGradient id="paint45_linear_730_963" x1="251.958" y1="235.166" x2="251.958" y2="280.978" gradientUnits="userSpaceOnUse">
<stop stop-color="#6E554C"/>
<stop offset="1" stop-color="#66493C"/>
</linearGradient>
<linearGradient id="paint46_linear_730_963" x1="60.7345" y1="308.822" x2="60.7345" y2="343.794" gradientUnits="userSpaceOnUse">
<stop stop-color="#6E554C"/>
<stop offset="1" stop-color="#66493C"/>
</linearGradient>
<linearGradient id="paint47_linear_730_963" x1="187.119" y1="172.103" x2="187.119" y2="181.391" gradientUnits="userSpaceOnUse">
<stop stop-color="#E55571"/>
<stop offset="1" stop-color="#D14E68"/>
</linearGradient>
<linearGradient id="paint48_linear_730_963" x1="182.59" y1="172.103" x2="182.59" y2="181.391" gradientUnits="userSpaceOnUse">
<stop stop-color="#C94A63"/>
<stop offset="1" stop-color="#BC425F"/>
</linearGradient>
<linearGradient id="paint49_linear_730_963" x1="189.485" y1="102.757" x2="189.485" y2="177.093" gradientUnits="userSpaceOnUse">
<stop stop-color="#E55571"/>
<stop offset="1" stop-color="#D14E68"/>
</linearGradient>
<linearGradient id="paint50_linear_730_963" x1="191.088" y1="110.286" x2="191.088" y2="177.093" gradientUnits="userSpaceOnUse">
<stop stop-color="#C94A63"/>
<stop offset="1" stop-color="#BC425F"/>
</linearGradient>
<linearGradient id="paint51_linear_730_963" x1="264.972" y1="163.435" x2="264.972" y2="178.295" gradientUnits="userSpaceOnUse">
<stop stop-color="#E55571"/>
<stop offset="1" stop-color="#D14E68"/>
</linearGradient>
<linearGradient id="paint52_linear_730_963" x1="264.972" y1="163.435" x2="264.972" y2="178.295" gradientUnits="userSpaceOnUse">
<stop stop-color="#C94A63"/>
<stop offset="1" stop-color="#BC425F"/>
</linearGradient>
<linearGradient id="paint53_linear_730_963" x1="266.395" y1="105.234" x2="266.395" y2="169.985" gradientUnits="userSpaceOnUse">
<stop stop-color="#E55571"/>
<stop offset="1" stop-color="#D14E68"/>
</linearGradient>
<linearGradient id="paint54_linear_730_963" x1="266.124" y1="110.415" x2="266.124" y2="169.985" gradientUnits="userSpaceOnUse">
<stop stop-color="#C94A63"/>
<stop offset="1" stop-color="#BC425F"/>
</linearGradient>
<linearGradient id="paint55_linear_730_963" x1="270.482" y1="174.275" x2="270.482" y2="239.055" gradientUnits="userSpaceOnUse">
<stop stop-color="#FFCCB9"/>
<stop offset="0.3411" stop-color="#FDC8B5"/>
<stop offset="0.6884" stop-color="#F7BCA9"/>
<stop offset="1" stop-color="#EFAB97"/>
</linearGradient>
<linearGradient id="paint56_linear_730_963" x1="278.119" y1="232.484" x2="263.539" y2="232.484" gradientUnits="userSpaceOnUse">
<stop stop-color="#EFAB97"/>
<stop offset="1" stop-color="#E38677"/>
</linearGradient>
<linearGradient id="paint57_linear_730_963" x1="273.809" y1="199.677" x2="260.757" y2="199.677" gradientUnits="userSpaceOnUse">
<stop stop-color="#EFAB97"/>
<stop offset="1" stop-color="#E38677"/>
</linearGradient>
<linearGradient id="paint58_linear_730_963" x1="291.212" y1="252.594" x2="247.252" y2="252.594" gradientUnits="userSpaceOnUse">
<stop stop-color="white"/>
<stop offset="1" stop-color="#FFF1ED"/>
</linearGradient>
<linearGradient id="paint59_linear_730_963" x1="288.628" y1="255.071" x2="249.836" y2="255.071" gradientUnits="userSpaceOnUse">
<stop stop-color="#F4DFD9"/>
<stop offset="1" stop-color="#FFE9E3"/>
</linearGradient>
<linearGradient id="paint60_linear_730_963" x1="269.232" y1="252.908" x2="269.232" y2="307.386" gradientUnits="userSpaceOnUse">
<stop stop-color="white"/>
<stop offset="1" stop-color="#FFF1ED"/>
</linearGradient>
<linearGradient id="paint61_linear_730_963" x1="266.334" y1="304.456" x2="266.334" y2="255.838" gradientUnits="userSpaceOnUse">
<stop stop-color="#F4DFD9"/>
<stop offset="1" stop-color="#FFE9E3"/>
</linearGradient>
<linearGradient id="paint62_linear_730_963" x1="265.52" y1="255.838" x2="265.52" y2="304.456" gradientUnits="userSpaceOnUse">
<stop stop-color="#F4DDD7"/>
<stop offset="1" stop-color="#D9C9BD"/>
</linearGradient>
<linearGradient id="paint63_linear_730_963" x1="227.955" y1="100.792" x2="227.955" y2="354.137" gradientUnits="userSpaceOnUse">
<stop stop-color="#7190DE"/>
<stop offset="1" stop-color="#6C89D4"/>
</linearGradient>
<linearGradient id="paint64_linear_730_963" x1="244.899" y1="94.2267" x2="244.899" y2="208.702" gradientUnits="userSpaceOnUse">
<stop stop-color="#6B88D1"/>
<stop offset="1" stop-color="#5572B0"/>
</linearGradient>
<linearGradient id="paint65_linear_730_963" x1="244.197" y1="160.543" x2="170.9" y2="219.843" gradientUnits="userSpaceOnUse">
<stop stop-color="#6B88D1"/>
<stop offset="0.299" stop-color="#607DC1"/>
<stop offset="0.6549" stop-color="#5875B4"/>
<stop offset="1" stop-color="#5572B0"/>
</linearGradient>
<linearGradient id="paint66_linear_730_963" x1="204.11" y1="102.32" x2="204.11" y2="354.137" gradientUnits="userSpaceOnUse">
<stop stop-color="#6B88D1"/>
<stop offset="0.0943" stop-color="#6481C6"/>
<stop offset="0.2718" stop-color="#5B78BA"/>
<stop offset="0.5048" stop-color="#5673B2"/>
<stop offset="1" stop-color="#5572B0"/>
</linearGradient>
<linearGradient id="paint67_linear_730_963" x1="236.931" y1="203.168" x2="236.931" y2="354.137" gradientUnits="userSpaceOnUse">
<stop stop-color="#6B88D1"/>
<stop offset="0.0943" stop-color="#6481C6"/>
<stop offset="0.2718" stop-color="#5B78BA"/>
<stop offset="0.5048" stop-color="#5673B2"/>
<stop offset="1" stop-color="#5572B0"/>
</linearGradient>
<linearGradient id="paint68_linear_730_963" x1="263.067" y1="140.192" x2="182.018" y2="205.764" gradientUnits="userSpaceOnUse">
<stop stop-color="#6B88D1"/>
<stop offset="0.299" stop-color="#607DC1"/>
<stop offset="0.6549" stop-color="#5875B4"/>
<stop offset="1" stop-color="#5572B0"/>
</linearGradient>
<linearGradient id="paint69_linear_730_963" x1="231.207" y1="97.5976" x2="231.207" y2="138.05" gradientUnits="userSpaceOnUse">
<stop stop-color="#E55571"/>
<stop offset="1" stop-color="#D14E68"/>
</linearGradient>
<linearGradient id="paint70_linear_730_963" x1="231.207" y1="97.5976" x2="231.207" y2="138.05" gradientUnits="userSpaceOnUse">
<stop stop-color="#C94A63"/>
<stop offset="1" stop-color="#BC425F"/>
</linearGradient>
<linearGradient id="paint71_linear_730_963" x1="230.427" y1="79.51" x2="230.427" y2="105.234" gradientUnits="userSpaceOnUse">
<stop stop-color="#FFCCB9"/>
<stop offset="0.3411" stop-color="#FDC8B5"/>
<stop offset="0.6884" stop-color="#F7BCA9"/>
<stop offset="1" stop-color="#EFAB97"/>
</linearGradient>
<linearGradient id="paint72_linear_730_963" x1="230.427" y1="79.51" x2="230.427" y2="98.1672" gradientUnits="userSpaceOnUse">
<stop stop-color="#EFAB97"/>
<stop offset="1" stop-color="#E38677"/>
</linearGradient>
<linearGradient id="paint73_linear_730_963" x1="232.122" y1="47.3251" x2="232.122" y2="78.1174" gradientUnits="userSpaceOnUse">
<stop stop-color="#6E554C"/>
<stop offset="1" stop-color="#66493C"/>
</linearGradient>
<linearGradient id="paint74_linear_730_963" x1="219.042" y1="73.432" x2="219.042" y2="82.4281" gradientUnits="userSpaceOnUse">
<stop stop-color="#FFCCB9"/>
<stop offset="0.3411" stop-color="#FDC8B5"/>
<stop offset="0.6884" stop-color="#F7BCA9"/>
<stop offset="1" stop-color="#EFAB97"/>
</linearGradient>
<linearGradient id="paint75_linear_730_963" x1="220.438" y1="75.1352" x2="220.438" y2="80.2941" gradientUnits="userSpaceOnUse">
<stop stop-color="#EFAB97"/>
<stop offset="1" stop-color="#E38677"/>
</linearGradient>
<linearGradient id="paint76_linear_730_963" x1="235.694" y1="57.9877" x2="235.694" y2="84.2831" gradientUnits="userSpaceOnUse">
<stop stop-color="#FFCCB9"/>
<stop offset="0.3411" stop-color="#FDC8B5"/>
<stop offset="0.6884" stop-color="#F7BCA9"/>
<stop offset="1" stop-color="#EFAB97"/>
</linearGradient>
<linearGradient id="paint77_linear_730_963" x1="235.694" y1="57.9877" x2="235.694" y2="73.764" gradientUnits="userSpaceOnUse">
<stop stop-color="#EFAB97"/>
<stop offset="1" stop-color="#E38677"/>
</linearGradient>
<linearGradient id="paint78_linear_730_963" x1="243.428" y1="73.2438" x2="241.473" y2="73.2438" gradientUnits="userSpaceOnUse">
<stop stop-color="#EFAB97"/>
<stop offset="1" stop-color="#E38677"/>
</linearGradient>
<linearGradient id="paint79_linear_730_963" x1="234.559" y1="67.2586" x2="234.559" y2="72.4182" gradientUnits="userSpaceOnUse">
<stop stop-color="#6E554C"/>
<stop offset="1" stop-color="#66493C"/>
</linearGradient>
<linearGradient id="paint80_linear_730_963" x1="246.116" y1="67.2586" x2="246.116" y2="72.4182" gradientUnits="userSpaceOnUse">
<stop stop-color="#6E554C"/>
<stop offset="1" stop-color="#66493C"/>
</linearGradient>
<linearGradient id="paint81_linear_730_963" x1="234.182" y1="71.0933" x2="234.182" y2="91.3935" gradientUnits="userSpaceOnUse">
<stop stop-color="#6E554C"/>
<stop offset="1" stop-color="#66493C"/>
</linearGradient>
<linearGradient id="paint82_linear_730_963" x1="244.114" y1="85.556" x2="235.694" y2="85.556" gradientUnits="userSpaceOnUse">
<stop stop-color="#E55571"/>
<stop offset="1" stop-color="#D14E68"/>
</linearGradient>
<linearGradient id="paint83_linear_730_963" x1="244.114" y1="84.7766" x2="235.694" y2="84.7766" gradientUnits="userSpaceOnUse">
<stop stop-color="#C94A63"/>
<stop offset="1" stop-color="#BC425F"/>
</linearGradient>
<linearGradient id="paint84_linear_730_963" x1="231.077" y1="45.4447" x2="231.077" y2="64.6851" gradientUnits="userSpaceOnUse">
<stop stop-color="#F4D484"/>
<stop offset="1" stop-color="#F4CF84"/>
</linearGradient>
<linearGradient id="paint85_linear_730_963" x1="231.078" y1="48.0399" x2="231.078" y2="64.6865" gradientUnits="userSpaceOnUse">
<stop stop-color="#F4CF84"/>
<stop offset="1" stop-color="#E3B472"/>
</linearGradient>
<linearGradient id="paint86_linear_730_963" x1="228.69" y1="37.9106" x2="228.69" y2="59.4696" gradientUnits="userSpaceOnUse">
<stop stop-color="#F4D484"/>
<stop offset="1" stop-color="#F4CF84"/>
</linearGradient>
<linearGradient id="paint87_linear_730_963" x1="228.688" y1="40.5273" x2="228.688" y2="59.4703" gradientUnits="userSpaceOnUse">
<stop stop-color="#F4CF84"/>
<stop offset="1" stop-color="#E3B472"/>
</linearGradient>
<linearGradient id="paint88_linear_730_963" x1="223.505" y1="96.1032" x2="223.505" y2="112.045" gradientUnits="userSpaceOnUse">
<stop stop-color="#E55571"/>
<stop offset="1" stop-color="#D14E68"/>
</linearGradient>
<linearGradient id="paint89_linear_730_963" x1="221.899" y1="100.524" x2="214.618" y2="100.524" gradientUnits="userSpaceOnUse">
<stop stop-color="#C94A63"/>
<stop offset="1" stop-color="#BC425F"/>
</linearGradient>
<linearGradient id="paint90_linear_730_963" x1="238.687" y1="96.5657" x2="238.687" y2="112.045" gradientUnits="userSpaceOnUse">
<stop stop-color="#E55571"/>
<stop offset="1" stop-color="#D14E68"/>
</linearGradient>
<linearGradient id="paint91_linear_730_963" x1="241.283" y1="104.305" x2="232.392" y2="104.305" gradientUnits="userSpaceOnUse">
<stop stop-color="#C94A63"/>
<stop offset="1" stop-color="#BC425F"/>
</linearGradient>
<linearGradient id="paint92_linear_730_963" x1="203.704" y1="252.594" x2="159.743" y2="252.594" gradientUnits="userSpaceOnUse">
<stop stop-color="white"/>
<stop offset="1" stop-color="#FFF1ED"/>
</linearGradient>
<linearGradient id="paint93_linear_730_963" x1="201.12" y1="255.071" x2="162.327" y2="255.071" gradientUnits="userSpaceOnUse">
<stop stop-color="#F4DFD9"/>
<stop offset="1" stop-color="#FFE9E3"/>
</linearGradient>
<linearGradient id="paint94_linear_730_963" x1="181.724" y1="252.908" x2="181.724" y2="307.386" gradientUnits="userSpaceOnUse">
<stop stop-color="white"/>
<stop offset="1" stop-color="#FFF1ED"/>
</linearGradient>
<linearGradient id="paint95_linear_730_963" x1="178.826" y1="304.456" x2="178.826" y2="255.838" gradientUnits="userSpaceOnUse">
<stop stop-color="#F4DFD9"/>
<stop offset="1" stop-color="#FFE9E3"/>
</linearGradient>
<linearGradient id="paint96_linear_730_963" x1="178.012" y1="255.838" x2="178.012" y2="304.456" gradientUnits="userSpaceOnUse">
<stop stop-color="#F4DDD7"/>
<stop offset="1" stop-color="#D9C9BD"/>
</linearGradient>
<linearGradient id="paint97_linear_730_963" x1="184.956" y1="181.391" x2="184.956" y2="236.962" gradientUnits="userSpaceOnUse">
<stop stop-color="#FFCCB9"/>
<stop offset="0.3411" stop-color="#FDC8B5"/>
<stop offset="0.6884" stop-color="#F7BCA9"/>
<stop offset="1" stop-color="#EFAB97"/>
</linearGradient>
<linearGradient id="paint98_linear_730_963" x1="185.152" y1="236.141" x2="185.152" y2="231.657" gradientUnits="userSpaceOnUse">
<stop stop-color="#EFAB97"/>
<stop offset="1" stop-color="#E38677"/>
</linearGradient>
<linearGradient id="paint99_linear_730_963" x1="181.866" y1="236.958" x2="181.866" y2="232.48" gradientUnits="userSpaceOnUse">
<stop stop-color="#EFAB97"/>
<stop offset="1" stop-color="#E38677"/>
</linearGradient>
<linearGradient id="paint100_linear_730_963" x1="178.501" y1="235.786" x2="178.501" y2="232.482" gradientUnits="userSpaceOnUse">
<stop stop-color="#EFAB97"/>
<stop offset="1" stop-color="#E38677"/>
</linearGradient>
<linearGradient id="paint101_linear_730_963" x1="194.516" y1="200.7" x2="177.03" y2="200.7" gradientUnits="userSpaceOnUse">
<stop stop-color="#EFAB97"/>
<stop offset="1" stop-color="#E38677"/>
</linearGradient>
<linearGradient id="paint102_linear_730_963" x1="267.081" y1="354.137" x2="267.081" y2="382.272" gradientUnits="userSpaceOnUse">
<stop stop-color="#6E554C"/>
<stop offset="1" stop-color="#66493C"/>
</linearGradient>
<linearGradient id="paint103_linear_730_963" x1="214.246" y1="354.137" x2="214.246" y2="382.272" gradientUnits="userSpaceOnUse">
<stop stop-color="#6E554C"/>
<stop offset="1" stop-color="#66493C"/>
</linearGradient>
<clipPath id="clip0_730_963">
<rect width="445" height="382" fill="white"/>
</clipPath>
</defs>
</svg>
