<svg width="40" height="40" viewBox="0 0 40 40" fill="none" xmlns="http://www.w3.org/2000/svg">
<path d="M13.7834 6.18321L17.2334 4.78321C18.5834 4.23321 20.1334 4.88321 20.6834 6.24988L21.7334 8.81655C22.2834 10.1665 21.6334 11.7165 20.2667 12.2832L16.4501 13.8332C16.8501 15.7499 17.4667 17.9999 18.4334 20.4332C19.5167 23.1832 20.7667 25.4499 21.9001 27.2665L25.7167 25.7165C27.0834 25.1665 28.6334 25.8165 29.1834 27.1832L30.2334 29.7499C30.7834 31.1165 30.1334 32.6665 28.7667 33.2165L25.3167 34.6165L25.2501 34.6499C21.5334 36.1499 17.2501 34.6999 15.3167 31.1999C14.0167 28.8499 12.7334 26.2165 11.5501 23.2665C10.4834 20.5999 9.65005 18.0499 9.01672 15.6832C7.96672 11.7999 10.0001 7.74988 13.7167 6.23321L13.7834 6.18321Z" stroke="white" stroke-width="2" stroke-miterlimit="10" stroke-linecap="round" stroke-linejoin="round"/>
</svg>
