<svg width="33" height="33" viewBox="0 0 33 33" fill="none" xmlns="http://www.w3.org/2000/svg">
<path fill-rule="evenodd" clip-rule="evenodd" d="M9.28125 24.756C7.58483 24.756 6.1875 26.1534 6.1875 27.8498C6.1875 29.5462 7.58483 30.9435 9.28125 30.9435C10.9777 30.9435 12.375 29.5462 12.375 27.8498C12.375 26.1534 10.9777 24.756 9.28125 24.756ZM9.28125 26.8185C9.86301 26.8185 10.3125 27.268 10.3125 27.8498C10.3125 28.4316 9.86301 28.881 9.28125 28.881C8.69949 28.881 8.25 28.4316 8.25 27.8498C8.25 27.268 8.69949 26.8185 9.28125 26.8185Z" fill="#EFEFEF"/>
<path fill-rule="evenodd" clip-rule="evenodd" d="M23.7188 24.756C22.0223 24.756 20.625 26.1534 20.625 27.8498C20.625 29.5462 22.0223 30.9435 23.7188 30.9435C25.4152 30.9435 26.8125 29.5462 26.8125 27.8498C26.8125 26.1534 25.4152 24.756 23.7188 24.756ZM23.7188 26.8185C24.3005 26.8185 24.75 27.268 24.75 27.8498C24.75 28.4316 24.3005 28.881 23.7188 28.881C23.137 28.881 22.6875 28.4316 22.6875 27.8498C22.6875 27.268 23.137 26.8185 23.7188 26.8185Z" fill="#EFEFEF"/>
<path fill-rule="evenodd" clip-rule="evenodd" d="M3.09375 2.06854C2.82025 2.06854 2.55794 2.17719 2.36455 2.37059C2.17115 2.56398 2.0625 2.82629 2.0625 3.09979C2.0625 3.3733 2.17115 3.6356 2.36455 3.829C2.55794 4.02239 2.82025 4.13104 3.09375 4.13104H4.3103L7.04352 17.787C5.93928 18.2616 5.15625 19.3622 5.15625 20.631C5.15625 22.3271 6.5539 23.7248 8.25 23.7248H25.7812C26.0548 23.7248 26.317 23.6161 26.5104 23.4227C26.7038 23.2293 26.8125 22.967 26.8125 22.6935C26.8125 22.42 26.7038 22.1578 26.5104 21.9644C26.317 21.771 26.0548 21.6623 25.7812 21.6623H8.25C7.66085 21.6623 7.21875 21.2202 7.21875 20.631C7.21875 20.0419 7.66085 19.5998 8.25 19.5998H23.7188C23.7289 19.5979 23.7389 19.5959 23.749 19.5938H26.8125C27.0582 19.5939 27.2958 19.5063 27.4826 19.3468C27.6695 19.1872 27.7933 18.9663 27.8317 18.7236L28.8005 12.5684C28.8217 12.4345 28.8163 12.2978 28.7847 12.166C28.7531 12.0342 28.6958 11.91 28.6161 11.8004C28.5364 11.6907 28.4359 11.5979 28.3203 11.5272C28.2047 11.4564 28.0763 11.4092 27.9424 11.3881C27.8085 11.3668 27.6716 11.3723 27.5397 11.404C27.4078 11.4358 27.2835 11.4933 27.1738 11.5732C27.0642 11.6531 26.9714 11.7538 26.9007 11.8696C26.8301 11.9854 26.783 12.1141 26.7621 12.2481L25.9303 17.5312H9.09595L7.23889 8.25604H19.7005C19.974 8.25604 20.2363 8.14739 20.4297 7.954C20.6231 7.7606 20.7318 7.4983 20.7318 7.22479C20.7318 6.95129 20.6231 6.68898 20.4297 6.49559C20.2363 6.30219 19.974 6.19354 19.7005 6.19354H6.82599L6.16736 2.89838C6.12076 2.66448 5.99454 2.45398 5.81019 2.30267C5.62584 2.15137 5.39474 2.06863 5.15625 2.06854H3.09375Z" fill="#EFEFEF"/>
<path fill-rule="evenodd" clip-rule="evenodd" d="M24.75 2.06854C21.345 2.06854 18.5625 4.851 18.5625 8.25604C18.5625 11.6611 21.345 14.4435 24.75 14.4435C28.155 14.4435 30.9375 11.6611 30.9375 8.25604C30.9375 4.851 28.155 2.06854 24.75 2.06854ZM24.75 4.13104C27.0404 4.13104 28.875 5.96566 28.875 8.25604C28.875 10.5464 27.0404 12.381 24.75 12.381C22.4596 12.381 20.625 10.5464 20.625 8.25604C20.625 5.96566 22.4596 4.13104 24.75 4.13104Z" fill="#EFEFEF"/>
<path fill-rule="evenodd" clip-rule="evenodd" d="M24.75 5.16229C24.4765 5.16229 24.2142 5.27094 24.0208 5.46434C23.8274 5.65773 23.7188 5.92004 23.7188 6.19354V7.22479H22.6875C22.414 7.22479 22.1517 7.33344 21.9583 7.52684C21.7649 7.72023 21.6562 7.98254 21.6562 8.25604C21.6562 8.52955 21.7649 8.79185 21.9583 8.98525C22.1517 9.17864 22.414 9.28729 22.6875 9.28729H23.7188V10.3185C23.7188 10.592 23.8274 10.8544 24.0208 11.0477C24.2142 11.2411 24.4765 11.3498 24.75 11.3498C25.0235 11.3498 25.2858 11.2411 25.4792 11.0477C25.6726 10.8544 25.7812 10.592 25.7812 10.3185V9.28729H26.8125C27.086 9.28729 27.3483 9.17864 27.5417 8.98525C27.7351 8.79185 27.8438 8.52955 27.8438 8.25604C27.8438 7.98254 27.7351 7.72023 27.5417 7.52684C27.3483 7.33344 27.086 7.22479 26.8125 7.22479H25.7812V6.19354C25.7812 5.92004 25.6726 5.65773 25.4792 5.46434C25.2858 5.27094 25.0235 5.16229 24.75 5.16229Z" fill="#EFEFEF"/>
</svg>
