<svg width="20" height="21" viewBox="0 0 20 21" fill="none" xmlns="http://www.w3.org/2000/svg">
<path fill-rule="evenodd" clip-rule="evenodd" d="M4.98366 16.0469C3.86783 16.0469 2.94873 16.9922 2.94873 18.1399C2.94873 19.2876 3.86783 20.233 4.98366 20.233C6.09948 20.233 7.01858 19.2876 7.01858 18.1399C7.01858 16.9922 6.09948 16.0469 4.98366 16.0469ZM4.98366 17.4422C5.36631 17.4422 5.66197 17.7463 5.66197 18.1399C5.66197 18.5335 5.36631 18.8376 4.98366 18.8376C4.601 18.8376 4.30535 18.5335 4.30535 18.1399C4.30535 17.7463 4.601 17.4422 4.98366 17.4422Z" fill="#817D7D"/>
<path fill-rule="evenodd" clip-rule="evenodd" d="M4.98366 16.0469C3.86783 16.0469 2.94873 16.9922 2.94873 18.1399C2.94873 19.2876 3.86783 20.233 4.98366 20.233C6.09948 20.233 7.01858 19.2876 7.01858 18.1399C7.01858 16.9922 6.09948 16.0469 4.98366 16.0469ZM4.98366 17.4422C5.36631 17.4422 5.66197 17.7463 5.66197 18.1399C5.66197 18.5335 5.36631 18.8376 4.98366 18.8376C4.601 18.8376 4.30535 18.5335 4.30535 18.1399C4.30535 17.7463 4.601 17.4422 4.98366 17.4422Z" fill="black" fill-opacity="0.2"/>
<path fill-rule="evenodd" clip-rule="evenodd" d="M4.98366 16.0469C3.86783 16.0469 2.94873 16.9922 2.94873 18.1399C2.94873 19.2876 3.86783 20.233 4.98366 20.233C6.09948 20.233 7.01858 19.2876 7.01858 18.1399C7.01858 16.9922 6.09948 16.0469 4.98366 16.0469ZM4.98366 17.4422C5.36631 17.4422 5.66197 17.7463 5.66197 18.1399C5.66197 18.5335 5.36631 18.8376 4.98366 18.8376C4.601 18.8376 4.30535 18.5335 4.30535 18.1399C4.30535 17.7463 4.601 17.4422 4.98366 17.4422Z" fill="black" fill-opacity="0.2"/>
<path fill-rule="evenodd" clip-rule="evenodd" d="M4.98366 16.0469C3.86783 16.0469 2.94873 16.9922 2.94873 18.1399C2.94873 19.2876 3.86783 20.233 4.98366 20.233C6.09948 20.233 7.01858 19.2876 7.01858 18.1399C7.01858 16.9922 6.09948 16.0469 4.98366 16.0469ZM4.98366 17.4422C5.36631 17.4422 5.66197 17.7463 5.66197 18.1399C5.66197 18.5335 5.36631 18.8376 4.98366 18.8376C4.601 18.8376 4.30535 18.5335 4.30535 18.1399C4.30535 17.7463 4.601 17.4422 4.98366 17.4422Z" fill="black" fill-opacity="0.2"/>
<path fill-rule="evenodd" clip-rule="evenodd" d="M14.4798 16.0469C13.3639 16.0469 12.4448 16.9922 12.4448 18.1399C12.4448 19.2876 13.3639 20.233 14.4798 20.233C15.5956 20.233 16.5147 19.2876 16.5147 18.1399C16.5147 16.9922 15.5956 16.0469 14.4798 16.0469ZM14.4798 17.4422C14.8624 17.4422 15.1581 17.7463 15.1581 18.1399C15.1581 18.5335 14.8624 18.8376 14.4798 18.8376C14.0971 18.8376 13.8014 18.5335 13.8014 18.1399C13.8014 17.7463 14.0971 17.4422 14.4798 17.4422Z" fill="#817D7D"/>
<path fill-rule="evenodd" clip-rule="evenodd" d="M14.4798 16.0469C13.3639 16.0469 12.4448 16.9922 12.4448 18.1399C12.4448 19.2876 13.3639 20.233 14.4798 20.233C15.5956 20.233 16.5147 19.2876 16.5147 18.1399C16.5147 16.9922 15.5956 16.0469 14.4798 16.0469ZM14.4798 17.4422C14.8624 17.4422 15.1581 17.7463 15.1581 18.1399C15.1581 18.5335 14.8624 18.8376 14.4798 18.8376C14.0971 18.8376 13.8014 18.5335 13.8014 18.1399C13.8014 17.7463 14.0971 17.4422 14.4798 17.4422Z" fill="black" fill-opacity="0.2"/>
<path fill-rule="evenodd" clip-rule="evenodd" d="M14.4798 16.0469C13.3639 16.0469 12.4448 16.9922 12.4448 18.1399C12.4448 19.2876 13.3639 20.233 14.4798 20.233C15.5956 20.233 16.5147 19.2876 16.5147 18.1399C16.5147 16.9922 15.5956 16.0469 14.4798 16.0469ZM14.4798 17.4422C14.8624 17.4422 15.1581 17.7463 15.1581 18.1399C15.1581 18.5335 14.8624 18.8376 14.4798 18.8376C14.0971 18.8376 13.8014 18.5335 13.8014 18.1399C13.8014 17.7463 14.0971 17.4422 14.4798 17.4422Z" fill="black" fill-opacity="0.2"/>
<path fill-rule="evenodd" clip-rule="evenodd" d="M14.4798 16.0469C13.3639 16.0469 12.4448 16.9922 12.4448 18.1399C12.4448 19.2876 13.3639 20.233 14.4798 20.233C15.5956 20.233 16.5147 19.2876 16.5147 18.1399C16.5147 16.9922 15.5956 16.0469 14.4798 16.0469ZM14.4798 17.4422C14.8624 17.4422 15.1581 17.7463 15.1581 18.1399C15.1581 18.5335 14.8624 18.8376 14.4798 18.8376C14.0971 18.8376 13.8014 18.5335 13.8014 18.1399C13.8014 17.7463 14.0971 17.4422 14.4798 17.4422Z" fill="black" fill-opacity="0.2"/>
<path fill-rule="evenodd" clip-rule="evenodd" d="M0.91366 0.697815C0.733762 0.697815 0.561231 0.77132 0.434023 0.902161C0.306816 1.033 0.235352 1.21046 0.235352 1.3955C0.235352 1.58054 0.306816 1.758 0.434023 1.88884C0.561231 2.01968 0.733762 2.09318 0.91366 2.09318H1.71385L3.51164 11.332C2.78532 11.6531 2.27028 12.3977 2.27028 13.2561C2.27028 14.4036 3.18959 15.3492 4.3052 15.3492H15.8365C16.0164 15.3492 16.1889 15.2757 16.3161 15.1448C16.4433 15.014 16.5148 14.8365 16.5148 14.6515C16.5148 14.4665 16.4433 14.289 16.3161 14.1582C16.1889 14.0273 16.0164 13.9538 15.8365 13.9538H4.3052C3.91769 13.9538 3.6269 13.6547 3.6269 13.2561C3.6269 12.8575 3.91769 12.5584 4.3052 12.5584H14.4798C14.4865 12.5572 14.4931 12.5558 14.4997 12.5544H16.5148C16.6764 12.5544 16.8327 12.4952 16.9556 12.3873C17.0785 12.2793 17.1599 12.1298 17.1851 11.9657L17.8224 7.80138C17.8363 7.71083 17.8328 7.61833 17.812 7.52918C17.7912 7.44003 17.7535 7.35597 17.7011 7.2818C17.6487 7.20764 17.5826 7.14483 17.5065 7.09697C17.4305 7.04911 17.346 7.01713 17.258 7.00286C17.1699 6.98851 17.0798 6.99218 16.9931 7.01367C16.9063 7.03516 16.8245 7.07404 16.7524 7.12809C16.6803 7.18214 16.6193 7.2503 16.5728 7.32866C16.5263 7.40701 16.4954 7.49403 16.4816 7.58472L15.9345 11.159H4.86163L3.64014 4.88392H11.8368C12.0167 4.88392 12.1893 4.81041 12.3165 4.67957C12.4437 4.54873 12.5151 4.37127 12.5151 4.18624C12.5151 4.0012 12.4437 3.82374 12.3165 3.6929C12.1893 3.56206 12.0167 3.48855 11.8368 3.48855H3.36856L2.93534 1.25923C2.90469 1.10099 2.82167 0.958576 2.70041 0.856214C2.57915 0.753852 2.42715 0.697872 2.27028 0.697815H0.91366Z" fill="#817D7D"/>
<path fill-rule="evenodd" clip-rule="evenodd" d="M0.91366 0.697815C0.733762 0.697815 0.561231 0.77132 0.434023 0.902161C0.306816 1.033 0.235352 1.21046 0.235352 1.3955C0.235352 1.58054 0.306816 1.758 0.434023 1.88884C0.561231 2.01968 0.733762 2.09318 0.91366 2.09318H1.71385L3.51164 11.332C2.78532 11.6531 2.27028 12.3977 2.27028 13.2561C2.27028 14.4036 3.18959 15.3492 4.3052 15.3492H15.8365C16.0164 15.3492 16.1889 15.2757 16.3161 15.1448C16.4433 15.014 16.5148 14.8365 16.5148 14.6515C16.5148 14.4665 16.4433 14.289 16.3161 14.1582C16.1889 14.0273 16.0164 13.9538 15.8365 13.9538H4.3052C3.91769 13.9538 3.6269 13.6547 3.6269 13.2561C3.6269 12.8575 3.91769 12.5584 4.3052 12.5584H14.4798C14.4865 12.5572 14.4931 12.5558 14.4997 12.5544H16.5148C16.6764 12.5544 16.8327 12.4952 16.9556 12.3873C17.0785 12.2793 17.1599 12.1298 17.1851 11.9657L17.8224 7.80138C17.8363 7.71083 17.8328 7.61833 17.812 7.52918C17.7912 7.44003 17.7535 7.35597 17.7011 7.2818C17.6487 7.20764 17.5826 7.14483 17.5065 7.09697C17.4305 7.04911 17.346 7.01713 17.258 7.00286C17.1699 6.98851 17.0798 6.99218 16.9931 7.01367C16.9063 7.03516 16.8245 7.07404 16.7524 7.12809C16.6803 7.18214 16.6193 7.2503 16.5728 7.32866C16.5263 7.40701 16.4954 7.49403 16.4816 7.58472L15.9345 11.159H4.86163L3.64014 4.88392H11.8368C12.0167 4.88392 12.1893 4.81041 12.3165 4.67957C12.4437 4.54873 12.5151 4.37127 12.5151 4.18624C12.5151 4.0012 12.4437 3.82374 12.3165 3.6929C12.1893 3.56206 12.0167 3.48855 11.8368 3.48855H3.36856L2.93534 1.25923C2.90469 1.10099 2.82167 0.958576 2.70041 0.856214C2.57915 0.753852 2.42715 0.697872 2.27028 0.697815H0.91366Z" fill="black" fill-opacity="0.2"/>
<path fill-rule="evenodd" clip-rule="evenodd" d="M0.91366 0.697815C0.733762 0.697815 0.561231 0.77132 0.434023 0.902161C0.306816 1.033 0.235352 1.21046 0.235352 1.3955C0.235352 1.58054 0.306816 1.758 0.434023 1.88884C0.561231 2.01968 0.733762 2.09318 0.91366 2.09318H1.71385L3.51164 11.332C2.78532 11.6531 2.27028 12.3977 2.27028 13.2561C2.27028 14.4036 3.18959 15.3492 4.3052 15.3492H15.8365C16.0164 15.3492 16.1889 15.2757 16.3161 15.1448C16.4433 15.014 16.5148 14.8365 16.5148 14.6515C16.5148 14.4665 16.4433 14.289 16.3161 14.1582C16.1889 14.0273 16.0164 13.9538 15.8365 13.9538H4.3052C3.91769 13.9538 3.6269 13.6547 3.6269 13.2561C3.6269 12.8575 3.91769 12.5584 4.3052 12.5584H14.4798C14.4865 12.5572 14.4931 12.5558 14.4997 12.5544H16.5148C16.6764 12.5544 16.8327 12.4952 16.9556 12.3873C17.0785 12.2793 17.1599 12.1298 17.1851 11.9657L17.8224 7.80138C17.8363 7.71083 17.8328 7.61833 17.812 7.52918C17.7912 7.44003 17.7535 7.35597 17.7011 7.2818C17.6487 7.20764 17.5826 7.14483 17.5065 7.09697C17.4305 7.04911 17.346 7.01713 17.258 7.00286C17.1699 6.98851 17.0798 6.99218 16.9931 7.01367C16.9063 7.03516 16.8245 7.07404 16.7524 7.12809C16.6803 7.18214 16.6193 7.2503 16.5728 7.32866C16.5263 7.40701 16.4954 7.49403 16.4816 7.58472L15.9345 11.159H4.86163L3.64014 4.88392H11.8368C12.0167 4.88392 12.1893 4.81041 12.3165 4.67957C12.4437 4.54873 12.5151 4.37127 12.5151 4.18624C12.5151 4.0012 12.4437 3.82374 12.3165 3.6929C12.1893 3.56206 12.0167 3.48855 11.8368 3.48855H3.36856L2.93534 1.25923C2.90469 1.10099 2.82167 0.958576 2.70041 0.856214C2.57915 0.753852 2.42715 0.697872 2.27028 0.697815H0.91366Z" fill="black" fill-opacity="0.2"/>
<path fill-rule="evenodd" clip-rule="evenodd" d="M0.91366 0.697815C0.733762 0.697815 0.561231 0.77132 0.434023 0.902161C0.306816 1.033 0.235352 1.21046 0.235352 1.3955C0.235352 1.58054 0.306816 1.758 0.434023 1.88884C0.561231 2.01968 0.733762 2.09318 0.91366 2.09318H1.71385L3.51164 11.332C2.78532 11.6531 2.27028 12.3977 2.27028 13.2561C2.27028 14.4036 3.18959 15.3492 4.3052 15.3492H15.8365C16.0164 15.3492 16.1889 15.2757 16.3161 15.1448C16.4433 15.014 16.5148 14.8365 16.5148 14.6515C16.5148 14.4665 16.4433 14.289 16.3161 14.1582C16.1889 14.0273 16.0164 13.9538 15.8365 13.9538H4.3052C3.91769 13.9538 3.6269 13.6547 3.6269 13.2561C3.6269 12.8575 3.91769 12.5584 4.3052 12.5584H14.4798C14.4865 12.5572 14.4931 12.5558 14.4997 12.5544H16.5148C16.6764 12.5544 16.8327 12.4952 16.9556 12.3873C17.0785 12.2793 17.1599 12.1298 17.1851 11.9657L17.8224 7.80138C17.8363 7.71083 17.8328 7.61833 17.812 7.52918C17.7912 7.44003 17.7535 7.35597 17.7011 7.2818C17.6487 7.20764 17.5826 7.14483 17.5065 7.09697C17.4305 7.04911 17.346 7.01713 17.258 7.00286C17.1699 6.98851 17.0798 6.99218 16.9931 7.01367C16.9063 7.03516 16.8245 7.07404 16.7524 7.12809C16.6803 7.18214 16.6193 7.2503 16.5728 7.32866C16.5263 7.40701 16.4954 7.49403 16.4816 7.58472L15.9345 11.159H4.86163L3.64014 4.88392H11.8368C12.0167 4.88392 12.1893 4.81041 12.3165 4.67957C12.4437 4.54873 12.5151 4.37127 12.5151 4.18624C12.5151 4.0012 12.4437 3.82374 12.3165 3.6929C12.1893 3.56206 12.0167 3.48855 11.8368 3.48855H3.36856L2.93534 1.25923C2.90469 1.10099 2.82167 0.958576 2.70041 0.856214C2.57915 0.753852 2.42715 0.697872 2.27028 0.697815H0.91366Z" fill="black" fill-opacity="0.2"/>
<path fill-rule="evenodd" clip-rule="evenodd" d="M15.1582 0.697815C12.9186 0.697815 11.0884 2.58026 11.0884 4.88392C11.0884 7.18758 12.9186 9.07003 15.1582 9.07003C17.3979 9.07003 19.2281 7.18758 19.2281 4.88392C19.2281 2.58026 17.3979 0.697815 15.1582 0.697815ZM15.1582 2.09318C16.6647 2.09318 17.8715 3.33438 17.8715 4.88392C17.8715 6.43346 16.6647 7.67466 15.1582 7.67466C13.6517 7.67466 12.445 6.43346 12.445 4.88392C12.445 3.33438 13.6517 2.09318 15.1582 2.09318Z" fill="#817D7D"/>
<path fill-rule="evenodd" clip-rule="evenodd" d="M15.1582 0.697815C12.9186 0.697815 11.0884 2.58026 11.0884 4.88392C11.0884 7.18758 12.9186 9.07003 15.1582 9.07003C17.3979 9.07003 19.2281 7.18758 19.2281 4.88392C19.2281 2.58026 17.3979 0.697815 15.1582 0.697815ZM15.1582 2.09318C16.6647 2.09318 17.8715 3.33438 17.8715 4.88392C17.8715 6.43346 16.6647 7.67466 15.1582 7.67466C13.6517 7.67466 12.445 6.43346 12.445 4.88392C12.445 3.33438 13.6517 2.09318 15.1582 2.09318Z" fill="black" fill-opacity="0.2"/>
<path fill-rule="evenodd" clip-rule="evenodd" d="M15.1582 0.697815C12.9186 0.697815 11.0884 2.58026 11.0884 4.88392C11.0884 7.18758 12.9186 9.07003 15.1582 9.07003C17.3979 9.07003 19.2281 7.18758 19.2281 4.88392C19.2281 2.58026 17.3979 0.697815 15.1582 0.697815ZM15.1582 2.09318C16.6647 2.09318 17.8715 3.33438 17.8715 4.88392C17.8715 6.43346 16.6647 7.67466 15.1582 7.67466C13.6517 7.67466 12.445 6.43346 12.445 4.88392C12.445 3.33438 13.6517 2.09318 15.1582 2.09318Z" fill="black" fill-opacity="0.2"/>
<path fill-rule="evenodd" clip-rule="evenodd" d="M15.1582 0.697815C12.9186 0.697815 11.0884 2.58026 11.0884 4.88392C11.0884 7.18758 12.9186 9.07003 15.1582 9.07003C17.3979 9.07003 19.2281 7.18758 19.2281 4.88392C19.2281 2.58026 17.3979 0.697815 15.1582 0.697815ZM15.1582 2.09318C16.6647 2.09318 17.8715 3.33438 17.8715 4.88392C17.8715 6.43346 16.6647 7.67466 15.1582 7.67466C13.6517 7.67466 12.445 6.43346 12.445 4.88392C12.445 3.33438 13.6517 2.09318 15.1582 2.09318Z" fill="black" fill-opacity="0.2"/>
</svg>
