<svg width="18" height="22" viewBox="0 0 18 22" fill="none" xmlns="http://www.w3.org/2000/svg">
<path fill-rule="evenodd" clip-rule="evenodd" d="M8.33571 1.16276L0.509623 7.54512C0.297809 7.71786 0.17392 7.98346 0.17392 8.26482V18.2942C0.17392 19.8049 1.34187 21.0295 2.78262 21.0295H6.26084H11.4782H14.9565C16.3973 21.0295 17.5652 19.8049 17.5652 18.2942V8.26482C17.5652 7.98346 17.4413 7.71786 17.2295 7.54512L9.40343 1.16276C9.08942 0.906683 8.64972 0.906683 8.33571 1.16276ZM12.3478 19.2061H14.9565C15.4367 19.2061 15.8261 18.7979 15.8261 18.2943V8.71078L8.86953 3.03686L1.91301 8.70987V18.2943C1.91301 18.7619 2.2487 19.1473 2.68117 19.2L2.78258 19.2061H5.39127V11.0001C5.39127 10.5325 5.72696 10.1472 6.15943 10.0945L6.26084 10.0883H11.4782C11.9242 10.0883 12.2917 10.4403 12.3419 10.8938L12.3478 11.0001V19.2061ZM7.1304 19.2061V11.9119H10.6087V19.2061H7.1304Z" fill="#352429"/>
</svg>
