<svg width="28" height="25" viewBox="0 0 28 25" fill="none" xmlns="http://www.w3.org/2000/svg">
<path d="M15.2106 8.14502H7.35107" stroke="white" stroke-width="2" stroke-linecap="round" stroke-linejoin="round"/>
<path d="M21.2776 10.235C20.7275 10.772 20.4131 11.5449 20.4917 12.3701C20.6096 13.7849 21.9064 14.8197 23.3211 14.8197H25.8886V16.7191C25.8886 20.6489 23.2687 23.2687 19.339 23.2687H7.54963C3.61985 23.2687 1 20.6489 1 16.7191V7.54962C1 3.98663 3.14828 1.49777 6.48859 1.0786C6.82917 1.0262 7.18285 1 7.54963 1H19.339C19.6795 1 20.007 1.01309 20.3214 1.06548C23.701 1.45846 25.8886 3.96043 25.8886 7.54962V9.44903H23.1639C22.4304 9.44903 21.7623 9.7372 21.2776 10.235Z" stroke="white" stroke-width="2" stroke-linecap="round" stroke-linejoin="round"/>
<path d="M27 10.7253V13.4239C27 14.1444 26.4237 14.7337 25.6901 14.7599H23.1225C21.7078 14.7599 20.4111 13.7251 20.2932 12.3103C20.2146 11.4851 20.5289 10.7122 21.079 10.1752C21.5637 9.6774 22.2319 9.38928 22.9655 9.38928H25.6901C26.4237 9.41548 27 10.0049 27 10.7253Z" stroke="white" stroke-width="2" stroke-linecap="round" stroke-linejoin="round"/>
</svg>
