<svg width="30" height="30" viewBox="0 0 30 30" fill="none" xmlns="http://www.w3.org/2000/svg">
<path d="M21.4124 17.7938C21.0562 17.625 19.3499 16.7813 19.0312 16.65C18.7124 16.5188 18.4874 16.4813 18.2437 16.8375C17.9999 17.1938 17.3437 17.9625 17.1374 18.2063C16.9312 18.45 16.7437 18.4688 16.3874 18.2063C15.3642 17.7956 14.4192 17.2121 13.5937 16.4813C12.8464 15.7777 12.2138 14.9616 11.7187 14.0625C11.5124 13.725 11.7187 13.5375 11.8687 13.35C12.0187 13.1625 12.2062 12.9563 12.3937 12.75C12.5308 12.5716 12.6442 12.3763 12.7312 12.1688C12.7777 12.0723 12.8019 11.9665 12.8019 11.8594C12.8019 11.7523 12.7777 11.6465 12.7312 11.55C12.7312 11.3813 11.9437 9.67501 11.6437 8.98126C11.3437 8.28751 11.0812 8.38126 10.8749 8.38126H10.1249C9.76766 8.39519 9.43049 8.55028 9.18743 8.81251C8.79511 9.18689 8.48434 9.63828 8.27462 10.1384C8.0649 10.6385 7.96075 11.1765 7.96868 11.7188C8.06459 13.05 8.55407 14.3226 9.37493 15.375C10.8813 17.6127 12.9421 19.4216 15.3562 20.625C16.1812 20.9813 16.8187 21.1875 17.3249 21.3563C18.0358 21.5711 18.7872 21.6161 19.5187 21.4875C20.0045 21.389 20.4649 21.1916 20.8713 20.9078C21.2777 20.624 21.6214 20.2597 21.8812 19.8375C22.0974 19.3161 22.1686 18.746 22.0874 18.1875C21.9937 18.0563 21.7687 17.9625 21.4124 17.7938Z" fill="#EFEFEF"/>
<path d="M24.9189 5.02499C23.6222 3.71602 22.0765 2.67997 20.373 1.97795C18.6695 1.27593 16.8426 0.922157 15.0002 0.93749C12.5595 0.950262 10.1649 1.60317 8.05546 2.83102C5.94606 4.05886 4.19572 5.81866 2.97927 7.93465C1.76281 10.0506 1.12281 12.4488 1.1232 14.8895C1.12358 17.3302 1.76433 19.7281 2.98145 21.8437L1.10645 29.0625L8.49395 27.1875C10.5363 28.2988 12.8251 28.8791 15.1502 28.875H15.0002C17.7713 28.893 20.485 28.0854 22.7952 26.555C25.1054 25.0245 26.9075 22.8407 27.9716 20.282C29.0357 17.7233 29.3137 14.9057 28.77 12.1884C28.2263 9.47109 26.8856 6.97728 24.9189 5.02499ZM15.0002 26.475C12.92 26.4766 10.8784 25.9128 9.09395 24.8437L8.68145 24.6L4.29395 25.7437L5.45645 21.4687L5.19395 21.0375C3.69649 18.6259 3.13634 15.7486 3.61979 12.9514C4.10323 10.1542 5.59663 7.63178 7.81663 5.86271C10.0366 4.09365 12.8288 3.20103 15.6633 3.35421C18.4978 3.5074 21.1775 4.69573 23.1939 6.69374C24.275 7.76604 25.1318 9.04276 25.7144 10.4495C26.2971 11.8562 26.5939 13.3649 26.5877 14.8875C26.5827 17.9592 25.3603 20.9036 23.1883 23.0756C21.0163 25.2476 18.0719 26.47 15.0002 26.475Z" fill="#EFEFEF"/>
</svg>
